<svg version="1.2" xmlns="http://www.w3.org/2000/svg" viewBox="0 0 258 114" width="258" height="114"><style>.a{fill:#fff}</style><path class="a" d="m0.9 62h17v-24h18.1v-13h-18.1v-10.8h24.6v-13.5h-41.6zm83.1 0h18.1l-22.3-61.4h-19.7l-22.3 61.4h17.9l3.3-10h21.7zm-7.5-23.1h-13.2l6.6-19.8zm20-24.7h16.1v47.7h17.1v-47.7h16.4v-13.6h-49.6zm95.1-13.6h-39.2v61.4h39.2v-13.7h-22.1v-11.1h19.5v-12.9h-19.5v-10h22.1zm6.4 30.5c0 18.4 12.1 31.2 30.5 31.2 15.4 0 26.4-8.8 29.4-22.7h-18.3c-2.2 4.6-6.3 7.1-11.3 7.1-7.9 0-13-6.1-13-15.6 0-9.4 5.1-15.5 13-15.5 5 0 9.1 2.6 11.3 7.2h18.3c-3-14-14-22.8-29.4-22.8-18.4 0-30.5 12.8-30.5 31.1z"/><path class="a" d="m1.7 102h7.3v-31.8h-7.3zm31.1 0h7.4v-24h-7.4zm3.7-26.5c2.6 0 4.4-1.8 4.4-4 0-2.2-1.8-4-4.4-4-2.6 0-4.3 1.8-4.3 4 0 2.2 1.7 4 4.3 4zm34.9 5.9v-11.2h-7.4v31.8h7.4v-3.4c1.3 2.1 3.8 3.7 7.4 3.7 5.9 0 10.5-4.8 10.5-12.4 0-7.5-4.6-12.3-10.5-12.3-3.5 0-6.1 1.6-7.4 3.8zm10.5 8.5c0 3.9-2.5 6-5.3 6-2.8 0-5.3-2.1-5.3-5.9 0-3.8 2.5-5.9 5.3-5.9 2.8 0 5.3 2 5.3 5.8zm37.2 0.9c0-4.1 2-5.3 5.5-5.3h2v-7.8c-3.2 0-5.9 1.8-7.5 4.3v-4h-7.4v24h7.4zm28-0.9c0 7.6 4.7 12.4 10.6 12.4 3.5 0 6.1-1.7 7.4-3.8v3.4h7.4v-24h-7.4v3.4c-1.3-2.1-3.8-3.7-7.4-3.7-5.9 0-10.6 4.7-10.6 12.3zm18 0c0 3.9-2.4 6-5.2 6-2.8 0-5.3-2.2-5.3-6 0-3.8 2.5-5.9 5.3-5.9 2.8 0 5.2 2.1 5.2 5.9zm38.5 0.9c0-4.1 2.1-5.3 5.5-5.3h2.1v-7.8c-3.3 0-5.9 1.7-7.6 4.2v-4h-7.3v24h7.3zm40.6 2.2l-5.5-15h-8.2l9.7 23.1-5.5 12.3h7.9l15.1-35.4h-8z"/></svg>