<svg version="1.2" xmlns="http://www.w3.org/2000/svg" viewBox="0 0 2754 2514" width="2754" height="2514"><defs><linearGradient id="P" gradientUnits="userSpaceOnUse"/><linearGradient id="g1" x1="1691.9" y1="1510.9" x2="1021.4" y2="2016.7" href="#P"><stop offset="0" stop-color="#e38ddd"/><stop offset="1" stop-color="#9571f6"/></linearGradient><linearGradient id="g2" x1="2705.5" y1="778.8" x2="1279.1" y2="2544.2" href="#P"><stop stop-color="#ffc444"/><stop offset="1" stop-color="#f36f56"/></linearGradient><linearGradient id="g3" x1="1924.7" y1="1859.3" x2="423.1" y2="627.5" href="#P"><stop stop-color="#311944"/><stop offset="1" stop-color="#a03976"/></linearGradient><linearGradient id="g4" x1="82" y1="856.4" x2="953.4" y2="353.8" href="#P"><stop stop-color="#311944"/><stop offset="1" stop-color="#a03976"/></linearGradient><linearGradient id="g5" x1="847.2" y1="343.4" x2="2437.5" y2="273.4" href="#P"><stop stop-color="#d8dee8"/><stop offset="1" stop-color="#abc"/></linearGradient><linearGradient id="g6" x1="845.8" y1="329.4" x2="2432.1" y2="259.7" href="#P"><stop offset=".5" stop-color="#eaedf3"/><stop offset="1" stop-color="#fff"/></linearGradient><linearGradient id="g7" x1="1218.2" y1="1374.8" x2="978.3" y2="1473.3" href="#P"><stop offset=".5" stop-color="#eaedf3"/><stop offset="1" stop-color="#fff"/></linearGradient><linearGradient id="g8" x1="1419.4" y1="1300.5" x2="1054.2" y2="1417" href="#P"><stop offset=".5" stop-color="#eaedf3"/><stop offset="1" stop-color="#fff"/></linearGradient><linearGradient id="g9" x1="1247.9" y1="313.7" x2="2210.7" y2="271.4" href="#P"><stop stop-color="#d8dee8"/><stop offset="1" stop-color="#abc"/></linearGradient><linearGradient id="g10" x1="1637.5" y1="1323.2" x2="1703.5" y2="-108.4" href="#P"><stop stop-color="#311944"/><stop offset="1" stop-color="#a03976"/></linearGradient><linearGradient id="g11" x1="2533.8" y1="1891.8" x2="1076.1" y2="695.9" href="#P"><stop stop-color="#311944"/><stop offset="1" stop-color="#a03976"/></linearGradient><linearGradient id="g12" x1="2022.7" y1="802.6" x2="1207" y2="133.5" href="#P"><stop stop-color="#311944"/><stop offset="1" stop-color="#a03976"/></linearGradient><linearGradient id="g13" x1="2564.5" y1="1764" x2="2323.1" y2="2313.1" href="#P"><stop stop-color="#aa80f9"/><stop offset="1" stop-color="#6165d7"/></linearGradient><linearGradient id="g14" x1="1982.2" y1="2313" x2="512.8" y2="2313" href="#P"><stop stop-color="#aa80f9"/><stop offset="1" stop-color="#6165d7"/></linearGradient><linearGradient id="g15" x1="1921.6" y1="2064.1" x2="2274.1" y2="876.7" href="#P"><stop offset="0" stop-color="#e38ddd"/><stop offset="1" stop-color="#9571f6"/></linearGradient><linearGradient id="g16" x1="1982.2" y1="1980.3" x2="512.8" y2="1980.3" href="#P"><stop offset="0" stop-color="#e38ddd"/><stop offset="1" stop-color="#9571f6"/></linearGradient><linearGradient id="g17" x1="2727.6" y1="1504.9" x2="2372.2" y2="1501" href="#P"><stop stop-color="#aa80f9"/><stop offset="1" stop-color="#6165d7"/></linearGradient><linearGradient id="g18" x1="1982.2" y1="1191.3" x2="512.8" y2="1191.3" href="#P"><stop stop-color="#aa80f9"/><stop offset="1" stop-color="#6165d7"/></linearGradient><linearGradient id="g19" x1="1982.2" y1="1482.7" x2="512.8" y2="1482.7" href="#P"><stop stop-color="#aa80f9"/><stop offset="1" stop-color="#6165d7"/></linearGradient><linearGradient id="g20" x1="2626.8" y1="1251.4" x2="2746.8" y2="1429.1" href="#P"><stop stop-color="#ffc444"/><stop offset="1" stop-color="#f36f56"/></linearGradient><linearGradient id="g21" x1="2602.3" y1="1258" x2="2727.1" y2="1442.8" href="#P"><stop stop-color="#aa80f9"/><stop offset="1" stop-color="#6165d7"/></linearGradient><linearGradient id="g22" x1="1384.8" y1="921" x2="2738.7" y2="3453.4" href="#P"><stop stop-color="#ff9085"/><stop offset="1" stop-color="#fb6fbb"/></linearGradient><linearGradient id="g23" x1="1491.8" y1="986.2" x2="2713.9" y2="3272.1" href="#P"><stop stop-color="#ff9085"/><stop offset="1" stop-color="#fb6fbb"/></linearGradient><linearGradient id="g24" x1="1035.4" y1="1080.5" x2="2402.1" y2="3637.2" href="#P"><stop stop-color="#ff9085"/><stop offset="1" stop-color="#fb6fbb"/></linearGradient><linearGradient id="g25" x1="978.5" y1="1934.5" x2="11.8" y2="1350.4" href="#P"><stop stop-color="#311944"/><stop offset="1" stop-color="#6b3976"/></linearGradient><linearGradient id="g26" x1="1252.9" y1="1767.2" x2="967.3" y2="1782.4" href="#P"><stop offset="0" stop-color="#e38ddd"/><stop offset="1" stop-color="#9571f6"/></linearGradient><linearGradient id="g27" x1="1436.2" y1="2538.8" x2="1325.6" y2="2472.9" href="#P"><stop stop-color="#311944"/><stop offset="1" stop-color="#6b3976"/></linearGradient><linearGradient id="g28" x1="1508.9" y1="2333.5" x2="1341.4" y2="2942.2" href="#P"><stop stop-color="#ffc444"/><stop offset="1" stop-color="#f36f56"/></linearGradient><linearGradient id="g29" x1="1471.4" y1="2270" x2="1395" y2="2274" href="#P"><stop stop-color="#311944"/><stop offset="1" stop-color="#6b3976"/></linearGradient><linearGradient id="g30" x1="1568.9" y1="1974.8" x2="1469.4" y2="2336.3" href="#P"><stop stop-color="#ffc444"/><stop offset="1" stop-color="#f36f56"/></linearGradient><linearGradient id="g31" x1="1100.7" y1="2236.5" x2="973.6" y2="1679.8" href="#P"><stop stop-color="#40447e"/><stop offset="1" stop-color="#3c3b6b"/></linearGradient><linearGradient id="g32" x1="1573.9" y1="1802" x2="1476" y2="2180.7" href="#P"><stop stop-color="#40447e"/><stop offset="1" stop-color="#3c3b6b"/></linearGradient><linearGradient id="g33" x1="1348.1" y1="1436.3" x2="1254.3" y2="1799.4" href="#P"><stop stop-color="#40447e"/><stop offset="1" stop-color="#3c3b6b"/></linearGradient><linearGradient id="g34" x1="994.5" y1="2080" x2="862.4" y2="1501.1" href="#P"><stop stop-color="#40447e"/><stop offset="1" stop-color="#3c3b6b"/></linearGradient><linearGradient id="g35" x1="532.7" y1="1983.4" x2="391.8" y2="1471.4" href="#P"><stop offset="0" stop-color="#e38ddd"/><stop offset="1" stop-color="#9571f6"/></linearGradient><linearGradient id="g36" x1="850.4" y1="1534.5" x2="894" y2="1270.3" href="#P"><stop stop-color="#ffc444"/><stop offset="1" stop-color="#f36f56"/></linearGradient><linearGradient id="g37" x1="993.9" y1="1337.2" x2="949.3" y2="1657.1" href="#P"><stop stop-color="#ffc444"/><stop offset="1" stop-color="#f36f56"/></linearGradient><linearGradient id="g38" x1="1180.6" y1="2014.1" x2="732.3" y2="2037.9" href="#P"><stop stop-color="#aa80f9"/><stop offset="1" stop-color="#6165d7"/></linearGradient><linearGradient id="g39" x1="580.9" y1="1782.9" x2="432.6" y2="1243.8" href="#P"><stop offset="0" stop-color="#e38ddd"/><stop offset="1" stop-color="#9571f6"/></linearGradient><linearGradient id="g40" x1="1441.2" y1="1344.3" x2="1740.1" y2="1806.9" href="#P"><stop stop-color="#311944"/><stop offset="1" stop-color="#6b3976"/></linearGradient><linearGradient id="g41" x1="1401.1" y1="1563.4" x2="1250.8" y2="1857.5" href="#P"><stop stop-color="#311944"/><stop offset="1" stop-color="#6b3976"/></linearGradient><linearGradient id="g42" x1="1026" y1="1762.6" x2="902.5" y2="1892" href="#P"><stop stop-color="#ffc444"/><stop offset="1" stop-color="#f36f56"/></linearGradient><linearGradient id="g43" x1="1799" y1="1849.7" x2="1947.9" y2="2631.4" href="#P"><stop stop-color="#ffc444"/><stop offset="1" stop-color="#f36f56"/></linearGradient><linearGradient id="g44" x1="1440.9" y1="1842.8" x2="1886.2" y2="1842.8" href="#P"><stop stop-color="#ffc444"/><stop offset="1" stop-color="#f36f56"/></linearGradient><linearGradient id="g45" x1="2181.9" y1="1832.2" x2="2244.5" y2="1832.2" href="#P"><stop stop-color="#ffc444"/><stop offset="1" stop-color="#f36f56"/></linearGradient><linearGradient id="g46" x1="2184.4" y1="1842.8" x2="2215" y2="1842.8" href="#P"><stop stop-color="#ff9085"/><stop offset="1" stop-color="#fb6fbb"/></linearGradient><linearGradient id="g47" x1="1800" y1="2243.1" x2="2034.3" y2="2243.1" href="#P"><stop stop-color="#ffc444"/><stop offset="1" stop-color="#f36f56"/></linearGradient><linearGradient id="g48" x1="2162.5" y1="2218" x2="2258.9" y2="2218" href="#P"><stop stop-color="#ffc444"/><stop offset="1" stop-color="#f36f56"/></linearGradient><linearGradient id="g49" x1="2345.5" y1="1937.5" x2="2321.1" y2="2758.9" href="#P"><stop stop-color="#ffc444"/><stop offset="1" stop-color="#f36f56"/></linearGradient><linearGradient id="g50" x1="2246.9" y1="1934.6" x2="2244.9" y2="1973.8" href="#P"><stop stop-color="#311944"/><stop offset="1" stop-color="#893976"/></linearGradient><linearGradient id="g51" x1="2332.6" y1="1836.9" x2="2321.1" y2="1916.8" href="#P"><stop stop-color="#311944"/><stop offset="1" stop-color="#893976"/></linearGradient><linearGradient id="g52" x1="2237.8" y1="1800.2" x2="2223.3" y2="1900.1" href="#P"><stop stop-color="#311944"/><stop offset="1" stop-color="#893976"/></linearGradient><linearGradient id="g53" x1="2218.5" y1="1953.3" x2="2247.8" y2="1953.3" href="#P"><stop stop-color="#311944"/><stop offset="1" stop-color="#893976"/></linearGradient><linearGradient id="g54" x1="2326.6" y1="1851.5" x2="2366.4" y2="1851.5" href="#P"><stop stop-color="#ff9085"/><stop offset="1" stop-color="#fb6fbb"/></linearGradient><linearGradient id="g55" x1="1680.7" y1="2199.1" x2="2379.1" y2="2199.1" href="#P"><stop stop-color="#ffc444"/><stop offset="1" stop-color="#f36f56"/></linearGradient></defs><style>.a{fill:url(#g1)}.b{fill:#fcfdfe}.c{fill:url(#g2)}.d{fill:url(#g3)}.e{fill:url(#g4)}.f{fill:url(#g5)}.g{fill:url(#g6)}.h{fill:url(#g7)}.i{fill:url(#g8)}.j{fill:url(#g9)}.k{fill:url(#g10)}.l{fill:url(#g11)}.m{fill:url(#g12)}.n{mix-blend-mode:soft-light;fill:#fff}.o{fill:url(#g13)}.p{fill:#eaedf3}.q{fill:url(#g14)}.r{fill:url(#g15)}.s{fill:url(#g16)}.t{fill:#d8dee8}.u{fill:url(#g17)}.v{fill:url(#g18)}.w{fill:url(#g19)}.x{opacity:.5;mix-blend-mode:soft-light;fill:#fff}.y{opacity:.3;mix-blend-mode:multiply;fill:url(#g20)}.z{fill:url(#g21)}.A{fill:url(#g22)}.B{fill:url(#g23)}.C{fill:url(#g24)}.D{fill:url(#g25)}.E{fill:url(#g26)}.F{fill:url(#g27)}.G{fill:url(#g28)}.H{fill:url(#g29)}.I{fill:url(#g30)}.J{fill:url(#g31)}.K{fill:url(#g32)}.L{opacity:.3;mix-blend-mode:multiply;fill:url(#g33)}.M{fill:url(#g34)}.N{fill:url(#g35)}.O{fill:url(#g36)}.P{fill:url(#g37)}.Q{opacity:.3;mix-blend-mode:multiply;fill:url(#g38)}.R{fill:url(#g39)}.S{fill:url(#g40)}.T{fill:url(#g41)}.U{fill:url(#g42)}.V{fill:url(#g43)}.W{opacity:.3;mix-blend-mode:multiply;fill:url(#g44)}.X{fill:url(#g45)}.Y{fill:url(#g46)}.Z{fill:url(#g47)}.a0{fill:url(#g48)}.a1{fill:url(#g49)}.a2{fill:url(#g50)}.a3{fill:url(#g51)}.a4{fill:url(#g52)}.a5{fill:url(#g53)}.a6{fill:url(#g54)}.a7{opacity:.3;mix-blend-mode:multiply;fill:url(#g55)}</style><path class="a" d="m1121.5 1823c15.1-6.6 42.2-34.2 46.2-44.3 27.2-67.3 86.2-189.9 60.5-262.2-4.3-12.3-63.8-7.7-75-16.9-38.7-6.3-52.5-6-86.3-30-99.8-70.9 16.8-292.1-194.9-296.6-155-3.2-260.8 80.6-309.6-144.5-48.7-225.1-340.3-576.3-528.6-354.8-108.1 127.1 82.1 275.3 53.4 433.7-27.2 150.4 60 242.5 222.6 280.9 162.6 38.4 105.6 120.7 101.2 257.5-5.2 164.2 233.5 123.8 342.1 95.8 87.4-22.6 325.3-21.2 368.4 81.4z"/><g style="mix-blend-mode:soft-light"><path class="b" d="m1197.9 1654.5l0.6-3.4c-531.5-91.8-950.9-489-1122-1062.5l-3.3 1c81 271.8 223.6 513 412.2 697.6 198.4 194 444.7 321.1 712.5 367.3z"/><path class="b" d="m401 1713.8c121.8-83.2 346.6-149.8 501.2-148.3v-3.5c-155.1-1.5-380.8 65.3-503.1 148.9z"/><path class="b" d="m1093.7 1635.3l1.6-3.2c-72.3-35-124.1-105.3-153.9-208.8-21.8-75.9-31.6-167.5-29-272.4l-3.5-0.1c-2.6 105.2 7.2 197.3 29.2 273.5 30.1 104.5 82.4 175.5 155.6 211z"/><path class="b" d="m459.7 1260l1.7-3.1c-132.8-73.1-291.5-57-401.1-30.5l0.8 3.4c109.1-26.3 266.8-42.4 398.6 30.2z"/><path class="b" d="m247 985.7l3.3-1.2c-59.4-160.2-7.1-331.6 29.4-419.6l-3.2-1.3c-36.7 88.4-89.3 260.8-29.5 422.1z"/></g><path class="c" d="m1108.7 1582.4c17.2-1.2 53.5-19.2 61-27.8 50.1-57.1 150.9-157.8 150.5-238.1-0.1-13.7-60.5-29.7-68.4-42.8-36-19.5-49.7-24-74.8-59.5-74.2-104.5 117.5-282.9-90.1-360.5-152.2-56.8-285.7-10.6-256.1-249.9 29.7-239.3-137.1-687.4-399.8-533.5-150.8 88.2-14.1 300.5-97.2 447.1-78.9 139.4-24.6 260.5 122.9 354.7 147.4 94.2 62.6 155.8 11 289.5-61.9 160.6 187.9 203.1 305 213 94.2 7.9 328.8 91.6 336 207.8z"/><g style="mix-blend-mode:soft-light"><path class="b" d="m1242.4 1442.3l1.8-3.2c-493.6-274.5-770.8-812.1-741.6-1438.1l-3.6-0.2c-13.9 296.7 43.6 584.4 166.3 832.1 128.9 260.4 328.5 471.1 577.1 609.4z"/><path class="b" d="m434.3 1225.4c149.2-40.2 394.4-28.2 546.7 26.7l1.2-3.5c-152.8-55.1-399.1-67.1-548.8-26.8z"/><path class="b" d="m1146.2 1387.3l2.6-2.6c-59.3-59.6-86.2-147-79.9-259.6 4.7-82.5 26.7-176.5 65.5-279.3l-3.4-1.3c-39 103.1-61.1 197.5-65.7 280.4-6.4 113.7 20.8 202 80.9 262.4z"/><path class="b" d="m649.2 797.1l2.7-2.5c-106-118.2-268.3-157.1-385.9-168.9l-0.3 3.7c116.9 11.7 278.3 50.3 383.5 167.7z"/><path class="b" d="m533.8 452.4h3.7c-3.3-178.9 107.7-330.3 174.2-404.6l-2.8-2.5c-66.8 74.8-178.4 227.1-175.1 407.1z"/></g><path class="d" d="m963.7 321.6l-470 811.7c-8.6 14.9 2.8 33.3 19.9 32.2l1292.8-18.2 340.8-727.1-971.8-147.8z"/><path class="e" d="m977.7 321.6l-469.9 811.7c-8.6 14.9 2.8 33.3 19.9 32.2l1292.8-18.2 340.8-727.1-971.9-147.8z"/><path class="f" d="m985 335.4l-445.8 812.6 1240.3 77.9 264.2-751.9z"/><path class="g" d="m2015.5 420.2l-865.2-104.5-165.3 19.7-323.5 751.5 1479.8 78.3z"/><path class="h" d="m2015.5 420.2l-865.2-104.5-119.3 14.2-247.2 803.1 1357.5 32.2z"/><path class="i" d="m2015.5 420.2l-865.2-104.5-71 8.5-136.5 789.9 1198.5 51.1z"/><path class="j" d="m1150.3 315.7l99.7 789.2 784.7 42.4-597.1-764.7z"/><path class="k" d="m1858.5 1105.2l-680.5-818.8 971.8 133.8 576.5 728.3c21.1 25.8 1 64.3-32.2 61.7l-744-58.6c-35.5-2.8-68.4-19.4-91.6-46.4z"/><path class="l" d="m1877 1105.2l-680.5-818.8 971.8 133.8 576.5 728.3c21.1 25.8 1 64.3-32.2 61.7l-744.1-58.6c-35.4-2.8-68.3-19.4-91.5-46.4z"/><path class="m" d="m2168.3 420.2l-990.3-133.8-211.7 35.2v-30.5c55.9-41.8 130-46.5 211.7-35.2l990.3 145.4z"/><path class="n" d="m1491.5 431.8l376.3 439.6 260.3 24.6-346.5-411.4z"/><path class="o" d="m1802.5 1980.2l747.2-21.1c82.8-3.8 148.7 60.2 148.7 142.6v0.9c0 82.4-56.5 145.1-139.3 152.6l-726 57.8z"/><path class="p" d="m539.1 2220.3l1273.6 76.9c75.6 4.6 137.3-49 137.3-119.7v-48c0-70.7-61.7-130.6-137.3-133.8l-1273.6-53.3z"/><path class="q" d="m527.4 2234.4l1275.1 78.3c98.6 6 179.7-64.2 179.7-156.6v-1c0-92.4-81.1-170.8-179.7-174.9l-1275.1-52.2c-8.1-0.3-14.6 6.1-14.6 14.2 0 8.2 6.5 15.1 14.6 15.5l1275.1 54.7c79.4 3.4 144.5 66.6 144.5 140.9v1c0 74.3-65.1 130.9-144.5 126.2l-1275.1-75.7c-8.1-0.5-14.6 5.8-14.6 13.9 0 8.2 6.5 15.2 14.6 15.7z"/><path class="r" d="m1773 1472.8l776.7 26.3c82.8 1.7 148.7 103.7 148.7 227.4v1.4c0 123.7-65.9 227.4-148.7 231.2l-725.9 20.2z"/><path class="p" d="m539.1 1906.3l1205.6 47.5c112.8 4.5 205.3-78 205.3-184.1v-72.1c0-106.1-92.5-193.3-205.3-194.6l-1205.6-14z"/><path class="s" d="m527.4 1928l1275.1 52.2c98.6 4.1 179.7-105.5 179.7-244.2v-1.5c0-138.7-81.1-252.4-179.7-253.4l-1275.1-13.1c-8.1-0.1-14.6 9.8-14.6 22.1 0 12.3 6.5 22.3 14.6 22.4l1275.1 16.8c79.4 1.1 144.5 92.7 144.5 204.3v1.5c0 111.6-65.1 199.9-144.5 196.9l-1275.1-48.4c-8.1-0.3-14.6 9.4-14.6 21.6 0 12.3 6.5 22.5 14.6 22.8z"/><path class="t" d="m1867.3 1468.9l691.1 15.6c63.5 1.4 114.1-48.9 114.1-112.3v-43.1c0-63.4-50.6-118-114.1-121.9l-691.1-43.2z"/><path class="u" d="m1964.6 1482.7l585.1 16.4c82.8 1.7 148.7-64 148.7-146.4v-0.9c0-82.4-65.9-153.7-148.7-159.1l-585.1-45.7c-10.3-0.7-129.3 7-129.3 16 0 9.1 111.2 15.9 121.4 16.5l593 42.9c66.9 4 120.4 61.5 120.4 128.2v0.9c0 66.7-53.5 119.6-120.4 118l-585.1-19.2c-10.2-0.3-129.3 8.9-129.3 17.9 0 9 119 14.3 129.3 14.5z"/><path class="p" d="m539.1 1453.3l1410.9 13.1v-304.1l-1410.9 13.1z"/><path class="v" d="m527.4 1191.3l1437.2-11.9c9.7 0 17.6-7.4 17.6-16.4 0-8.9-7.9-16.1-17.6-16l-1437.2 14.7c-8.1 0-14.6 6.7-14.6 14.9 0 8.2 6.5 14.7 14.6 14.7z"/><path class="w" d="m527.4 1468l1437.2 14.7c9.7 0.1 17.6-7.1 17.6-16 0-9-7.9-16.4-17.6-16.4l-1437.2-11.9c-8.1-0.1-14.6 6.5-14.6 14.7 0 8.2 6.5 14.8 14.6 14.9z"/><path class="x" d="m2018.3 1910.8l154.3-8.8c37.3-106.3 34.5-208.8 0-333.6l-154.3 0.5c31 127.3 26.3 239.9 0 341.9z"/><path class="y" d="m2338.2 1496.7l4.9-192.5 177.1 195c0 0 95.7 51.6 79.3 142.2l-109.5-43.6-97.3 33.7c0 0-2.4-95.1-54.5-134.8z"/><path class="z" d="m2540.1 1316.3l-197-12.1c0 0 92.7 70.4 49.6 327.3 0 0 84.3-26.7 120.9-72.5l85.9 82.4c0 0 52.4-228.4-59.4-325.1z"/><path class="A" d="m734.3 1347c0 0-184-282.9-385.6 225.5-156.9 395.9-19.3 819.7 397.5 915.8 416.9 96.2 1045.5-176.2 835.3-333.4-445.9-333.4-786.8-631.9-847.2-807.9z"/><g style="opacity:.3;mix-blend-mode:multiply"><path class="B" d="m552.6 1620.4c-9.3 36.2-23.3 136.9-12.1 252.4 10 103.1 3.5 157.6 171.9 224 57.7 22.7 101 102.4 189.8 146.4 40.3 20 191.8 91.9 380.3 49.6 124.8-28.1 215.2-94.8 275.3-155.7-434.2-326.2-764.2-617.2-823.5-790.1 0 0-67.2-103.3-164.9-72.8 25.4 25.5 54 64.8 64.7 119 15.2 76.7-50.9 108.4-81.5 227.2z"/></g><g style="opacity:.1;mix-blend-mode:multiply"><path class="C" d="m1397.1 2336c-188.5 117.6-509.3 200.2-760.4 33.6-232.6-154.2-267.3-431.4-279.3-516-20.9-147.7 1.3-278.5 37.5-384.9-15.2 30.2-30.6 64.7-46.2 103.8-156.9 395.9-19.3 819.7 397.5 915.8 410.3 94.7 1025.8-167.7 844.5-325.9-46 57.9-109 120.8-193.6 173.6z"/></g><path class="D" d="m1035 1462.6c14.7-10.7-0.7-38.8-4.9-100.8-5-75.9 14.4-91.2-3.4-120.1-21.7-35.4-72.4-47.9-105.5-46.8-7.3 0.2-9.3-3.7-69.5 15.4-108.5 34.3-137.7 5.3-185.4 38.4-46 32-23.5 63.2-67.9 100.2-71.9 60.1-154 3.7-205 53.4-48.3 47-43.5 160.1 13.1 218.9 64.1 66.7 171.9 39.9 244.2 22.2 15.2-3.7 91.9-24.2 169.6-88.1 42.9-35.3 71.7-72.2 89.9-99.2 4.3-5.4 11.1-12 20.5-13.5 11.2-1.8 20.7 4.6 25.3 7.4 23.8 14.7 64.4 23.2 79 12.6z"/><path class="E" d="m971.2 1424.3c18.8-19 90.8 11.8 139.8 55.2 57.6 51 55.7 94.9 107 159.3 25.5 32 26.2 155.5-39.8 117.2-45.9-26.6-70.8-63.7-118.6-136.9-48-73.5-111.8-171.1-88.4-194.8z"/><path class="F" d="m1457.1 2455l-24.9-46.4c-3.5-6.6-8.8-12.1-15.2-15.9l-11.5-6.8c0 0-26.5 0.7-29.8 17.5 0.3 21.2 43.9 66.3 70.9 83.7 4.4 2.9 10.8 6.7 14.4 4.4 6.2-4 0.7-23.2-3.9-36.5z"/><path class="G" d="m1409.9 2359.7c-2.5 20.6 2.6 31 7.7 36.7 3.6 4 33.4 47.8 22.5 55.7-4.9 3.6-42-37.9-45.8-44.3-3.4-5.9-5.3-4.4-6.3-20.7-0.7-10.8-3.4-19.3-5.4-24.7q13.6-1.3 27.3-2.7z"/><path class="H" d="m1440.9 2196c0 0 26.4 28.2 24 60.8-2.3 32.6-48.2-12.4-55.1-28.1-6.9-15.7-15.1-38.1-15.1-38.1 0 0 29.4-20.6 46.2 5.4z"/><path class="I" d="m1429 2150.2c0 0-4.9 34.8 8.9 52.3 6.9 8.7 15.9 15.9 13.7 23.4-1.4 5.1-7.6 9-13.1 8.7-10.5-0.5-17.2-16.2-21.9-27.3-6.9-16.4-12.2-51.9-12.2-51.9z"/><path class="J" d="m1410.8 2180.3q11.2-4.8 22.4-9.6c10.5-27.7 22.6-73.1 14.9-127-19.9-138.7-152.7-205.7-167.5-212.9-34.1 19.5-68.4 46.3-68 77.7 0.5 39.4 55.2 57.3 108.6 112.2 32.1 32.9 67.1 82.6 89.6 159.6z"/><path class="K" d="m1412.9 2375.5c20-99.6 9.3-179.5-0.4-225.4-14.7-69.3-44.6-210.2-142.3-258.1-21.3-10.5-51.5-19.3-89.3-49.5-31.6-25.3-52.2-52.5-64.9-71.8-128.8-30.5-245.1-9.2-293.1 61.6-5.5 8.2-19.6 26-21.1 51.3-3.5 57.1 55.9 122.5 119.2 133.4 80.5 13.9 45.3-8.6 117.2 14.8 20.1 6.5 128.5-7.4 163.9 28.4 45.1 45.7 57.6 59 67.6 76.2 29.7 51.3 52.2 89.1 57.8 139.3 1.3 11.7 3 35.4 18.1 60.2 11.6 19.1 26.6 31.4 37.7 39q14.8 0.3 29.6 0.6z"/><path class="L" d="m801.8 1883.6c1.5-25.3 15.6-43.1 21.1-51.3 48-70.8 164.3-92.1 293.1-61.6 12.7 19.3 33.3 46.5 64.9 71.8 37.8 30.2 68 39 89.3 49.5 59.7 29.3 94 93.2 115.1 154.3-28.6-39.4-51.7-49.1-69.2-48.4-25 1.1-35 23-65 21.7-28.7-1.3-34.8-24.7-66.8-29-27.5-3.8-46.8 12.2-67.3 23.2-85.2 45.6-192.2-3.5-197-5.4-52.7-20.9-121.9-64.8-118.2-124.8z"/><path class="M" d="m1323.5 1933.2c-14.4 0-36.5 0.8-63.1 4.8-125.9 19.3-157.5 83.8-261.3 104.6-24.6 4.9-133.9 26.9-185.1-34.3-36.7-43.9-35.7-123 0.2-156 15.1-14 30.9-14.4 132.5-18.9 38.3-1.7 76.6-3.6 114.9-5.2 162-6.5 192.4-19.4 223.3 5.9 14.4 11.7 35.9 37.5 38.6 99.1z"/><path class="N" d="m954 1431.8c0 0-129.8-30.5-182.8 36.2-9.7 12.3-17 28.1-21.4 58.1-22.3 153 97.2 237.8 56.3 320.1-16.3 32.6-47.3 43.8-66.8 102-3.3 9.9-15.1 45.5-1.9 55.8 11.6 9.1 28.8-12.3 61.4-10.1 34.6 2.4 44 28.4 67 23.3 14.9-3.3 20.7-16.5 41.2-49.8 29.7-48.2 44.5-72.2 55.6-81 43.8-34.6 81.1 5.5 131.3-29.1 18.2-12.5 83-105.7 63.8-80.1-51.9-58.1-65.9-107.7-68.9-142.4-3.3-38.2 6.8-56.1-5.4-100.8 0 0-13.5-49.8-55-91-6-5.9-13-12-74.4-11.2z"/><path class="O" d="m908.5 1351c2.2 8 13.3 51-3.9 63.1-3.7 2.6-11 4.4-25.7 7.9-9.5 2.4-17.6 3.9-23.3 4.9 1.2 7.2 4.3 19 13.3 29.3 25.1 28.9 71.9 18.6 78.6 17 23.5-5.6 46.5-14.1 51.9-18.9 8.2-7.3 14.7-12.8 18.4-18.2-9.4-4-28.6-14.7-41.2-17.8-9.5-2.4-18.3-4-26.4-5q-2.6-12.5-5.2-25-18.3-18.6-36.5-37.3z"/><path class="P" d="m908.8 1372.7c0 0 4.9 31.6 36.2 35.6 27.9 3.6 45.2-64.4 30.1-81-5-5.5-17-10.4-27.1-9.6-7.1 0.6-30.6 11-32.7 35.3-5.1-4.8-11.1-6-13.9-3.7-3.6 2.9-1.2 10.6-0.7 12.3 1.9 6 6.1 9.6 8.1 11.1z"/><path class="Q" d="m1157.7 1777.2c-6.3-7-11.9-13.8-17.1-20.6-27.4-7.5-50.8-9.7-69.6-9.6-42.4 0.2-65 11.4-94.7-4.4-33.7-17.9-29.4-45.5-61.7-59.1-34-14.2-56.5 5.1-88.8 1-19.4-2.5-43.6-14.2-69.6-50.5 23.2 89.6 80 151.6 49.9 212.2-16.3 32.6-47.3 43.8-66.8 102-3.3 9.9-15.1 45.5-1.9 55.8 11.6 9.1 28.8-12.3 61.4-10.1 34.6 2.4 44 28.4 67 23.3 14.9-3.3 20.7-16.5 41.2-49.8 29.7-48.2 44.5-72.2 55.6-81 43.8-34.6 81.1 5.5 131.3-29.1 18.2-12.5 83-105.7 63.8-80.1z"/><path class="R" d="m930.8 1795.2q4.9-15.2 9.8-30.4c-42.3-9.2-100.7-23-160.9-41-9.4-2.8-20.6-6.3-24.7-15.9-11.5-26.7 51.1-58.4 72.9-119.3 20.1-56.3 3.4-132.1-23.9-139.7-56.7-15.9-241.2 240.5-165.1 340.5 43 56.4 166.5 59.2 291.9 5.8z"/><path class="S" d="m1094.7 1787.9c5.2-5.1 51.9-221.7 65.4-284.4 1.6-7.4 10.6-10.2 16.2-5.1l64.8 60.9-48.5 260.6-31.3 17.3c0 0-72.8-43.3-66.6-49.3z"/><path class="T" d="m970.4 1805.7l40.8-238.2c2.1-12.3 13.3-20.9 25.7-19.8l179 16.8-51.3 272.5-171.1-3.4c-14.6-0.3-25.6-13.5-23.1-27.9z"/><path class="U" d="m940.6 1764.8c25.3-15.3 57.4-2.8 59.4-1.9 5.9 2.4 14.5 6.8 23.4 15 1 1.2 13.2 16.3 9.4 21.6-3.1 4.2-16.1 1.5-32-7.3-6.6-0.5-16.2-0.8-27.7 0.8-21 3.1-30.3 10.3-38.3 4.9-5.9-3.9-8.2-12.7-6.6-19.4 1.8-7.3 8.1-11.2 12.4-13.7z"/><path class="n" d="m1037.8 1643.6l125.5 10.6 3.4-39.1-125.6-10.6z"/><path class="V" d="m1948.4 2103.3c-1.8-10.2-31.9-3.3-81.3-19.1-67.5-21.7-66.1-52.2-117.2-63.3-57.5-12.3-74.8 22.9-124.6 4.5-2.8-1-54.8-21-72.7-69.1-15.1-40.8 6.6-68.4-16-98.4-9.4-12.4-27.8-27.2-45.1-24.2-34.5 5.9-59.3 82-47.7 144.8 13 70.1 74 137.4 124 132.6 32.3-3.1 44.9-34.8 78-29.5 29.3 4.7 31.4 31.3 58.1 33.8 32.2 3.1 40.4-34.4 84.1-39 24.6-2.6 55.4 5.8 64.9 24.9 7.5 15.4-3.6 27.8 3.6 35.8 16.1 17.9 94.9-17 91.9-33.8z"/><path class="W" d="m1784.6 2060.8c-25.1 2.8-26.2 18.9-50.9 21.8-33.8 3.9-42.9-24.8-79.2-28.7-47.7-5.2-72.4 40.1-95.4 27.7-18.4-9.9-3.1-39.4-19.9-85.8-20.7-57.3-62.1-62.3-70.2-105.8-2.2-11.6-2.2-27.3 5.5-47.2-25 23-40.2 83.9-30.7 135.7 13 70.1 74 137.4 124 132.6 32.3-3.1 44.9-34.8 78-29.5 29.3 4.7 31.4 31.3 58.1 33.8 32.2 3.1 40.4-34.4 84.1-39 24.6-2.6 55.4 5.8 64.9 24.9 7.5 15.4-3.6 27.8 3.6 35.8 5.1 5.7 16.5 6.1 29.7 3.4-4.2-12.9-11.4-27.7-23.6-41.5-4.5-5.1-37.7-42.7-78-38.2z"/><path class="X" d="m2243.4 1892.3c5.7-17.5-12.1-35.9-16.6-40.4-12.7-13.2-34.3-24.3-42.3-17.7-4.1 3.4-2.3 9.5-0.9 26 3.7 42-2.8 58.8 6.1 63.3 4.4 2.2 10.5-0.8 22.7-6.8 16.9-8.3 27.6-13.6 31-24.4z"/><path class="Y" d="m2197.2 1851.8c-3.9-3.9-8-6.8-11.9-9-1.8 3.4-0.5 9.4 0.7 22.2 3.4 38.9-2.6 54.4 5.6 58.6 3.8 1.9 9.1-0.5 19.1-5.4 1.8-4.3 3.2-9.1 3.9-14.4 0.3-2.2 3.8-31-17.4-52z"/><path class="Z" d="m2034.3 2268c2.1 15.9-51.2 31.3-128.7 97.8-12.5 10.8-31.2 27.6-29.5 47.9 1.1 12.4 10 29.3 24.4 37.4 10.8 6.1 19.8 4.5 26.2 13.4 3.6 4.9 6.8 13.5 3.5 18.5-6.1 9.3-32.7 3.9-50.5-4.9-23.7-11.7-35.7-31.5-39.9-38.7-6.7-11.4-5.4-14-13.8-34-14.2-33.9-22.6-36.9-25.3-49.5-6.8-31.9 33.6-72.1 68.2-91.3 70.6-39.2 162.7-16.7 165.4 3.4z"/><path class="a0" d="m2164.9 2258.8c-11.4 30.5 22.4 47.1 17.3 101.7-1.3 13.9-4.7 25.9-6.8 56.7-2.3 32.6 0 39.5 4.1 44.5 15.1 19 56.6 15.6 62.3 2.9 2.8-6.2-2.7-15.4-5.6-20.3-6-10.1-12.6-13.1-16-17-14.5-16.5 20.1-58 32.5-109.6 6.3-25.7 13.7-81.7-10.4-95.9-21.1-12.5-66.3 7.3-77.4 37z"/><path class="a1" d="m2192.2 1914.7c-2.2 2.9-0.3 0.8-21.7 50.4-1.6 3.9-4.1 9.6-1.9 15.1 3.5 8.3 14.7 7.9 23.1 12.7 18.4 10.8 24.7 48.8 12.7 70.6-9.4 17-29.6 25.4-77.8 31-103.9 12.1-129.3-13.4-198.7-0.4-30.3 5.7-85.6 16-121 59.7-44 54.4-9.7 102-59.3 149.5-13.8 13.3-35.7 27.9-77 68.3-3.5 3.4-13.2 7.5-17.8 17.8-5.4 11.9-1.7 23.9 9.2 52 15.1 38.7 22.7 58.2 31.2 63.6 21 13.5 53.7 10.7 60.1-2.3 3.9-7.8-2.1-18.3-6.9-26.6-14.2-24.8-31.4-25-34.5-37.6-4.8-19.4 28.6-48.6 61.9-63.5 40.7-18.1 52.5-2.1 97.5-21.4 30.6-13.2 32.9-24 61.2-31.6 24.9-6.6 42.7-3.4 69.3-0.7 93.5 9.7 90.6-7.2 136.6 5 23.7 6.3 76.5 20.4 107.8 65.3 22.1 31.7 14.3 51.4 44.7 83.4 8.6 9 35.4 37.2 64.8 31.8 11.9-2.2 25.5-10.1 25.4-18-0.3-10.8-26.1-10.2-46.8-28-22.3-19.1-25.4-47.8-30.5-94-4.4-40.6-7.1-65 6.6-89.9 11.1-20.2 21.7-20.3 35.2-44.1 15.1-26.6 16.6-52.5 17.2-65 2-42.5-12.6-90.2-23.6-126.1-4-12.9-10.2-31.9-1.3-41.2 8.3-8.6 22.9-1.3 30.4-8.8 6.2-6 7.1-21.4-12.4-60.5 5.1-12.9 10.7-31 12.5-53.2 1.2-14.8 0.4-27.8-1-38.4-13.1 3.8-30.5 10.6-48.6 23-9.5 6.5-17.2 13.4-23.4 19.6-8.5-3.5-27.9-10-51-4.7-28.8 6.6-44.7 27.4-52.2 37.2z"/><path class="a2" d="m2195.7 1976.1c0 0 21.5 18.7 35.6-5.7 0 0 19.6 21.8 41.1 6.3 0 0-17.1 29.9-41.1 1.5 0 0-12.9 25.5-35.6-2.1z"/><path class="a3" d="m2259 1954.4c0 0 1.6-45.5 55.2-32.1 0 0-9 37.9-55.2 32.1z"/><path class="a4" d="m2222 1949.9c0 0 17.4-37.6-20.8-37.1 0 0-6.4 28.6 20.8 37.1z"/><path class="a5" d="m2231.1 1972.4c0 0-14.9-13-12.3-17.4 2.6-4.4 27.7 0.9 29 3.5 1.3 2.6-16.7 13.9-16.7 13.9z"/><path class="a6" d="m2326.8 1903.4c1.4 5.7 7 6.7 18 16.7 3.8 3.5 7 7 9.7 10.1 4.7-12 9.7-28.7 11.4-49.1 0.9-11 0.6-20.9-0.2-29.6-6.3 8.9-12.3 16-17.2 21.4-12.9 13.9-23.7 21.8-21.7 30.5z"/><path class="a7" d="m2330.8 2486.5c-12-7.5-14.3-15.7-35.6-58.1-47.6-94.8-57.1-95.9-57.2-120.5-0.2-50.9 40.4-75.8 26.9-97.1-7.7-12.1-26.1-12.4-70.3-11.3-90.3 2.3-135.4 3.4-149.1 7.8-70.9 23-59.2 61.2-133.5 90.2-61.6 24-77.7 0.9-137 29.5-11.3 5.5-89.1 43-90.1 95.4-0.8 37.2 37.6 65.3 30.3 73.6-4.1 4.8-19.3-1.2-34.5-9 4.6 9.6 8.5 15.4 12.5 18 21 13.5 53.7 10.7 60.1-2.3 3.9-7.8-2.1-18.3-6.9-26.6-14.2-24.8-31.4-25-34.5-37.6-4.8-19.4 28.6-48.6 61.9-63.5 40.7-18.1 52.5-2.1 97.5-21.4 30.6-13.2 32.9-24 61.2-31.6 24.9-6.6 42.7-3.4 69.3-0.7 93.5 9.7 90.6-7.2 136.6 5 23.7 6.3 76.5 20.4 107.8 65.3 22.1 31.7 14.3 51.4 44.7 83.4 8.6 9 35.4 37.2 64.8 31.8 9.1-1.7 19.2-6.7 23.4-12.5-17.1 2.5-34.1 1.2-48.3-7.8z"/></svg>