<svg version="1.2" xmlns="http://www.w3.org/2000/svg" viewBox="0 0 2189 1423" width="2189" height="1423"><defs><linearGradient id="P" gradientUnits="userSpaceOnUse"/><linearGradient id="g1" x1="1271.8" y1="-496.3" x2="1996.5" y2="1557.7" href="#P"><stop stop-color="#b37cff"/><stop offset="1" stop-color="#f895e7"/></linearGradient><linearGradient id="g2" x1="85.5" y1="53.7" x2="2030.9" y2="53.7" href="#P"><stop stop-color="#b37cff"/><stop offset="1" stop-color="#f895e7"/></linearGradient><linearGradient id="g3" x1="1088.5" y1="681" x2="1322.7" y2="156.3" href="#P"><stop stop-color="#b37cff"/><stop offset="1" stop-color="#f895e7"/></linearGradient><linearGradient id="g4" x1="2047.6" y1="398.5" x2="2487.8" y2="673.9" href="#P"><stop stop-color="#a737d5"/><stop offset="1" stop-color="#ef497a"/></linearGradient><linearGradient id="g5" x1="364.5" y1="-38.3" x2="951.2" y2="137.8" href="#P"><stop stop-color="#b37cff"/><stop offset="1" stop-color="#f895e7"/></linearGradient><linearGradient id="g6" x1="580.3" y1="888.5" x2="-19.4" y2="1183.6" href="#P"><stop stop-color="#b37cff"/><stop offset="1" stop-color="#f895e7"/></linearGradient><linearGradient id="g7" x1="650.4" y1="1127.3" x2="117.4" y2="1386.2" href="#P"><stop stop-color="#b37cff"/><stop offset="1" stop-color="#f895e7"/></linearGradient><linearGradient id="g8" x1="-44.5" y1="1089.9" x2="683.7" y2="996.4" href="#P"><stop stop-color="#a737d5"/><stop offset="1" stop-color="#ef497a"/></linearGradient><linearGradient id="g9" x1="-14.6" y1="1322" x2="713.6" y2="1228.5" href="#P"><stop stop-color="#a737d5"/><stop offset="1" stop-color="#ef497a"/></linearGradient><linearGradient id="g10" x1="524.1" y1="818.6" x2="103.7" y2="1083.3" href="#P"><stop stop-color="#b37cff"/><stop offset="1" stop-color="#f895e7"/></linearGradient><linearGradient id="g11" x1="541.1" y1="769.8" x2="-162.1" y2="1010.3" href="#P"><stop stop-color="#a737d5"/><stop offset="1" stop-color="#ef497a"/></linearGradient><linearGradient id="g12" x1="579.9" y1="882.6" x2="-123.2" y2="1123.1" href="#P"><stop stop-color="#a737d5"/><stop offset="1" stop-color="#ef497a"/></linearGradient><linearGradient id="g13" x1="337" y1="1035.2" x2="766.1" y2="757" href="#P"><stop stop-color="#53d8ff"/><stop offset="1" stop-color="#3840f7"/></linearGradient><linearGradient id="g14" x1="161.6" y1="900.6" x2="804.5" y2="1006.8" href="#P"><stop stop-color="#53d8ff"/><stop offset="1" stop-color="#3840f7"/></linearGradient><linearGradient id="g15" x1="415.1" y1="1412.3" x2="423.2" y2="1085" href="#P"><stop stop-color="#53d8ff"/><stop offset="1" stop-color="#3840f7"/></linearGradient><linearGradient id="g16" x1="461.5" y1="883.5" x2="466.5" y2="681.9" href="#P"><stop stop-color="#53d8ff"/><stop offset="1" stop-color="#3840f7"/></linearGradient><linearGradient id="g17" x1="-284.8" y1="984.3" x2="369.2" y2="831.3" href="#P"><stop stop-color="#53d8ff"/><stop offset="1" stop-color="#3840f7"/></linearGradient><linearGradient id="g18" x1="1351" y1="311.3" x2="1183.8" y2="629.9" href="#P"><stop stop-color="#fdf53f"/><stop offset="1" stop-color="#d93c65"/></linearGradient><linearGradient id="g19" x1="1026.5" y1="146.2" x2="940.1" y2="380.8" href="#P"><stop stop-color="#fdf53f"/><stop offset="1" stop-color="#d93c65"/></linearGradient><linearGradient id="g20" x1="955.5" y1="222.8" x2="1040.5" y2="222.8" href="#P"><stop stop-color="#a737d5"/><stop offset="1" stop-color="#ef497a"/></linearGradient><linearGradient id="g21" x1="1547" y1="400.7" x2="1493.3" y2="493.3" href="#P"><stop stop-color="#fdf53f"/><stop offset="1" stop-color="#d93c65"/></linearGradient><linearGradient id="g22" x1="1163.3" y1="177.7" x2="1063.8" y2="356.8" href="#P"><stop stop-color="#fdf53f"/><stop offset="1" stop-color="#d93c65"/></linearGradient><linearGradient id="g23" x1="1160.2" y1="165.6" x2="1056.3" y2="352.6" href="#P"><stop stop-color="#fdf53f"/><stop offset="1" stop-color="#d93c65"/></linearGradient><linearGradient id="g24" x1="1484.9" y1="176.1" x2="1428.1" y2="281" href="#P"><stop stop-color="#fdf53f"/><stop offset="1" stop-color="#d93c65"/></linearGradient><linearGradient id="g25" x1="1840.3" y1="222.2" x2="1637.3" y2="711.8" href="#P"><stop stop-color="#53d8ff"/><stop offset="1" stop-color="#3840f7"/></linearGradient><linearGradient id="g26" x1="1241.4" y1="333.1" x2="1187.4" y2="436.6" href="#P"><stop stop-color="#fdf53f"/><stop offset="1" stop-color="#d93c65"/></linearGradient><linearGradient id="g27" x1="917.7" y1="165.7" x2="879.7" y2="448" href="#P"><stop stop-color="#fdf53f"/><stop offset="1" stop-color="#d93c65"/></linearGradient><linearGradient id="g28" x1="1940" y1="391.8" x2="1763.7" y2="748.8" href="#P"><stop stop-color="#cb236d"/><stop offset="1" stop-color="#4c246d"/></linearGradient><linearGradient id="g29" x1="1594" y1="137.2" x2="1429.6" y2="389.7" href="#P"><stop stop-color="#a737d5"/><stop offset="1" stop-color="#ef497a"/></linearGradient><linearGradient id="g30" x1="1594.5" y1="124.4" x2="1423" y2="387.7" href="#P"><stop stop-color="#a737d5"/><stop offset="1" stop-color="#ef497a"/></linearGradient><linearGradient id="g31" x1="1536.7" y1="243.5" x2="1250.8" y2="868.4" href="#P"><stop stop-color="#cb236d"/><stop offset="1" stop-color="#4c246d"/></linearGradient><linearGradient id="g32" x1="1765.7" y1="250.9" x2="1495.7" y2="691.7" href="#P"><stop stop-color="#fdf53f"/><stop offset="1" stop-color="#d93c65"/></linearGradient><linearGradient id="g33" x1="1280.5" y1="1114.7" x2="1440.4" y2="810" href="#P"><stop stop-color="#a737d5"/><stop offset="1" stop-color="#ef497a"/></linearGradient><linearGradient id="g34" x1="2037.6" y1="1038" x2="1882.9" y2="1352.1" href="#P"><stop stop-color="#fdf53f"/><stop offset="1" stop-color="#d93c65"/></linearGradient><linearGradient id="g35" x1="1772.2" y1="1008.4" x2="1680.9" y2="1183.2" href="#P"><stop stop-color="#fdf53f"/><stop offset="1" stop-color="#d93c65"/></linearGradient><linearGradient id="g36" x1="1093.2" y1="1034.9" x2="1144.5" y2="946.3" href="#P"><stop stop-color="#fdf53f"/><stop offset="1" stop-color="#d93c65"/></linearGradient><linearGradient id="g37" x1="1441.6" y1="1111.9" x2="1537.8" y2="936.1" href="#P"><stop stop-color="#fdf53f"/><stop offset="1" stop-color="#d93c65"/></linearGradient><linearGradient id="g38" x1="1444.8" y1="1203.2" x2="1545.2" y2="1019.6" href="#P"><stop stop-color="#fdf53f"/><stop offset="1" stop-color="#d93c65"/></linearGradient><linearGradient id="g39" x1="1152.5" y1="1010.2" x2="1206.9" y2="909.8" href="#P"><stop stop-color="#fdf53f"/><stop offset="1" stop-color="#d93c65"/></linearGradient><linearGradient id="g40" x1="843" y1="1109.6" x2="894.6" y2="1010.6" href="#P"><stop stop-color="#fdf53f"/><stop offset="1" stop-color="#d93c65"/></linearGradient><linearGradient id="g41" x1="1363.9" y1="1073.5" x2="1280.4" y2="1226.1" href="#P"><stop stop-color="#fdf53f"/><stop offset="1" stop-color="#d93c65"/></linearGradient><linearGradient id="g42" x1="1385.4" y1="1109.6" x2="1437" y2="1010.6" href="#P"><stop stop-color="#fdf53f"/><stop offset="1" stop-color="#d93c65"/></linearGradient><linearGradient id="g43" x1="1897.1" y1="1091.6" x2="1821.5" y2="1228.2" href="#P"><stop stop-color="#fdf53f"/><stop offset="1" stop-color="#d93c65"/></linearGradient><linearGradient id="g44" x1="717.3" y1="1043.4" x2="885.9" y2="702.1" href="#P"><stop stop-color="#cb236d"/><stop offset="1" stop-color="#4c246d"/></linearGradient><linearGradient id="g45" x1="1226.7" y1="777.1" x2="1291.1" y2="625.3" href="#P"><stop stop-color="#cb236d"/><stop offset="1" stop-color="#4c246d"/></linearGradient><linearGradient id="g46" x1="1234.1" y1="854.2" x2="1301.3" y2="695.7" href="#P"><stop stop-color="#cb236d"/><stop offset="1" stop-color="#4c246d"/></linearGradient><linearGradient id="g47" x1="1787.6" y1="996.7" x2="1584.2" y2="1358.2" href="#P"><stop stop-color="#b37cff"/><stop offset="1" stop-color="#f895e7"/></linearGradient><linearGradient id="g48" x1="884" y1="1179.2" x2="1142.2" y2="757.7" href="#P"><stop stop-color="#53d8ff"/><stop offset="1" stop-color="#3840f7"/></linearGradient><linearGradient id="g49" x1="577.6" y1="1111.7" x2="737.5" y2="807" href="#P"><stop stop-color="#53d8ff"/><stop offset="1" stop-color="#3840f7"/></linearGradient><linearGradient id="g50" x1="955.8" y1="1212.1" x2="874.6" y2="1212.1" href="#P"><stop stop-color="#a737d5"/><stop offset="1" stop-color="#ef497a"/></linearGradient><linearGradient id="g51" x1="390.3" y1="1031.9" x2="441.6" y2="943.4" href="#P"><stop stop-color="#fdf53f"/><stop offset="1" stop-color="#d93c65"/></linearGradient><linearGradient id="g52" x1="909.3" y1="925.1" x2="814.4" y2="1121.5" href="#P"><stop stop-color="#fdf53f"/><stop offset="1" stop-color="#d93c65"/></linearGradient><linearGradient id="g53" x1="903.8" y1="910.6" x2="803.6" y2="1118" href="#P"><stop stop-color="#fdf53f"/><stop offset="1" stop-color="#d93c65"/></linearGradient><linearGradient id="g54" x1="682.5" y1="1106.6" x2="734.1" y2="1007.7" href="#P"><stop stop-color="#fdf53f"/><stop offset="1" stop-color="#d93c65"/></linearGradient><linearGradient id="g55" x1="1196.9" y1="1056.2" x2="1120.5" y2="1226.6" href="#P"><stop stop-color="#fdf53f"/><stop offset="1" stop-color="#d93c65"/></linearGradient><linearGradient id="g56" x1="2273.9" y1="824.9" x2="1959.9" y2="1089.2" href="#P"><stop stop-color="#53d8ff"/><stop offset="1" stop-color="#3840f7"/></linearGradient><linearGradient id="g57" x1="1769.9" y1="737.7" x2="1660.1" y2="930.3" href="#P"><stop stop-color="#a737d5"/><stop offset="1" stop-color="#ef497a"/></linearGradient><linearGradient id="g58" x1="2021.5" y1="659.1" x2="1751.5" y2="1099.9" href="#P"><stop stop-color="#53d8ff"/><stop offset="1" stop-color="#3840f7"/></linearGradient><linearGradient id="g59" x1="1003.1" y1="674.3" x2="1040.6" y2="513.9" href="#P"><stop stop-color="#fdf53f"/><stop offset="1" stop-color="#d93c65"/></linearGradient><linearGradient id="g60" x1="1594.7" y1="708.5" x2="1433.2" y2="1049.2" href="#P"><stop stop-color="#53d8ff"/><stop offset="1" stop-color="#3840f7"/></linearGradient><linearGradient id="g61" x1="878.9" y1="910.7" x2="1035.1" y2="534" href="#P"><stop stop-color="#53d8ff"/><stop offset="1" stop-color="#3840f7"/></linearGradient><linearGradient id="g62" x1="1750.7" y1="704.9" x2="1651.5" y2="1076.9" href="#P"><stop stop-color="#a737d5"/><stop offset="1" stop-color="#ef497a"/></linearGradient><linearGradient id="g63" x1="488.1" y1="595.4" x2="907.1" y2="422.5" href="#P"><stop stop-color="#fdf53f"/><stop offset="1" stop-color="#d93c65"/></linearGradient><linearGradient id="g64" x1="1471.7" y1="704.3" x2="1289.5" y2="1125.6" href="#P"><stop stop-color="#cb236d"/><stop offset="1" stop-color="#4c246d"/></linearGradient><linearGradient id="g65" x1="964" y1="653.2" x2="927.4" y2="791.7" href="#P"><stop stop-color="#cb236d"/><stop offset="1" stop-color="#4c246d"/></linearGradient><linearGradient id="g66" x1="968.1" y1="652.1" x2="931.8" y2="789.5" href="#P"><stop stop-color="#cb236d"/><stop offset="1" stop-color="#4c246d"/></linearGradient><linearGradient id="g67" x1="1766.4" y1="674.1" x2="1692.9" y2="902.3" href="#P"><stop stop-color="#fdf53f"/><stop offset="1" stop-color="#d93c65"/></linearGradient><linearGradient id="g68" x1="1358.4" y1="520.6" x2="1296.6" y2="666.8" href="#P"><stop stop-color="#fdf53f"/><stop offset="1" stop-color="#d93c65"/></linearGradient><linearGradient id="g69" x1="803.2" y1="819.9" x2="891.5" y2="481.9" href="#P"><stop stop-color="#53d8ff"/><stop offset="1" stop-color="#3840f7"/></linearGradient><linearGradient id="g70" x1="724.7" y1="871" x2="1945.2" y2="871" href="#P"><stop stop-color="#cb236d"/><stop offset="1" stop-color="#4c246d"/></linearGradient><linearGradient id="g71" x1="715.1" y1="1212.2" x2="1935.6" y2="1212.2" href="#P"><stop stop-color="#cb236d"/><stop offset="1" stop-color="#4c246d"/></linearGradient><linearGradient id="g72" x1="736.4" y1="458.6" x2="1922.7" y2="458.6" href="#P"><stop stop-color="#cb236d"/><stop offset="1" stop-color="#4c246d"/></linearGradient><linearGradient id="g73" x1="8908" y1="4589.1" x2="8163.3" y2="5894.9" href="#P"><stop stop-color="#cb236d"/><stop offset="1" stop-color="#4c246d"/></linearGradient><linearGradient id="g74" x1="10148.7" y1="4592" x2="9404" y2="5897.7" href="#P"><stop stop-color="#cb236d"/><stop offset="1" stop-color="#4c246d"/></linearGradient><linearGradient id="g75" x1="1443.2" y1="1409.8" x2="1393.2" y2="1409.8" href="#P"><stop stop-color="#53d8ff"/><stop offset="1" stop-color="#3840f7"/></linearGradient><linearGradient id="g76" x1="1443.2" y1="1407.5" x2="1394.6" y2="1407.5" href="#P"><stop stop-color="#2b3582"/><stop offset="1" stop-color="#150e42"/></linearGradient><linearGradient id="g77" x1="1438.6" y1="1392.4" x2="1424.5" y2="1392.4" href="#P"><stop stop-color="#f9b776"/><stop offset="1" stop-color="#f47960"/></linearGradient><linearGradient id="g78" x1="1543" y1="1409.8" x2="1523.9" y2="1409.8" href="#P"><stop stop-color="#53d8ff"/><stop offset="1" stop-color="#3840f7"/></linearGradient><linearGradient id="g79" x1="1542.9" y1="1407.8" x2="1514.8" y2="1407.8" href="#P"><stop stop-color="#2b3582"/><stop offset="1" stop-color="#150e42"/></linearGradient><linearGradient id="g80" x1="1528.3" y1="1382" x2="1511.4" y2="1382" href="#P"><stop stop-color="#f9b776"/><stop offset="1" stop-color="#f47960"/></linearGradient><linearGradient id="g81" x1="1741.3" y1="1256.7" x2="1494.7" y2="1535.6" href="#P"><stop stop-color="#2b3582"/><stop offset="1" stop-color="#150e42"/></linearGradient><linearGradient id="g82" x1="1477.1" y1="954.3" x2="1615.8" y2="1131.7" href="#P"><stop stop-color="#cb236d"/><stop offset="1" stop-color="#4c246d"/></linearGradient><linearGradient id="g83" x1="1484" y1="1130.5" x2="1475.6" y2="1147.4" href="#P"><stop stop-color="#53d8ff"/><stop offset="1" stop-color="#3840f7"/></linearGradient><linearGradient id="g84" x1="1410.2" y1="1130.3" x2="1501" y2="1049.9" href="#P"><stop stop-color="#f9b776"/><stop offset="1" stop-color="#f47960"/></linearGradient><linearGradient id="g85" x1="1482.2" y1="971.1" x2="1586.9" y2="1104.9" href="#P"><stop stop-color="#cb236d"/><stop offset="1" stop-color="#4c246d"/></linearGradient><linearGradient id="g86" x1="1406.8" y1="1026.5" x2="1565.1" y2="1229" href="#P"><stop stop-color="#cb236d"/><stop offset="1" stop-color="#4c246d"/></linearGradient><linearGradient id="g87" x1="1338.6" y1="1146.6" x2="1291.4" y2="1146.6" href="#P"><stop stop-color="#f9b776"/><stop offset="1" stop-color="#f47960"/></linearGradient><linearGradient id="g88" x1="1354.4" y1="1052.2" x2="1354.9" y2="963.6" href="#P"><stop stop-color="#f9b776"/><stop offset="1" stop-color="#f47960"/></linearGradient><linearGradient id="g89" x1="1515.8" y1="1225.4" x2="1268.4" y2="1225.4" href="#P"><stop stop-color="#2b3582"/><stop offset="1" stop-color="#150e42"/></linearGradient><linearGradient id="g90" x1="1294.9" y1="1180.5" x2="1042.2" y2="1180.5" href="#P"><stop stop-color="#2b3582"/><stop offset="1" stop-color="#150e42"/></linearGradient><linearGradient id="g91" x1="1318.1" y1="991.1" x2="1379.5" y2="930.4" href="#P"><stop stop-color="#f9b776"/><stop offset="1" stop-color="#f47960"/></linearGradient><linearGradient id="g92" x1="1387.5" y1="1049" x2="1328.6" y2="1040.5" href="#P"><stop stop-color="#2b3582"/><stop offset="1" stop-color="#150e42"/></linearGradient><linearGradient id="g93" x1="1440.2" y1="976.8" x2="1390.1" y2="1015.2" href="#P"><stop stop-color="#f9b776"/><stop offset="1" stop-color="#f47960"/></linearGradient><linearGradient id="g94" x1="1419.7" y1="1191.3" x2="1491.9" y2="1127.4" href="#P"><stop stop-color="#f9b776"/><stop offset="1" stop-color="#f47960"/></linearGradient><linearGradient id="g95" x1="1296.4" y1="1134.4" x2="1279.5" y2="1134.4" href="#P"><stop stop-color="#f9b776"/><stop offset="1" stop-color="#f47960"/></linearGradient><linearGradient id="g96" x1="1732.7" y1="-191.5" x2="2055.1" y2="218.3" href="#P"><stop stop-color="#53d8ff"/><stop offset="1" stop-color="#3840f7"/></linearGradient><linearGradient id="g97" x1="1912" y1="-83.8" x2="2349.9" y2="594.7" href="#P"><stop stop-color="#53d8ff"/><stop offset="1" stop-color="#3840f7"/></linearGradient><linearGradient id="g98" x1="1921.8" y1="146.8" x2="1321.8" y2="1032.3" href="#P"><stop stop-color="#53d8ff"/><stop offset="1" stop-color="#3840f7"/></linearGradient><linearGradient id="g99" x1="1576.2" y1="336.6" x2="1753.1" y2="336.6" href="#P"><stop stop-color="#53d8ff"/><stop offset="1" stop-color="#3840f7"/></linearGradient><linearGradient id="g100" x1="1580.7" y1="381.3" x2="1753.4" y2="381.3" href="#P"><stop stop-color="#53d8ff"/><stop offset="1" stop-color="#3840f7"/></linearGradient><linearGradient id="g101" x1="1583.3" y1="416.6" x2="1760.3" y2="416.6" href="#P"><stop stop-color="#53d8ff"/><stop offset="1" stop-color="#3840f7"/></linearGradient><linearGradient id="g102" x1="2213.9" y1="476.5" x2="1998.8" y2="516.7" href="#P"><stop stop-color="#53d8ff"/><stop offset="1" stop-color="#3840f7"/></linearGradient><linearGradient id="g103" x1="1540" y1="14.8" x2="2373.3" y2="-612.6" href="#P"><stop stop-color="#53d8ff"/><stop offset="1" stop-color="#3840f7"/></linearGradient><linearGradient id="g104" x1="2204.4" y1="202.7" x2="1900.9" y2="739.8" href="#P"><stop stop-color="#53d8ff"/><stop offset="1" stop-color="#3840f7"/></linearGradient><linearGradient id="g105" x1="1815.2" y1="386.6" x2="2001" y2="386.6" href="#P"><stop stop-color="#53d8ff"/><stop offset="1" stop-color="#3840f7"/></linearGradient><linearGradient id="g106" x1="1815.1" y1="420.4" x2="2001.1" y2="420.4" href="#P"><stop stop-color="#53d8ff"/><stop offset="1" stop-color="#3840f7"/></linearGradient><linearGradient id="g107" x1="1709.6" y1="1182.6" x2="1629.2" y2="1182.6" href="#P"><stop stop-color="#9cfffb"/><stop offset="1" stop-color="#9bfffa"/></linearGradient><linearGradient id="g108" x1="1878.6" y1="1182.6" x2="1785.5" y2="1182.6" href="#P"><stop stop-color="#9cfffb"/><stop offset="1" stop-color="#9bfffa"/></linearGradient><linearGradient id="g109" x1="1814.4" y1="895.3" x2="1683.5" y2="895.3" href="#P"><stop stop-color="#9cfffb"/><stop offset="1" stop-color="#9bfffa"/></linearGradient><linearGradient id="g110" x1="1812" y1="895.3" x2="1685.9" y2="895.3" href="#P"><stop stop-color="#9cfffb"/><stop offset="1" stop-color="#9bfffa"/></linearGradient><linearGradient id="g111" x1="1814.4" y1="963.5" x2="1683.5" y2="963.5" href="#P"><stop stop-color="#9cfffb"/><stop offset="1" stop-color="#9bfffa"/></linearGradient><linearGradient id="g112" x1="1829.2" y1="963.5" x2="1672.5" y2="963.5" href="#P"><stop stop-color="#9cfffb"/><stop offset="1" stop-color="#9bfffa"/></linearGradient><linearGradient id="g113" x1="1814.4" y1="1031.6" x2="1683.5" y2="1031.6" href="#P"><stop stop-color="#9cfffb"/><stop offset="1" stop-color="#9bfffa"/></linearGradient><linearGradient id="g114" x1="1844.2" y1="1031.6" x2="1658.4" y2="1031.6" href="#P"><stop stop-color="#9cfffb"/><stop offset="1" stop-color="#9bfffa"/></linearGradient><linearGradient id="g115" x1="1858.4" y1="1099.8" x2="1683.5" y2="1099.8" href="#P"><stop stop-color="#9cfffb"/><stop offset="1" stop-color="#9bfffa"/></linearGradient><linearGradient id="g116" x1="1858.4" y1="1099.8" x2="1647" y2="1099.8" href="#P"><stop stop-color="#9cfffb"/><stop offset="1" stop-color="#9bfffa"/></linearGradient><linearGradient id="g117" x1="1671.8" y1="1219.1" x2="1965.5" y2="1028.7" href="#P"><stop stop-color="#b37cff"/><stop offset="1" stop-color="#f895e7"/></linearGradient><linearGradient id="g118" x1="1875" y1="1133.6" x2="1601.1" y2="1412.1" href="#P"><stop stop-color="#cb236d"/><stop offset="1" stop-color="#4c246d"/></linearGradient><linearGradient id="g119" x1="1754.6" y1="1210.7" x2="1743.8" y2="1389.4" href="#P"><stop stop-color="#53d8ff"/><stop offset=".8" stop-color="#3840f7"/></linearGradient><linearGradient id="g120" x1="1974.2" y1="1150.9" x2="1956" y2="1343.7" href="#P"><stop stop-color="#53d8ff"/><stop offset="1" stop-color="#3840f7"/></linearGradient><linearGradient id="g121" x1="2020.7" y1="1155.4" x2="2002.5" y2="1348" href="#P"><stop stop-color="#53d8ff"/><stop offset="1" stop-color="#3840f7"/></linearGradient><linearGradient id="g122" x1="545.9" y1="999.8" x2="816.9" y2="1318.7" href="#P"><stop stop-color="#fdf53f"/><stop offset="1" stop-color="#d93c65"/></linearGradient><linearGradient id="g123" x1="528" y1="1133.4" x2="463.4" y2="977.3" href="#P"><stop stop-color="#f9b776"/><stop offset="1" stop-color="#f47960"/></linearGradient><linearGradient id="g124" x1="481" y1="1005.9" x2="544" y2="1158.1" href="#P"><stop stop-color="#f9b776"/><stop offset="1" stop-color="#f47960"/></linearGradient><linearGradient id="g125" x1="512.1" y1="976.4" x2="512.9" y2="1043.6" href="#P"><stop stop-color="#f9b776"/><stop offset="1" stop-color="#f47960"/></linearGradient><linearGradient id="g126" x1="509.3" y1="938.1" x2="545.8" y2="994.7" href="#P"><stop stop-color="#2b3582"/><stop offset="1" stop-color="#150e42"/></linearGradient><linearGradient id="g127" x1="515" y1="960" x2="529.5" y2="1026.5" href="#P"><stop stop-color="#f9b776"/><stop offset="1" stop-color="#f47960"/></linearGradient><linearGradient id="g128" x1="475.5" y1="969.3" x2="489.4" y2="1033.3" href="#P"><stop stop-color="#f9b776"/><stop offset="1" stop-color="#f47960"/></linearGradient><linearGradient id="g129" x1="494.4" y1="951.7" x2="533.1" y2="1011.7" href="#P"><stop stop-color="#2b3582"/><stop offset="1" stop-color="#150e42"/></linearGradient><linearGradient id="g130" x1="530.2" y1="955.2" x2="543.2" y2="1014.5" href="#P"><stop stop-color="#f9b776"/><stop offset="1" stop-color="#f47960"/></linearGradient><linearGradient id="g131" x1="515.5" y1="1043" x2="512.4" y2="1167.3" href="#P"><stop stop-color="#cb236d"/><stop offset="1" stop-color="#4c246d"/></linearGradient><linearGradient id="g132" x1="488.2" y1="1105" x2="491.3" y2="980.8" href="#P"><stop stop-color="#cb236d"/><stop offset="1" stop-color="#4c246d"/></linearGradient><linearGradient id="g133" x1="372" y1="1101" x2="392.6" y2="1036.8" href="#P"><stop stop-color="#a737d5"/><stop offset="1" stop-color="#ef497a"/></linearGradient><linearGradient id="g134" x1="459.5" y1="1078.8" x2="454.3" y2="1065.6" href="#P"><stop stop-color="#f9b776"/><stop offset="1" stop-color="#f47960"/></linearGradient><linearGradient id="g135" x1="544.2" y1="1061.2" x2="549.4" y2="1074.4" href="#P"><stop stop-color="#f9b776"/><stop offset="1" stop-color="#f47960"/></linearGradient><linearGradient id="g136" x1="467.2" y1="1121.1" x2="435.9" y2="1121.3" href="#P"><stop stop-color="#2c759e"/><stop offset="1" stop-color="#051042"/></linearGradient><linearGradient id="g137" x1="432.2" y1="1107.5" x2="459.1" y2="1107.6" href="#P"><stop stop-color="#53eac9"/><stop offset="1" stop-color="#45aed8"/></linearGradient><linearGradient id="g138" x1="433.9" y1="1173.9" x2="472.5" y2="1069.4" href="#P"><stop stop-color="#f9b776"/><stop offset="1" stop-color="#f47960"/></linearGradient><linearGradient id="g139" x1="432.5" y1="1108.9" x2="459.4" y2="1109" href="#P"><stop stop-color="#53eac9"/><stop offset="1" stop-color="#45aed8"/></linearGradient><linearGradient id="g140" x1="431.5" y1="1108.8" x2="459.5" y2="1108.9" href="#P"><stop stop-color="#53eac9"/><stop offset="1" stop-color="#45aed8"/></linearGradient><linearGradient id="g141" x1="432.2" y1="1109.8" x2="459.1" y2="1108.6" href="#P"><stop stop-color="#53eac9"/><stop offset="1" stop-color="#45aed8"/></linearGradient><linearGradient id="g142" x1="430" y1="1110.1" x2="460.6" y2="1108.7" href="#P"><stop stop-color="#53eac9"/><stop offset="1" stop-color="#45aed8"/></linearGradient><linearGradient id="g143" x1="542.5" y1="1106.2" x2="573.9" y2="1105.5" href="#P"><stop stop-color="#2c759e"/><stop offset="1" stop-color="#051042"/></linearGradient><linearGradient id="g144" x1="577.8" y1="1120" x2="549.9" y2="1120.2" href="#P"><stop stop-color="#53eac9"/><stop offset="1" stop-color="#45aed8"/></linearGradient><linearGradient id="g145" x1="501.2" y1="1200.4" x2="538.2" y2="1100.1" href="#P"><stop stop-color="#f9b776"/><stop offset="1" stop-color="#f47960"/></linearGradient><linearGradient id="g146" x1="578.2" y1="1115.7" x2="550.3" y2="1115.9" href="#P"><stop stop-color="#53eac9"/><stop offset="1" stop-color="#45aed8"/></linearGradient><linearGradient id="g147" x1="577.8" y1="1115.6" x2="550.4" y2="1115.8" href="#P"><stop stop-color="#53eac9"/><stop offset="1" stop-color="#45aed8"/></linearGradient><linearGradient id="g148" x1="577.7" y1="1117" x2="550.1" y2="1115.8" href="#P"><stop stop-color="#53eac9"/><stop offset="1" stop-color="#45aed8"/></linearGradient><linearGradient id="g149" x1="579" y1="1116.6" x2="549.2" y2="1115.4" href="#P"><stop stop-color="#53eac9"/><stop offset="1" stop-color="#45aed8"/></linearGradient><linearGradient id="g150" x1="413.6" y1="1118.2" x2="503.6" y2="1050.6" href="#P"><stop stop-color="#2b3582"/><stop offset="1" stop-color="#150e42"/></linearGradient><linearGradient id="g151" x1="529.6" y1="1067.3" x2="553" y2="1127.2" href="#P"><stop stop-color="#2b3582"/><stop offset="1" stop-color="#150e42"/></linearGradient><linearGradient id="g152" x1="439.6" y1="1159" x2="722.7" y2="975.4" href="#P"><stop stop-color="#b37cff"/><stop offset="1" stop-color="#f895e7"/></linearGradient><linearGradient id="g153" x1="298.9" y1="1080" x2="744.5" y2="1153.6" href="#P"><stop stop-color="#cb236d"/><stop offset="1" stop-color="#4c246d"/></linearGradient><linearGradient id="g154" x1="740.3" y1="1345.1" x2="178.3" y2="1364.2" href="#P"><stop stop-color="#53d8ff"/><stop offset="1" stop-color="#3840f7"/></linearGradient><linearGradient id="g155" x1="223.7" y1="1353.1" x2="617.2" y2="1105.3" href="#P"><stop stop-color="#b37cff"/><stop offset="1" stop-color="#f895e7"/></linearGradient><linearGradient id="g156" x1="696.9" y1="1281.6" x2="279.6" y2="1281.6" href="#P"><stop stop-color="#a737d5"/><stop offset="1" stop-color="#ef497a"/></linearGradient><linearGradient id="g157" x1="1835.9" y1="839.2" x2="1600" y2="1095.8" href="#P"><stop stop-color="#2b3582"/><stop offset="1" stop-color="#150e42"/></linearGradient><linearGradient id="g158" x1="1757.7" y1="857.5" x2="1771.1" y2="857.5" href="#P"><stop stop-color="#f9b776"/><stop offset="1" stop-color="#f47960"/></linearGradient><linearGradient id="g159" x1="2350.1" y1="703.1" x2="2265.2" y2="975" href="#P"><stop stop-color="#53d8ff"/><stop offset=".8" stop-color="#3840f7"/></linearGradient><linearGradient id="g160" x1="1803.6" y1="808.6" x2="1600.8" y2="1029.2" href="#P"><stop stop-color="#2b3582"/><stop offset="1" stop-color="#150e42"/></linearGradient><linearGradient id="g161" x1="1709.2" y1="854.7" x2="1720.8" y2="854.7" href="#P"><stop stop-color="#f9b776"/><stop offset="1" stop-color="#f47960"/></linearGradient><linearGradient id="g162" x1="2065.3" y1="658.9" x2="1991.1" y2="896.3" href="#P"><stop stop-color="#53d8ff"/><stop offset=".8" stop-color="#3840f7"/></linearGradient><linearGradient id="g163" x1="1620.2" y1="562.9" x2="1850.6" y2="397" href="#P"><stop stop-color="#2b3582"/><stop offset="1" stop-color="#150e42"/></linearGradient><linearGradient id="g164" x1="1813.1" y1="472.7" x2="1881.9" y2="472.7" href="#P"><stop stop-color="#f9b776"/><stop offset="1" stop-color="#f47960"/></linearGradient><linearGradient id="g165" x1="1834.1" y1="426.6" x2="1785.2" y2="315.4" href="#P"><stop stop-color="#f9b776"/><stop offset="1" stop-color="#f47960"/></linearGradient><linearGradient id="g166" x1="1867.4" y1="458.5" x2="1890.2" y2="423.3" href="#P"><stop stop-color="#f9b776"/><stop offset="1" stop-color="#f47960"/></linearGradient><linearGradient id="g167" x1="1615.7" y1="566.4" x2="1881.4" y2="375.2" href="#P"><stop stop-color="#2b3582"/><stop offset="1" stop-color="#150e42"/></linearGradient><linearGradient id="g168" x1="1662.6" y1="588.3" x2="1749.6" y2="588.3" href="#P"><stop stop-color="#f9b776"/><stop offset="1" stop-color="#f47960"/></linearGradient><linearGradient id="g169" x1="1814.9" y1="528.1" x2="1874.5" y2="776.5" href="#P"><stop stop-color="#fdf53f"/><stop offset="1" stop-color="#d93c65"/></linearGradient><linearGradient id="g170" x1="1809" y1="516.7" x2="1798.5" y2="563" href="#P"><stop stop-color="#53d8ff"/><stop offset="1" stop-color="#3840f7"/></linearGradient><linearGradient id="g171" x1="1803.8" y1="536" x2="1798.8" y2="566" href="#P"><stop stop-color="#53d8ff"/><stop offset="1" stop-color="#3840f7"/></linearGradient><linearGradient id="g172" x1="1743.2" y1="589.2" x2="1770.3" y2="589.2" href="#P"><stop stop-color="#f9b776"/><stop offset="1" stop-color="#f47960"/></linearGradient><linearGradient id="g173" x1="1729.4" y1="498.9" x2="1763.8" y2="498.9" href="#P"><stop stop-color="#f9b776"/><stop offset="1" stop-color="#f47960"/></linearGradient><linearGradient id="g174" x1="1758" y1="522.2" x2="1713.6" y2="495.1" href="#P"><stop stop-color="#f9b776"/><stop offset="1" stop-color="#f47960"/></linearGradient><linearGradient id="g175" x1="1713.2" y1="402.3" x2="1805.1" y2="474.9" href="#P"><stop stop-color="#2b3582"/><stop offset="1" stop-color="#150e42"/></linearGradient><linearGradient id="g176" x1="1762" y1="510.6" x2="1720.2" y2="485.1" href="#P"><stop stop-color="#f9b776"/><stop offset="1" stop-color="#f47960"/></linearGradient><linearGradient id="g177" x1="836.2" y1="1199.3" x2="804.5" y2="1119.9" href="#P"><stop stop-color="#cb236d"/><stop offset="1" stop-color="#4c246d"/></linearGradient><linearGradient id="g178" x1="880.7" y1="1102.3" x2="825.9" y2="977.6" href="#P"><stop stop-color="#f9b776"/><stop offset="1" stop-color="#f47960"/></linearGradient><linearGradient id="g179" x1="826.2" y1="1421.9" x2="803" y2="1421.9" href="#P"><stop stop-color="#a737d5"/><stop offset="1" stop-color="#ef497a"/></linearGradient><linearGradient id="g180" x1="1228.7" y1="1220" x2="1194.8" y2="1616.4" href="#P"><stop stop-color="#f9b776"/><stop offset="1" stop-color="#f47960"/></linearGradient><linearGradient id="g181" x1="934.2" y1="1422.2" x2="896.6" y2="1422.2" href="#P"><stop stop-color="#a737d5"/><stop offset="1" stop-color="#ef497a"/></linearGradient><linearGradient id="g182" x1="1001" y1="1184.3" x2="964.8" y2="1606.7" href="#P"><stop stop-color="#f9b776"/><stop offset="1" stop-color="#f47960"/></linearGradient><linearGradient id="g183" x1="865.5" y1="1197.3" x2="731.7" y2="732.6" href="#P"><stop stop-color="#2b3582"/><stop offset="1" stop-color="#150e42"/></linearGradient><linearGradient id="g184" x1="834.2" y1="1426.5" x2="710.5" y2="996.8" href="#P"><stop stop-color="#2b3582"/><stop offset="1" stop-color="#150e42"/></linearGradient><linearGradient id="g185" x1="970.3" y1="998.1" x2="963.3" y2="1049.2" href="#P"><stop stop-color="#f9b776"/><stop offset="1" stop-color="#f47960"/></linearGradient><linearGradient id="g186" x1="973" y1="998.5" x2="903.8" y2="1121.6" href="#P"><stop stop-color="#f9b776"/><stop offset="1" stop-color="#f47960"/></linearGradient><linearGradient id="g187" x1="900" y1="1082.1" x2="868.2" y2="1002.2" href="#P"><stop stop-color="#cb236d"/><stop offset="1" stop-color="#4c246d"/></linearGradient><linearGradient id="g188" x1="943.6" y1="994.2" x2="879.4" y2="1108.4" href="#P"><stop stop-color="#f9b776"/><stop offset="1" stop-color="#f47960"/></linearGradient><linearGradient id="g189" x1="972.1" y1="948.2" x2="933.2" y2="859.7" href="#P"><stop stop-color="#f9b776"/><stop offset="1" stop-color="#f47960"/></linearGradient><linearGradient id="g190" x1="1001.4" y1="1040.6" x2="1046" y2="1130.1" href="#P"><stop stop-color="#f9b776"/><stop offset="1" stop-color="#f47960"/></linearGradient><linearGradient id="g191" x1="152.6" y1="1550.3" x2="62.7" y2="1322.3" href="#P"><stop stop-color="#cb236d"/><stop offset="1" stop-color="#4c246d"/></linearGradient><linearGradient id="g192" x1="152.6" y1="1110.7" x2="352.5" y2="1500.9" href="#P"><stop stop-color="#cb236d"/><stop offset="1" stop-color="#4c246d"/></linearGradient><linearGradient id="g193" x1="17.2" y1="631.4" x2="36" y2="513.3" href="#P"><stop stop-color="#cb236d"/><stop offset="1" stop-color="#4c246d"/></linearGradient><linearGradient id="g194" x1="526.4" y1="711.8" x2="546.1" y2="587.9" href="#P"><stop stop-color="#cb236d"/><stop offset="1" stop-color="#4c246d"/></linearGradient><linearGradient id="g195" x1="505.9" y1="715.9" x2="526" y2="589.7" href="#P"><stop stop-color="#cb236d"/><stop offset="1" stop-color="#4c246d"/></linearGradient><linearGradient id="g196" x1="431.8" y1="559.1" x2="493.6" y2="559.1" href="#P"><stop stop-color="#f9b776"/><stop offset="1" stop-color="#f47960"/></linearGradient><linearGradient id="g197" x1="493.4" y1="677.5" x2="484.1" y2="820.3" href="#P"><stop stop-color="#cb236d"/><stop offset="1" stop-color="#4c246d"/></linearGradient><linearGradient id="g198" x1="359.3" y1="563.9" x2="489.6" y2="563.9" href="#P"><stop stop-color="#f9b776"/><stop offset="1" stop-color="#f47960"/></linearGradient><linearGradient id="g199" x1="457.1" y1="700.1" x2="485.7" y2="594.5" href="#P"><stop stop-color="#a737d5"/><stop offset="1" stop-color="#ef497a"/></linearGradient><linearGradient id="g200" x1="385.1" y1="670.3" x2="375.9" y2="811.7" href="#P"><stop stop-color="#cb236d"/><stop offset="1" stop-color="#4c246d"/></linearGradient><linearGradient id="g201" x1="255.4" y1="545.8" x2="662.9" y2="545.8" href="#P"><stop stop-color="#9cfffb"/><stop offset="1" stop-color="#9bfffa"/></linearGradient><linearGradient id="g202" x1="278.8" y1="553.3" x2="359.2" y2="553.3" href="#P"><stop stop-color="#9cfffb"/><stop offset="1" stop-color="#9bfffa"/></linearGradient><linearGradient id="g203" x1="288.1" y1="553.3" x2="368.5" y2="553.3" href="#P"><stop stop-color="#9cfffb"/><stop offset="1" stop-color="#9bfffa"/></linearGradient><linearGradient id="g204" x1="568" y1="553.3" x2="648.5" y2="553.3" href="#P"><stop stop-color="#9cfffb"/><stop offset="1" stop-color="#9bfffa"/></linearGradient><linearGradient id="g205" x1="577.3" y1="553.3" x2="657.8" y2="553.3" href="#P"><stop stop-color="#9cfffb"/><stop offset="1" stop-color="#9bfffa"/></linearGradient><linearGradient id="g206" x1="326.7" y1="515.4" x2="413.6" y2="515.4" href="#P"><stop stop-color="#cb236d"/><stop offset="1" stop-color="#4c246d"/></linearGradient><linearGradient id="g207" x1="364.2" y1="558.6" x2="365" y2="515.8" href="#P"><stop stop-color="#53d8ff"/><stop offset="1" stop-color="#3840f7"/></linearGradient><linearGradient id="g208" x1="351.2" y1="558.6" x2="368.4" y2="506.7" href="#P"><stop stop-color="#53d8ff"/><stop offset="1" stop-color="#3840f7"/></linearGradient><linearGradient id="g209" x1="358.9" y1="540" x2="453.4" y2="497.8" href="#P"><stop stop-color="#53d8ff"/><stop offset="1" stop-color="#3840f7"/></linearGradient><linearGradient id="g210" x1="352.9" y1="483.1" x2="518.7" y2="571.5" href="#P"><stop stop-color="#53d8ff"/><stop offset="1" stop-color="#3840f7"/></linearGradient><linearGradient id="g211" x1="355" y1="484.2" x2="514.6" y2="569.2" href="#P"><stop stop-color="#fff"/><stop offset="1" stop-color="#fff"/></linearGradient><linearGradient id="g212" x1="363.5" y1="503" x2="462.9" y2="527.7" href="#P"><stop stop-color="#fff"/><stop offset="1" stop-color="#fff"/></linearGradient><linearGradient id="g213" x1="500.2" y1="552.2" x2="413.3" y2="552.2" href="#P"><stop stop-color="#cb236d"/><stop offset="1" stop-color="#4c246d"/></linearGradient><linearGradient id="g214" x1="462.7" y1="510.1" x2="461.9" y2="552.8" href="#P"><stop stop-color="#53d8ff"/><stop offset="1" stop-color="#3840f7"/></linearGradient><linearGradient id="g215" x1="475.8" y1="510" x2="458.5" y2="561.9" href="#P"><stop stop-color="#53d8ff"/><stop offset="1" stop-color="#3840f7"/></linearGradient><linearGradient id="g216" x1="468" y1="544.3" x2="373.5" y2="586.5" href="#P"><stop stop-color="#53d8ff"/><stop offset="1" stop-color="#3840f7"/></linearGradient><linearGradient id="g217" x1="474" y1="573.5" x2="308.2" y2="485.1" href="#P"><stop stop-color="#53d8ff"/><stop offset="1" stop-color="#3840f7"/></linearGradient><linearGradient id="g218" x1="496.7" y1="582.1" x2="337.2" y2="497" href="#P"><stop stop-color="#fff"/><stop offset="1" stop-color="#fff"/></linearGradient><linearGradient id="g219" x1="463.4" y1="541.9" x2="364" y2="517.1" href="#P"><stop stop-color="#fff"/><stop offset="1" stop-color="#fff"/></linearGradient><linearGradient id="g220" x1="567" y1="415.7" x2="651.1" y2="598.7" href="#P"><stop stop-color="#a737d5"/><stop offset="1" stop-color="#ef497a"/></linearGradient><linearGradient id="g221" x1="483.7" y1="478.2" x2="474.1" y2="416.7" href="#P"><stop stop-color="#f9b776"/><stop offset="1" stop-color="#f47960"/></linearGradient><linearGradient id="g222" x1="435.8" y1="389.8" x2="527.6" y2="363.6" href="#P"><stop stop-color="#f9b776"/><stop offset="1" stop-color="#f47960"/></linearGradient><linearGradient id="g223" x1="483.7" y1="286.3" x2="499.9" y2="433.4" href="#P"><stop stop-color="#cb236d"/><stop offset="1" stop-color="#4c246d"/></linearGradient><linearGradient id="g224" x1="440.5" y1="407.6" x2="527.8" y2="382.6" href="#P"><stop stop-color="#f9b776"/><stop offset="1" stop-color="#f47960"/></linearGradient><linearGradient id="g225" x1="543.1" y1="520.3" x2="665.5" y2="520.3" href="#P"><stop stop-color="#f9b776"/><stop offset="1" stop-color="#f47960"/></linearGradient><linearGradient id="g226" x1="549.1" y1="282.7" x2="565.2" y2="428.9" href="#P"><stop stop-color="#cb236d"/><stop offset="1" stop-color="#4c246d"/></linearGradient></defs><style>.a{opacity:.2;fill:url(#g1)}.b{opacity:.5;fill:url(#g2)}.c{fill:url(#g3)}.d{opacity:.5;fill:#fff}.e{fill:url(#g4)}.f{opacity:.7;fill:url(#g5)}.g{opacity:1;fill:url(#g6)}.h{opacity:1;fill:url(#g7)}.i{fill:url(#g8)}.j{fill:url(#g9)}.k{opacity:.6;fill:url(#g10)}.l{fill:url(#g11)}.m{fill:url(#g12)}.n{opacity:.8;fill:#fff}.o{fill:url(#g13)}.p{fill:url(#g14)}.q{fill:#fff}.r{fill:url(#g15)}.s{opacity:.6;fill:#fff}.t{fill:url(#g16)}.u{fill:url(#g17)}.v{fill:url(#g18)}.w{fill:url(#g19)}.x{fill:url(#g20)}.y{opacity:.3;fill:#fff}.z{fill:url(#g21)}.A{fill:url(#g22)}.B{fill:url(#g23)}.C{fill:url(#g24)}.D{fill:url(#g25)}.E{fill:url(#g26)}.F{fill:url(#g27)}.G{fill:url(#g28)}.H{fill:url(#g29)}.I{fill:url(#g30)}.J{fill:url(#g31)}.K{fill:url(#g32)}.L{fill:url(#g33)}.M{fill:url(#g34)}.N{fill:url(#g35)}.O{fill:url(#g36)}.P{fill:url(#g37)}.Q{fill:url(#g38)}.R{fill:url(#g39)}.S{fill:url(#g40)}.T{fill:url(#g41)}.U{fill:url(#g42)}.V{fill:url(#g43)}.W{fill:url(#g44)}.X{fill:url(#g45)}.Y{fill:url(#g46)}.Z{fill:url(#g47)}.a0{fill:url(#g48)}.a1{fill:url(#g49)}.a2{fill:url(#g50)}.a3{fill:url(#g51)}.a4{fill:url(#g52)}.a5{fill:url(#g53)}.a6{fill:url(#g54)}.a7{fill:url(#g55)}.a8{fill:url(#g56)}.a9{fill:url(#g57)}.aa{fill:url(#g58)}.ab{fill:url(#g59)}.ac{fill:url(#g60)}.ad{fill:url(#g61)}.ae{fill:url(#g62)}.af{fill:url(#g63)}.ag{fill:url(#g64)}.ah{fill:url(#g65)}.ai{fill:url(#g66)}.aj{fill:url(#g67)}.ak{fill:url(#g68)}.al{fill:url(#g69)}.am{fill:url(#g70)}.an{fill:url(#g71)}.ao{fill:url(#g72)}.ap{fill:url(#g73)}.aq{fill:url(#g74)}.ar{fill:url(#g75)}.as{fill:url(#g76)}.at{fill:url(#g77)}.au{fill:url(#g78)}.av{fill:url(#g79)}.aw{fill:url(#g80)}.ax{fill:url(#g81)}.ay{fill:url(#g82)}.az{fill:url(#g83)}.aA{fill:url(#g84)}.aB{fill:url(#g85)}.aC{fill:url(#g86)}.aD{fill:url(#g87)}.aE{fill:url(#g88)}.aF{fill:url(#g89)}.aG{fill:url(#g90)}.aH{fill:url(#g91)}.aI{fill:url(#g92)}.aJ{fill:url(#g93)}.aK{fill:url(#g94)}.aL{fill:url(#g95)}.aM{fill:url(#g96)}.aN{fill:url(#g97)}.aO{opacity:.7;fill:#fff}.aP{fill:url(#g98)}.aQ{fill:url(#g99)}.aR{fill:url(#g100)}.aS{fill:url(#g101)}.aT{fill:url(#g102)}.aU{fill:url(#g103)}.aV{fill:url(#g104)}.aW{fill:url(#g105)}.aX{fill:url(#g106)}.aY{fill:url(#g107)}.aZ{fill:url(#g108)}.b0{fill:url(#g109)}.b1{fill:url(#g110)}.b2{fill:url(#g111)}.b3{fill:url(#g112)}.b4{fill:url(#g113)}.b5{fill:url(#g114)}.b6{fill:url(#g115)}.b7{fill:url(#g116)}.b8{fill:url(#g117)}.b9{fill:url(#g118)}.ba{fill:url(#g119)}.bb{fill:url(#g120)}.bc{fill:url(#g121)}.bd{fill:url(#g122)}.be{fill:url(#g123)}.bf{fill:url(#g124)}.bg{fill:url(#g125)}.bh{fill:url(#g126)}.bi{fill:url(#g127)}.bj{fill:url(#g128)}.bk{fill:url(#g129)}.bl{fill:url(#g130)}.bm{fill:url(#g131)}.bn{fill:url(#g132)}.bo{fill:url(#g133)}.bp{fill:url(#g134)}.bq{fill:url(#g135)}.br{fill:url(#g136)}.bs{fill:url(#g137)}.bt{fill:url(#g138)}.bu{fill:url(#g139)}.bv{fill:url(#g140)}.bw{fill:url(#g141)}.bx{fill:url(#g142)}.by{fill:url(#g143)}.bz{fill:url(#g144)}.bA{fill:url(#g145)}.bB{fill:url(#g146)}.bC{fill:url(#g147)}.bD{fill:url(#g148)}.bE{fill:url(#g149)}.bF{fill:url(#g150)}.bG{fill:url(#g151)}.bH{fill:url(#g152)}.bI{fill:url(#g153)}.bJ{fill:url(#g154)}.bK{fill:url(#g155)}.bL{fill:url(#g156)}.bM{fill:url(#g157)}.bN{fill:url(#g158)}.bO{fill:url(#g159)}.bP{fill:url(#g160)}.bQ{fill:url(#g161)}.bR{fill:url(#g162)}.bS{fill:url(#g163)}.bT{fill:url(#g164)}.bU{fill:url(#g165)}.bV{fill:url(#g166)}.bW{fill:url(#g167)}.bX{fill:url(#g168)}.bY{fill:url(#g169)}.bZ{fill:url(#g170)}.c0{fill:url(#g171)}.c1{fill:url(#g172)}.c2{fill:url(#g173)}.c3{fill:url(#g174)}.c4{fill:url(#g175)}.c5{fill:url(#g176)}.c6{fill:url(#g177)}.c7{fill:url(#g178)}.c8{fill:url(#g179)}.c9{fill:url(#g180)}.ca{fill:url(#g181)}.cb{fill:url(#g182)}.cc{fill:url(#g183)}.cd{fill:url(#g184)}.ce{fill:url(#g185)}.cf{fill:url(#g186)}.cg{fill:url(#g187)}.ch{fill:url(#g188)}.ci{fill:url(#g189)}.cj{fill:url(#g190)}.ck{fill:url(#g191)}.cl{fill:url(#g192)}.cm{fill:url(#g193)}.cn{fill:url(#g194)}.co{fill:url(#g195)}.cp{fill:url(#g196)}.cq{fill:url(#g197)}.cr{fill:url(#g198)}.cs{fill:url(#g199)}.ct{fill:url(#g200)}.cu{fill:url(#g201)}.cv{fill:url(#g202)}.cw{fill:url(#g203)}.cx{fill:url(#g204)}.cy{fill:url(#g205)}.cz{fill:url(#g206)}.cA{fill:url(#g207)}.cB{fill:url(#g208)}.cC{fill:url(#g209)}.cD{fill:url(#g210)}.cE{opacity:.7;fill:url(#g211)}.cF{opacity:.7;fill:url(#g212)}.cG{fill:url(#g213)}.cH{fill:url(#g214)}.cI{fill:url(#g215)}.cJ{fill:url(#g216)}.cK{fill:url(#g217)}.cL{opacity:.7;fill:url(#g218)}.cM{opacity:.7;fill:url(#g219)}.cN{fill:url(#g220)}.cO{fill:url(#g221)}.cP{fill:url(#g222)}.cQ{fill:url(#g223)}.cR{fill:url(#g224)}.cS{fill:url(#g225)}.cT{fill:url(#g226)}</style><path class="a" d="m2033.5 255.6c-52.5-102.5-167.7-179.5-279.8-155.9-67.2 14.2-133.9 61.6-198.3 37.8-46.4-17.2-72.6-65.9-111.6-96.5-60-47-145.2-46.5-218.4-25.4-73.2 21.1-140.1 59.9-212.4 83.8-123.2 40.9-260.7 36.4-381-12.3-52.8-21.4-102.3-50.9-156.1-69.7-53.7-18.8-114.7-26.1-166.6-2.6-51.9 23.6-89.2 85.1-71.2 139.5 3.6 10.8 9.2 21.5 8.5 32.9-1.2 18.3-18.7 31.7-36.5 35.7-17.7 4.1-36.2 1.4-54.4 1.9-81.7 2.1-154.7 77-155.1 159.2-0.3 68.2 41.5 128.1 77.2 186 35.7 57.9 67.8 127.4 46.6 192.1-12.7 38.3-42.3 68.4-61.7 103.8-50.2 91.7-23.4 213.2 46.9 290.6 70.2 77.4 175.3 115.3 279.1 124.3 103.7 9 207.8-7.9 310.6-24.7 102.8-16.7 207-33.3 310.7-23.7l-5.6-3.1c202.6 50.4 414.6 62.5 621.6 35.5 43.3-5.7 93.1-17.8 111.4-57.7 15.4-33.7 1.5-73.2 4.7-110.2 4.6-53.3 44.4-96.9 87.7-127.9 43.3-31 92.5-54.1 131.5-90.3 76.4-71.1 102.3-181 113.7-285 12.6-114.5 11-235.7-41.5-338.1z"/><path fill-rule="evenodd" class="b" d="m2030.6 486.8c-4.1 78.7-11.9 153.6-63.3 216.4-51.7 63.3-25.9 101.2-24.3 180.5 1.1 51.4 24.1 180.8 14.8 231.6-7.3 39.6-136.5 37.5-173.8 58.3-37.3 20.8-100.5 11.4-143 20.2-423.5 87.7-865.2 68-1294.6 9.9-49.5-6.7-100.7-14.5-142.4-40.1-41.7-25.5-71.2-73.9-56.8-118.2 13-40 58.7-71.5 52.9-112.9-6.7-48.3-75.8-64.8-102.8-106.7-23.3-36.3-9.3-84.5 18.6-117.9 27.9-33.5 67.2-56.8 101.7-84.5 34.5-27.7 65.9-63.5 68.6-105.6 6.1-95.2-126.9-146.8-159.2-237.3-25.7-71.8 22.8-153.3 94.1-190.4 71.3-37.2 158.6-37.9 239.2-24.4 110.7 18.5 216.5 62.1 305.4 125.9 65.8 47.2 133.3 108.9 214.4 110.3 152.9-15.2 301.9-62.9 432.3-138.3 49.6-28.7 96.8-61.5 150-84.1 53.3-22.6 114.7-34.4 170.7-18.5 56 15.9 103.2 65 99.8 119.1-1.2 18.1-7.6 36.7-2 54.1 10.5 32.1 53.1 41.6 85.9 56 77 33.8 117.8 117.9 113.8 196.6zm-1034-185.4l-10.1 0.5q5.1-0.1 10.1-0.5z"/><path class="c" d="m2170.6 438.5c3.4-6.4-5.6-10.9-13.1-6.6-76.3 43.6-266.9 175.5-294.6 415.3-34.7 300.8-146.6 407.6-266.8 471.1 0 0 148.4-27 266.9-135.2 291-265.6 245.6-631.2 307.6-744.6z"/><path class="d" d="m2093.1 529.1c-10.4 11.3-19.4 23.4-28 35.9-2.2 3.2-4.4 6.2-6.4 9.5l-6.1 9.6-3 4.8-2.9 4.9-5.8 9.8c-14.9 26.4-27.7 54-39.1 82.1l-8.2 21.3c-2.5 7.1-4.8 14.4-7.3 21.6l-3.6 10.7c-1.1 3.7-2.1 7.3-3.2 11l-6.3 21.8q-0.8 2.8-1.5 5.5l-1.3 5.6-2.7 11-2.7 11.1c-0.9 3.7-1.9 7.4-2.5 11.1l-4.5 22.3c-1.5 7.5-3 14.9-4.3 22.3-11 58.8-31 115.8-55.8 170.4-3.1 6.8-6.4 13.5-9.6 20.3-3.4 6.7-6.7 13.5-10.1 20.1-6.9 13.3-14.1 26.5-21.6 39.5q-11.2 19.5-23.4 38.5c-4 6.3-8.2 12.5-12.4 18.7-4.2 6.2-8.5 12.4-12.9 18.3v0.1c-1.8 2.4-1.3 5.8 1.1 7.5 2.3 1.8 5.7 1.3 7.5-1 9.4-12.3 17.9-24.7 26.2-37.5q12.5-19 24-38.7c7.7-13.1 15-26.5 22-39.9 3.5-6.8 6.8-13.6 10.2-20.4 3.3-6.8 6.6-13.7 9.7-20.6 3.3-6.9 6.2-13.9 9.3-20.9 2.9-7 5.9-14 8.6-21.1 5.6-14.1 10.6-28.5 15.4-42.9l3.4-10.9c1.2-3.6 2.2-7.3 3.3-10.9 2.2-7.3 4-14.7 6-22.1 3.7-14.7 7.1-29.6 9.7-44.6l8.2-44.4c0.6-3.7 1.4-7.4 2.3-11l2.5-11 2.5-11 1.2-5.5q0.6-2.7 1.4-5.4l6-21.8c1-3.6 1.9-7.2 3-10.8l3.4-10.7c2.3-7.2 4.5-14.4 6.9-21.5l7.6-21.2c10.6-28.1 22.6-55.7 36.8-82.2l5.4-9.9 2.7-4.9 2.8-4.9 5.8-9.7c1.9-3.2 4-6.3 6-9.5 2-3.2 4-6.3 6.2-9.4 2.1-3.1 4.2-6.2 6.4-9.2 4.4-6.1 8.9-12.2 13.8-17.8h0.1c0.5-0.6 0.4-1.5-0.2-2.1-0.6-0.5-1.5-0.4-2 0.1z"/><g style="opacity:.7"><path class="e" d="m1911.2 1263.2c0 0-53-96.9 2.4-189.3 51.4-85.8 185.2-283.4 177.2-397.1-0.3-5 9.3-3 12.6 2.6 35.2 60.7 109.9 211.9 76.6 356.7-42.9 186.7-268.8 227.1-268.8 227.1z"/><path class="d" d="m2112.2 783.2c7.4 20.5 11.3 42 13.1 63.5 1.7 21.6 0.8 43.3-2.5 64.5-1.7 10.7-4.1 21.2-7 31.6l-2.4 7.7c-0.8 2.5-1.7 5.1-2.6 7.6l-1.3 3.8-1.5 3.8c-1 2.5-1.9 5-2.9 7.5l-3.3 7.4c-0.5 1.2-1.1 2.4-1.7 3.6l-1.7 3.6-3.7 7.3-3.9 7-1.9 3.5c-0.7 1.2-1.4 2.3-2.1 3.5l-4.2 6.9c-2.9 4.5-5.9 9.1-8.9 13.6-11.9 18.1-24.4 35.8-37.3 53.3-6.4 8.7-13 17.4-19.6 26q-9.9 12.9-20 25.7c-6.6 8.6-13.4 17.2-20 25.8-6.6 8.7-13.2 17.3-19.3 26.4-6.1 9-11.9 18.4-16.8 28.2-2.3 5-4.5 10-6.2 15.3-1.6 5.2-2.9 10.6-3.6 16-0.1 0.4 0.2 0.8 0.6 0.9 0.4 0 0.8-0.2 0.9-0.7 0.9-5.3 2.4-10.5 4.2-15.5 1.9-5.1 4.1-10 6.6-14.8 5-9.5 11-18.5 17.3-27.3 12.8-17.5 26.6-34.3 40.2-51.2 27.6-33.6 54-68.4 78-104.8 3-4.5 6-9.1 9-13.7l4.3-7c0.7-1.2 1.4-2.4 2.1-3.5l2-3.7 3.9-7.2 3.6-7.4 1.8-3.7c0.6-1.2 1.2-2.5 1.7-3.8l3.3-7.5c8.3-20.3 14.1-41.7 17.2-63.4 1.4-10.9 2.3-21.9 2.4-32.8 0.2-11-0.4-21.9-1.6-32.8-1.3-10.9-3.3-21.6-5.8-32.2-2.7-10.6-5.8-21.1-10.3-31q0-0.1-0.1-0.1-0.1 0.1 0 0.1z"/></g><path fill-rule="evenodd" class="f" d="m561.5 218.6c0.7-28 8.3-89 8.3-89 0 0 50 17.5 64.1 26.9 14.2 9.3 9.4 50.4-6.8 77.9-16.1 27.5-35.4 57.5-28.4 68.6 6.9 11.1 33-36.7 47.8-81.4 14.8-44.8 14.1-58.7 14.1-58.7 0 0 85.3 38.9 84.8 65.6-0.6 26.6-90.3 81.3-97.1 112.1-6.8 30.9 40.6 3 70.4-23.6 29.7-26.7 24.4-62.6 24.4-62.6 42.7 9.4 69.6 63.6 56.8 101.1-12.8 37.4-107.1 39.1-104.3 57.4 2.8 18.2 40.7-7.8 66.7-8.3 25.9-0.6 41.6-36 41.6-36-23.6 161.9-152.3 93.2-156.5 90.9 1.1 0.7 9.7 8.6 4.5 82.2-5.6 78.4-120.3 90.1-120.3 90.1 17.4-5.3 38.1-57.1 47.5-79.2 9.4-22.1 19.4-46.8 6-47.3-13.4-0.5-21 13.9-35.1 49.7-14.1 35.9-46.8 60.5-46.8 60.5-76.4 3.2-111.7-70.2-111.7-70.2 16.7 9.5 75.3-31.9 99.7-45 24.5-13 60.8-20.5 72.4-32.6 11.6-12.1-12.2-13.8-40.4-8.4-28.2 5.4-106.2 53-124 59.5-17.8 6.5-44.7-39.2-50.4-68.9-5.8-29.8-16.5-35.1-16.5-35.1 0 0 84.5-2.7 102.9-11.8 18.4-9.1 61.2-6.9 53.1-17-8.1-10-40.7-17.9-70.1-2-29.5 16-81.2 22.4-87.2 12.9-6-9.6-9.8-98.4-9.8-98.4 19 39.7 136.5 16.6 135.4 4.2-1.1-12.5-22.8-17.7-61.3-4-38.4 13.8-65.3 1.9-71.4-11.7-6-13.6 10.9-58.3 10.9-58.3 26.2 46.9 92.7 31.8 91.3 15.2-1.4-16.5-38.1-15.9-63.3-25.5-25.3-9.6-14.8-37.9-6.4-66.6 8.4-28.7 6.6-40.5 6.6-40.5 15.4 13.4 60.8 23.9 79 4.5 18.2-19.5 30.2-2.8 30.2-2.8 14.9 21.1-11.2 75.8-12.1 96.7-0.9 21 13.9 37.6 30.1 7.2 16.2-30.3 0.4-106.3 0.4-106.3l60.4 14.5c29.2 54.2-42 111.7-33.5 139.5 8.5 27.7 43.2-18.1 44-46zm51.4 159.5c-2.1 22.3 1.8 54.4 24.2 23.3 22.3-31-22.6-40.2-24.2-23.3zm-52.8-24.5c0.4 14.1 13.5 15.1 27.8-5.8 14.4-20.9-28.7-26.6-27.8 5.8zm-50.6-55.8c7.2 13.9 12.9 11.2 20-0.6 7-11.8-27.2-13.3-20 0.6z"/><path class="g" d="m33.8 995.8v12.1c0 2.1 1.6 4.1 4.5 5.4l2.9 1.4c2.3 1.1 1.8 3.1-0.9 3.9-1.9 0.4-2.2 1.8-0.7 2.5l3.6 1.8c2.4 1.1 2.4 3.1 0 4.3l-2.6 1.2c-2.2 1.1-2.1 3 0.2 4.1l2.7 1.2c2 0.9 2.3 2.4 0.8 3.5l-1.6 1.1c-1.1 0.8-1.6 1.8-1.6 2.7v19.2h376.9v-65.6z"/><path class="h" d="m33.8 1059.9v44.5c0 7.7 1.6 15 4.5 20l2.9 4.9c2.3 4.1 1.8 11.6-0.9 14.3-1.9 1.8-2.2 6.8-0.7 9.5l3.6 6.4c2.4 4.2 2.4 11.6 0 15.8l-2.6 4.7c-2.2 4-2.1 11 0.2 14.8l2.7 4.7c2 3.2 2.3 8.8 0.8 12.8l-1.6 4.1c-1.1 2.8-1.6 6.4-1.6 10v70.4h376.9v-241.2z"/><path class="i" d="m432.1 1066h-399.5c-3.2 0-5.8-2.6-5.8-5.8 0-3.3 2.6-5.9 5.8-5.9h399.5c3.3 0 5.9 2.6 5.9 5.9 0 3.2-2.6 5.8-5.9 5.8z"/><path class="j" d="m432.1 1301.9h-399.5c-3.2 0-5.8-2.6-5.8-5.8 0-3.2 2.6-5.8 5.8-5.8h399.5c3.3 0 5.9 2.6 5.9 5.8 0 3.2-2.6 5.8-5.9 5.8z"/><path class="k" d="m33.8 876v22.3c0 3.8 1.6 7.4 4.5 9.9l2.9 2.5c2.3 2 1.8 5.8-0.9 7.2-1.9 0.9-2.2 3.3-0.7 4.7l3.6 3.2c2.4 2.1 2.4 5.8 0 7.9l-2.6 2.3c-2.2 2-2.1 5.6 0.2 7.5l2.7 2.3c2 1.6 2.3 4.4 0.8 6.4l-1.6 2c-1.1 1.5-1.6 3.2-1.6 5.1v35.2h376.9v-120.6z"/><path class="l" d="m424.8 877.8h-399.5c-3.2 0-5.8-2.6-5.8-5.8 0-3.2 2.6-5.8 5.8-5.8h399.5c3.2 0 5.8 2.6 5.8 5.8 0 3.2-2.6 5.8-5.8 5.8z"/><path class="m" d="m432.1 1001.4h-399.5c-3.2 0-5.8-2.6-5.8-5.8 0-3.2 2.6-5.8 5.8-5.8h399.5c3.3 0 5.9 2.6 5.9 5.8 0 3.2-2.6 5.8-5.9 5.8z"/><path class="n" d="m404.9 901.8h-357.9c-0.8 0-1.4-0.6-1.4-1.4 0-0.8 0.6-1.4 1.4-1.4h357.9c0.8 0 1.4 0.6 1.4 1.4 0 0.8-0.6 1.4-1.4 1.4z"/><path class="n" d="m404.9 922.8h-349.4c-0.8 0-1.5-0.7-1.5-1.4 0-0.8 0.7-1.4 1.5-1.4h349.4c0.8 0 1.4 0.6 1.4 1.4 0 0.7-0.6 1.4-1.4 1.4z"/><path class="n" d="m404.9 938.2h-345.1c-0.8 0-1.4-0.6-1.4-1.4 0-0.8 0.6-1.4 1.4-1.4h345.1c0.8 0 1.4 0.6 1.4 1.4 0 0.8-0.6 1.4-1.4 1.4z"/><path class="o" d="m216 1110.5h441.3v-127.9h-441.3c9.5 0 9.5 127.9 0 127.9z"/><path class="p" d="m657.3 1078.5v-58.5c0-20.7-8.7-37.4-19.4-37.4h-420c-8.5 0-15.3-9.9-15.3-22.2 0-3.7 2-6.7 4.6-6.7h459c10.6 0 27.3 24 27.3 53.5v81.8c0 27.8-16.3 50.4-26.2 50.4h-457.7c-3.9 0-7-4.5-7-10.2 0-10.3 5.7-18.7 12.9-18.7h425.2c9.2 0 16.6-14.3 16.6-32z"/><path class="q" d="m645.1 1010.3h-413.8c-0.8 0-1.4-0.7-1.4-1.4 0-0.8 0.6-1.4 1.4-1.4h413.8c0.8 0 1.4 0.6 1.4 1.4 0 0.7-0.6 1.4-1.4 1.4z"/><path class="q" d="m645.1 1029.3h-413.8c-0.8 0-1.4-0.7-1.4-1.5 0-0.7 0.6-1.4 1.4-1.4h413.8c0.8 0 1.4 0.7 1.4 1.4 0 0.8-0.6 1.5-1.4 1.5z"/><path class="q" d="m645.1 1048.2h-413.8c-0.8 0-1.4-0.6-1.4-1.4 0-0.7 0.6-1.4 1.4-1.4h413.8c0.8 0 1.4 0.7 1.4 1.4 0 0.8-0.6 1.4-1.4 1.4z"/><path class="q" d="m645.1 1067.2h-413.8c-0.8 0-1.4-0.6-1.4-1.4 0-0.8 0.6-1.4 1.4-1.4h413.8c0.8 0 1.4 0.6 1.4 1.4 0 0.8-0.6 1.4-1.4 1.4z"/><path class="q" d="m645.1 1086.2h-413.8c-0.8 0-1.4-0.6-1.4-1.4 0-0.8 0.6-1.4 1.4-1.4h413.8c0.8 0 1.4 0.6 1.4 1.4 0 0.8-0.6 1.4-1.4 1.4z"/><path class="r" d="m682.4 1309h-464c-11.1 0-20.1-9-20.1-20.1v-129.4c0-11.1 9-20.1 20.1-20.1h464c11.1 0 20.1 9 20.1 20.1v129.4c0 11.1-9 20.1-20.1 20.1z"/><path class="s" d="m307.3 1289.5h-44.8c-4 0-7.2-3.2-7.2-7.2v-116.1c0-4 3.2-7.3 7.2-7.3h44.8c4 0 7.2 3.3 7.2 7.3v116.1c0 4-3.2 7.2-7.2 7.2z"/><path class="t" d="m701.9 817.5h-452.3c-11.1 0-20.1-9-20.1-20.1v-59.8c0-11.1 9-20.1 20.1-20.1h452.3c11.1 0 20.1 9 20.1 20.1v59.8c0 11.1-9 20.1-20.1 20.1z"/><path class="s" d="m335.8 806h-43.4c-4 0-7.2-3.2-7.2-7.2v-62.6c0-4 3.2-7.2 7.2-7.2h43.4c4 0 7.2 3.2 7.2 7.2v62.6c0 4-3.2 7.2-7.2 7.2z"/><path class="u" d="m681.6 955.2h-464c-11.1 0-20.1-9-20.1-20.1v-98.1c0-11.1 9-20.1 20.1-20.1h464c11.1 0 20.1 9 20.1 20.1v98.1c0 11.1-9 20.1-20.1 20.1z"/><path class="v" d="m870.4 464.1v-240.4c0-5.4 3.4-10.3 8.6-12.1q39.4-13.4 78.8 3.7c5.7 2.5 9.2 8.2 8.8 14.3l-16 233.9z"/><path class="w" d="m885.5 233.8v58.6c0 4.7 3.7 8.6 8.4 8.9l42.6 2.5c4.8 0.3 8.9-3.2 9.4-8l6.3-60.2c0.5-4.9-3.1-9.3-7.9-9.8-12.7-1.4-36.1-3.4-51.3-0.8-4.3 0.7-7.5 4.4-7.5 8.8z"/><path class="x" d="m969.7 236.9l-14.2 226.6h85v-220.3c0-6.3-4.1-11.9-10.1-14-11.2-3.8-30.3-8.6-49.1-5.3-6.4 1.1-11.2 6.5-11.6 13z"/><path class="y" d="m969.9 379.6l-2.8 63.2c-0.3 5.2 3.9 9.6 9.1 9.6h43c5 0 9.2-4.1 9.2-9.2v-63.2c0-5.1-4.2-9.2-9.2-9.2h-40.1c-4.9 0-8.9 3.9-9.2 8.8z"/><path class="z" d="m1122.3 463.5v-234.3c0-5.8-3.8-11-9.4-12.7-25-7.7-46.8-3.4-58.2 0.2-5.1 1.5-8.5 6.2-8.5 11.5v235.3z"/><path class="A" d="m1053.7 233.2l1.9 34.5c0.2 4.3 3.8 7.7 8.1 7.7h40.7c4.4 0 8-3.5 8.1-7.8l1.1-34.2c0.2-3.9-2.5-7.3-6.3-8.2-9.9-2.1-29.4-5-47.4-0.4-3.8 1-6.4 4.5-6.2 8.4z"/><path class="B" d="m1056.9 290.3c0.3 4.3 3.8 7.6 8.1 7.6h39c4.5 0 8.2-3.7 8.1-8.3-0.1-4.4-3.7-7.9-8.1-7.9h-39c-4.7 0-8.4 3.9-8.1 8.6z"/><path class="C" d="m1387 236.9c0 0-6.9-43.2 14.3-57.1 0.9-0.6 2.2 0.1 2.2 1.2v8.2c0 2 2.3 3 3.7 1.6 4.6-4.3 12.8-10.8 21.4-12.1 2.3-0.4 4.1 1.9 3.1 4-5.3 11.3-19.2 43.1-18.6 64z"/><path class="D" d="m1364.6 236.9l-14.2 226.6h84.9v-220.3c0-6.3-4-11.9-10-14-11.3-3.8-30.4-8.6-49.1-5.3-6.4 1.1-11.2 6.5-11.6 13z"/><path class="y" d="m1364.8 379.6l-2.9 63.2c-0.2 5.2 3.9 9.6 9.2 9.6h42.9c5.1 0 9.2-4.1 9.2-9.2v-63.2c0-5.1-4.1-9.2-9.2-9.2h-40c-5 0-9 3.9-9.2 8.8z"/><path class="E" d="m808.9 223.9c-6.4 1.1-11.2 6.5-11.6 13l-14.1 226.6h84.9v-220.3c0-6.3-4-11.9-10-14-11.3-3.8-30.4-8.6-49.2-5.3z"/><path class="F" d="m797.6 379.6l-2.9 63.2c-0.3 5.2 3.9 9.6 9.2 9.6h42.9c5.1 0 9.2-4.1 9.2-9.2v-63.2c0-5.1-4.1-9.2-9.2-9.2h-40.1c-4.9 0-8.9 3.9-9.1 8.8z"/><path class="G" d="m1517.1 463.5v-234.3c0-5.8-3.8-11-9.4-12.7-25-7.7-46.7-3.4-58.2 0.2-5 1.5-8.5 6.2-8.5 11.5v235.3z"/><path class="H" d="m1448.6 233.2l1.8 34.5c0.2 4.3 3.8 7.7 8.1 7.7h40.8c4.3 0 7.9-3.5 8.1-7.8l1.1-34.2c0.1-3.9-2.6-7.3-6.4-8.2-9.9-2.1-29.4-5-47.4-0.4-3.8 1-6.3 4.5-6.1 8.4z"/><path class="I" d="m1451.7 290.3c0.3 4.3 3.9 7.6 8.1 7.6h39c4.6 0 8.2-3.7 8.2-8.3-0.1-4.4-3.7-7.9-8.2-7.9h-39c-4.7 0-8.4 3.9-8.1 8.6z"/><path class="J" d="m1128.6 230.8l-3 233.8h135.8l-10.1-227.6c-0.3-6.5-4.6-12.3-10.8-14.5-16.9-6-53.6-14.8-103.4-2.4-5 1.2-8.5 5.6-8.5 10.7z"/><path class="K" d="m1258.2 235.8l9.4 227.5h80.5l6.1-230.1c0.1-6.3-3.9-12-10-13.8-26.1-7.9-52.1-8.7-77.8 3.1-5.2 2.3-8.5 7.6-8.2 13.3z"/><path class="s" d="m1265.5 244.3l1 12.4c0.2 3.7 3.5 6.6 7.2 6.3l65.8-3.8c3.4-0.2 6.2-2.9 6.5-6.4l0.6-8.5c0.3-4-2.9-7.4-6.9-7.4h-67.3c-4 0-7.2 3.4-6.9 7.4z"/><path class="s" d="m1268.2 273.9v4.5c0 3.5 2.9 6.3 6.4 6.1l63-2.6c3.3-0.1 5.9-2.8 5.9-6.1v-4.8c0-3.5-3-6.3-6.5-6.1l-62.9 2.9c-3.3 0.1-5.9 2.8-5.9 6.1z"/><path class="L" d="m1740.1 1215.6v-229.8c0-5.2-3.3-9.9-8.2-11.6q-37.7-12.8-75.4 3.6c-5.4 2.3-8.8 7.8-8.4 13.6l15.3 223.7z"/><path class="y" d="m1725.7 995.5v55.9c0 4.6-3.6 8.3-8.1 8.6l-40.7 2.4c-4.6 0.3-8.5-3.1-9-7.6l-6-57.6c-0.5-4.7 2.9-8.9 7.6-9.4 12-1.4 34.4-3.3 49-0.8 4.1 0.7 7.2 4.3 7.2 8.5z"/><path class="M" d="m1645.1 998.4l13.6 216.7h-81.2v-210.7c0-6 3.8-11.4 9.6-13.3 10.7-3.7 29-8.3 46.9-5.1 6.2 1.1 10.8 6.2 11.1 12.4z"/><path class="N" d="m1644.9 1134.9l2.8 60.4c0.2 5-3.8 9.2-8.8 9.2h-41c-4.9 0-8.8-3.9-8.8-8.8v-60.4c0-4.9 3.9-8.8 8.8-8.8h38.2c4.7 0 8.6 3.7 8.8 8.4z"/><path class="O" d="m1499.3 1215.1v-224c0-5.6 3.6-10.6 8.9-12.2 23.9-7.3 44.8-3.2 55.7 0.2 4.8 1.5 8.1 5.9 8.1 11v225z"/><path class="P" d="m1564.8 994.8l-1.8 33.1c-0.2 4.1-3.6 7.4-7.7 7.4h-39c-4.2 0-7.6-3.4-7.7-7.6l-1.1-32.6c-0.1-3.7 2.5-7 6.1-7.8 9.5-2.1 28.1-4.9 45.3-0.4 3.6 0.9 6.1 4.2 5.9 7.9z"/><path class="Q" d="m1561.8 1049.5c-0.3 4.1-3.7 7.2-7.8 7.2h-37.3c-4.3 0-7.8-3.5-7.7-7.9 0.1-4.2 3.5-7.6 7.7-7.6h37.3c4.5 0 8.1 3.8 7.8 8.3z"/><path class="R" d="m1246.1 998.4c0 0 6.6-41.2-13.6-54.6-0.9-0.6-2.1 0.1-2.1 1.2v7.8c0 1.9-2.3 2.9-3.6 1.6-4.4-4.1-12.2-10.4-20.4-11.7-2.3-0.3-4 1.9-3 3.9 5 10.8 18.3 41.2 17.8 61.2z"/><path class="S" d="m1267.6 998.4l13.6 216.7h-81.3v-210.7c0-6 3.9-11.4 9.6-13.3 10.8-3.7 29.1-8.3 47-5.1 6.1 1.1 10.7 6.2 11.1 12.4z"/><path class="T" d="m1267.4 1134.9l2.7 60.4c0.3 5-3.7 9.2-8.7 9.2h-41.1c-4.8 0-8.8-3.9-8.8-8.8v-60.4c0-4.9 4-8.8 8.8-8.8h38.3c4.7 0 8.6 3.7 8.8 8.4z"/><path class="U" d="m1798.9 986c6.1 1.1 10.7 6.2 11.1 12.4l13.5 216.7h-81.2v-210.7c0-6 3.9-11.4 9.6-13.3 10.7-3.7 29-8.3 47-5.1z"/><path class="V" d="m1809.8 1134.9l2.7 60.4c0.2 5-3.8 9.2-8.8 9.2h-41c-4.9 0-8.8-3.9-8.8-8.8v-60.4c0-4.9 3.9-8.8 8.8-8.8h38.3c4.7 0 8.5 3.7 8.8 8.4z"/><path class="W" d="m1121.7 1215.1v-224c0-5.6 3.6-10.6 9-12.2 23.9-7.3 44.7-3.2 55.6 0.2 4.9 1.5 8.2 5.9 8.2 11v225z"/><path class="X" d="m1187.3 994.8l-1.8 33.1c-0.2 4.1-3.6 7.4-7.7 7.4h-39c-4.2 0-7.6-3.4-7.8-7.6l-1-32.6c-0.1-3.7 2.4-7 6.1-7.8 9.4-2.1 28.1-4.9 45.3-0.4 3.6 0.9 6.1 4.2 5.9 7.9z"/><path class="Y" d="m1184.2 1049.5c-0.2 4.1-3.6 7.2-7.7 7.2h-37.3c-4.3 0-7.8-3.5-7.8-7.9 0.1-4.2 3.6-7.6 7.8-7.6h37.3c4.5 0 8.1 3.8 7.7 8.3z"/><path class="Z" d="m1493.2 992.6l2.9 223.6h-129.9l9.7-217.6c0.3-6.3 4.4-11.8 10.3-13.9 16.1-5.8 51.3-14.2 98.9-2.4 4.7 1.2 8.1 5.4 8.1 10.3z"/><path class="a0" d="m1369.3 997.3l-9 217.6h-76.9l-5.9-220c-0.1-6 3.7-11.5 9.5-13.2 25.1-7.6 49.9-8.3 74.5 2.9 4.9 2.3 8 7.3 7.8 12.7z"/><path class="y" d="m1362.3 1005.5l-0.9 11.8c-0.3 3.6-3.4 6.3-7 6.1l-62.8-3.6c-3.3-0.2-6-2.8-6.2-6.1l-0.6-8.2c-0.3-3.8 2.7-7.1 6.5-7.1h64.4c3.9 0 6.9 3.3 6.6 7.1z"/><path class="y" d="m1359.7 1033.8v4.3c0 3.3-2.8 6-6.1 5.9l-60.2-2.6c-3.1-0.1-5.6-2.7-5.6-5.8v-4.6c0-3.3 2.8-6 6.1-5.9l60.2 2.8c3.2 0.2 5.6 2.7 5.6 5.9z"/><path class="a1" d="m1037.2 1212.6v-229.8c0-5.2-3.3-9.9-8.2-11.5q-37.7-12.9-75.4 3.5c-5.4 2.4-8.8 7.8-8.4 13.7l15.3 223.6z"/><path class="y" d="m1022.8 992.5v56c0 4.5-3.6 8.3-8.1 8.5l-40.7 2.4c-4.6 0.3-8.5-3.1-9-7.6l-6-57.6c-0.5-4.7 2.9-8.9 7.6-9.4 12.1-1.3 34.4-3.2 49-0.8 4.2 0.7 7.2 4.3 7.2 8.5z"/><path class="a2" d="m942.3 995.4l13.5 216.7h-81.2v-210.6c0-6.1 3.8-11.5 9.6-13.4 10.7-3.7 29-8.3 47-5.1 6.1 1.1 10.7 6.2 11.1 12.4z"/><path class="s" d="m942 1131.9l2.8 60.4c0.2 5-3.8 9.2-8.8 9.2h-41c-4.9 0-8.8-3.9-8.8-8.8v-60.4c0-4.9 3.9-8.8 8.8-8.8h38.3c4.7 0 8.5 3.7 8.7 8.4z"/><path class="a3" d="m796.4 1212.1v-224c0-5.6 3.6-10.6 8.9-12.2 24-7.3 44.8-3.2 55.7 0.2 4.8 1.5 8.1 6 8.1 11v225z"/><path class="a4" d="m861.9 991.9l-1.7 33c-0.3 4.1-3.7 7.4-7.8 7.4h-39c-4.1 0-7.6-3.3-7.7-7.5l-1.1-32.7c-0.1-3.7 2.5-7 6.1-7.8 9.5-2 28.1-4.9 45.3-0.4 3.6 0.9 6.1 4.2 5.9 8z"/><path class="a5" d="m858.9 1046.5c-0.3 4.1-3.7 7.3-7.8 7.3h-37.2c-4.4 0-7.9-3.6-7.8-8 0.1-4.2 3.5-7.6 7.8-7.6h37.2c4.5 0 8.1 3.8 7.8 8.3z"/><path class="a6" d="m1096 983c6.1 1.1 10.7 6.2 11.1 12.4l13.5 216.7h-81.2v-210.6c0-6.1 3.9-11.5 9.6-13.4 10.8-3.7 29-8.3 47-5.1z"/><path class="a7" d="m1106.9 1131.9l2.7 60.4c0.2 5-3.8 9.2-8.8 9.2h-41c-4.9 0-8.8-3.9-8.8-8.8v-60.4c0-4.9 3.9-8.8 8.8-8.8h38.3c4.7 0 8.5 3.7 8.8 8.4z"/><path class="a8" d="m1843.5 645.1l-14.1 226.6h84.9v-220.3c0-6.3-4-11.9-10-14-11.3-3.8-30.4-8.6-49.2-5.3-6.4 1.2-11.2 6.5-11.6 13z"/><path class="y" d="m1846.7 787.8l-2.9 63.2c-0.2 5.3 4 9.6 9.2 9.6h42.9c5.1 0 9.2-4.1 9.2-9.2v-63.2c0-5-4.1-9.2-9.2-9.2h-40c-4.9 0-9 3.9-9.2 8.8z"/><path class="a9" d="m1384.4 639l-3 233.8h135.8l-10.1-227.5c-0.3-6.6-4.6-12.3-10.8-14.5-16.8-6.1-53.6-14.9-103.4-2.5-4.9 1.2-8.4 5.6-8.5 10.7z"/><path class="aa" d="m1514 644l9.4 227.5h80.5l6.1-230c0.1-6.4-3.9-12.1-10-13.9-26.1-7.9-52.1-8.6-77.8 3.1-5.2 2.4-8.5 7.6-8.2 13.3z"/><path class="y" d="m1521.3 652.5l1 12.4c0.3 3.8 3.5 6.6 7.3 6.4l65.7-3.9c3.4-0.2 6.2-2.9 6.5-6.3l0.6-8.6c0.3-4-2.9-7.4-6.9-7.4h-67.3c-4 0-7.2 3.4-6.9 7.4z"/><path class="y" d="m1524 682.1v4.5c0 3.5 2.9 6.3 6.4 6.1l63-2.6c3.3-0.1 5.9-2.8 5.9-6.1v-4.8c0-3.5-3-6.3-6.4-6.1l-63 2.9c-3.3 0.1-5.9 2.8-5.9 6.1z"/><path class="ab" d="m1050.4 602c0 0-7.2-45 14.9-59.6 1-0.6 2.3 0.1 2.3 1.3v8.5c0 2.1 2.4 3.1 3.9 1.7 4.8-4.5 13.3-11.3 22.3-12.7 2.4-0.4 4.3 2 3.3 4.2-5.6 11.9-20.1 45.1-19.5 66.8z"/><path class="ac" d="m1026.9 602l-14.8 269h88.7v-262.4c0-6.6-4.2-12.5-10.5-14.6-11.7-4-31.6-9-51.2-5.5-6.7 1.1-11.7 6.7-12.2 13.5z"/><path class="ad" d="m1027.2 751l-3 98.4c-0.3 5.4 4.1 10 9.6 10h44.8c5.3 0 9.6-4.3 9.6-9.6v-98.4c0-5.3-4.3-9.6-9.6-9.6h-41.8c-5.2 0-9.4 4.1-9.6 9.2z"/><path class="ae" d="m1186.2 871v-277c0-6.1-4-11.5-9.8-13.3-26.1-8-48.8-3.5-60.7 0.2-5.3 1.6-8.9 6.5-8.9 12v278.1z"/><path class="y" d="m1114.6 598.1l2 36.1c0.2 4.5 3.9 8 8.4 8h42.6c4.5 0 8.3-3.6 8.4-8.2l1.2-35.6c0.1-4.1-2.7-7.7-6.7-8.5-10.3-2.3-30.6-5.3-49.4-0.5-4 1-6.7 4.6-6.5 8.7z"/><path class="y" d="m1117.9 657.8c0.3 4.4 4 7.9 8.5 7.9h40.7c4.8 0 8.6-3.9 8.5-8.7-0.1-4.6-3.9-8.3-8.5-8.3h-40.7c-4.9 0-8.8 4.2-8.5 9.1z"/><path class="af" d="m780.6 594.5l-3.1 276.5h141.8l-10.6-270c-0.3-6.9-4.8-12.8-11.2-15.1-17.6-6.3-56-15.6-108-2.6-5.2 1.3-8.8 5.9-8.9 11.2z"/><path class="ag" d="m915.9 601.1l9.8 269.9h84l6.4-272.6c0.2-6.6-4-12.5-10.4-14.4-27.3-8.2-54.4-9-81.2 3.2-5.4 2.5-8.8 7.9-8.6 13.9z"/><path class="ah" d="m923.6 610l1 12.9c0.3 3.9 3.6 6.9 7.6 6.6l68.6-4c3.6-0.2 6.5-3 6.7-6.6l0.7-8.9c0.3-4.2-3-7.8-7.2-7.8h-70.3c-4.2 0-7.5 3.6-7.1 7.8z"/><path class="ai" d="m932.5 634.5c-3.4 0.1-6.1 2.9-6.1 6.4v4.7c0 3.6 3 6.5 6.7 6.4l65.7-2.8c3.4-0.1 6.1-2.9 6.1-6.4v-5c0-3.6-3-6.5-6.7-6.4z"/><path class="aj" d="m1192.2 871v-283.3c0-5.7 3.6-10.8 8.9-12.6q41.2-14.1 82.3 3.8c5.9 2.6 9.6 8.5 9.2 15l-16.7 276.5z"/><path class="ak" d="m1207.9 598.2v61.1c0 5 3.9 9.1 8.8 9.4l44.4 2.6c5 0.3 9.4-3.4 9.9-8.3l6.5-62.9c0.5-5.1-3.1-9.7-8.2-10.2-13.2-1.5-37.6-3.6-53.6-0.9-4.5 0.8-7.8 4.7-7.8 9.2z"/><path class="al" d="m1295.8 602l-14.8 269h88.7v-262.4c0-6.6-4.2-12.5-10.5-14.6-11.7-4-31.7-9-51.3-5.5-6.6 1.1-11.6 6.7-12.1 13.5z"/><path class="y" d="m1306.5 614.2l-2.5 81.6c-0.2 4.5 3.4 8.3 8 8.3h37.1c4.4 0 7.9-3.6 7.9-8v-81.5c0-4.4-3.5-8-7.9-8h-34.7c-4.2 0-7.7 3.4-7.9 7.6z"/><path class="am" d="m1945.2 938.3h-1220.5v-67.3h1220.5z"/><path class="an" d="m1935.6 1279.6h-1220.5v-67.4h1220.5z"/><path class="ao" d="m1922.7 526h-1186.3v-67.4h1186.3z"/><path class="ap" d="m736.4 1313.6h-63.9v-1135h63.9z"/><path class="aq" d="m1977.2 1316.4h-64v-1134.9h64z"/><path class="ar" d="m1394.6 1405c8.6 0.7 23.5 1.9 35.2 2.4 7 0.3 11.1-0.4 13.4-1.3q0 0.4 0 0.7c0 1.3-1 2.3-2.3 2.3-22.2 1.3-39.8 0.5-46.1 0.1-1.3-0.1-2-1.5-1.4-2.6q0.5-0.8 1.2-1.6z"/><path class="as" d="m1429.8 1407.4c-11.7-0.5-26.6-1.7-35.2-2.4 8.4-10.4 35.2-17.4 35.2-17.4h7.6c5.2 7.5 5.9 14.7 5.8 18.5-2.3 0.9-6.4 1.6-13.4 1.3z"/><path class="at" d="m1438.6 1375.3l-0.7 14c-0.1 1.5-1.2 2.8-2.7 3-1.5 0.2-3.5 0.2-5.7-0.5-1.3-0.4-2.3-1.5-2.5-2.9l-2.5-13.6z"/><path class="au" d="m1536.8 1407.3c3.7-0.5 5.4-2.4 6.1-4.5q0 0 0 0.1c0.6 2.1-0.7 4.4-3.2 5.5-3.1 1.3-6.5 1.5-9.1 1.4-2.7-0.1-5.3-1.3-6.7-3.1v-0.1c2.8 1.4 6.7 1.6 12.9 0.7z"/><path class="av" d="m1519.3 1375.2h6.2c9.5-0.2 15.5 19.8 17.4 27.6-0.7 2.1-2.4 4-6.1 4.5-6.2 0.9-10.1 0.7-12.9-0.7-5.2-6.7-7.7-16.6-8.9-22.4-1.4-6.5 4.3-9 4.3-9z"/><path class="aw" d="m1524.7 1362.2l3.5 13.8c0.4 1.7-0.4 3.4-2 4.2-1.9 1-4.6 2.1-7.2 1.8-1.1-0.2-2.1-1-2.5-2.1l-5.1-14.5z"/><path class="ax" d="m1528.8 1366.2c-4.3 3.8-18.3 4.3-18.3 4.3-50.4-121.1-71.1-138.3-71.1-138.3 7.3 45.7 1.2 146.9 1.2 146.9-8.3 3.7-19.1 0-19.1 0-0.6-74.8-12.1-140.1-25.7-191.5 34.1-0.8 52.2-12.5 58.1-17.1 28.5 45.8 74.9 195.7 74.9 195.7z"/><path class="ay" d="m1445.3 1031.2c6.4 32.2 4.1 89.8 2.6 116.1-0.4 7.4 4.7 17.6 8.9 24.6 0.6 1.1 0.2 2.5-0.9 3.1-7 3.6-30.6 14.7-58 16.1-1.9 0.1-3.5-1.2-4-2.9-20.3-75.9-43.9-124.4-43.9-124.4 26.1-41.7 95.3-32.6 95.3-32.6z"/><path class="az" d="m1436 1229.4q0.4 0 0.8-0.3c0.8-0.5 1-1.4 0.6-2.2-0.3-0.5-6.8-11-20.1-17.4-0.8-0.4-1.7 0-2.1 0.8-0.4 0.8-0.1 1.8 0.7 2.1 12.4 6 18.6 16.1 18.7 16.2 0.3 0.5 0.8 0.8 1.4 0.8z"/><path class="aA" d="m1485.8 1123.6c-2.1 15-8.2 31.4-20.5 48.7l-4.7-3.8c0 0 5.4-21.8 2.4-46.5 7.5-1.5 16.4 0 22.8 1.6z"/><path class="aB" d="m1438.1 1070.9l7.2-39.7c0 0 48.1 36.8 40.5 92.4-6.4-1.6-15.3-3.1-22.8-1.6-2.2-17.9-8.8-37.2-24.9-51.1z"/><path class="aC" d="m1350 1063.8l18.6 40c-3 24.2-16 34.6-30 38.7-0.9-11.1-3.7-20-6.2-26.1 17.9-18.5 17.6-52.6 17.6-52.6z"/><path class="aD" d="m1332.4 1116.4c2.5 6.1 5.3 15 6.2 26.1-37.4 14.5-47.2-13.7-47.2-13.7l6.9-1.2c15.6 1.7 26.4-3.4 34.1-11.2z"/><path class="aE" d="m1367.1 1014.3l9 33c1 3.7 5 5.7 8.6 4.3 3.8-1.5 8.7-3.6 12.9-5.9 4.5-2.4 5.9-8.2 3.1-12.4l-18.7-27.9z"/><path class="aF" d="m1274.2 1106.8l230.1 83.7c9.6 3.5 14.2 14.5 10 23.8l-0.7 1.6c-3.8 8.2-13.6 11.8-21.8 8l-223.4-103.3z"/><path fill-rule="evenodd" class="aG" d="m1168.5 932.3c69.8 0 126.4 55.6 126.4 124.1 0 68.5-56.6 124.1-126.4 124.1-69.8 0-126.3-55.6-126.3-124.1 0-68.5 56.5-124.1 126.3-124.1zm0 229.9c59.5 0 107.8-47.3 107.8-105.8 0-58.5-48.3-105.8-107.8-105.8-59.5 0-107.8 47.3-107.8 105.8 0 58.5 48.3 105.8 107.8 105.8z"/><path class="q" d="m1285.3 1071.6q-0.1 0-0.1 0c-0.4 0-0.7-0.4-0.7-0.8 0.4-2.9 0.7-5.8 0.8-8.7 0-0.4 0.4-0.7 0.8-0.7 0.4 0 0.7 0.3 0.6 0.7-0.1 3-0.4 6-0.7 8.9-0.1 0.4-0.4 0.6-0.7 0.6zm-0.9-34.7c-0.4 0-0.7-0.2-0.7-0.5-1.4-7.9-3.7-15.7-6.7-23.1q0 0 0 0c-18-43.6-60.6-71.7-108.5-71.7-22.3 0-44.1 6.2-62.8 17.9-0.3 0.2-0.8 0.1-1-0.2-0.2-0.3-0.1-0.8 0.2-1 19-11.9 41-18.1 63.6-18.1 48.5 0 91.6 28.5 109.8 72.6 3.1 7.5 5.4 15.3 6.8 23.3 0.1 0.4-0.2 0.8-0.6 0.8q-0.1 0-0.1 0z"/><path class="aH" d="m1347.5 989.3c-0.1 0.5 7.5 37.6 7.5 37.6l21.1-4.8-2-36.2c0 0-25.2-6.1-26.6 3.4z"/><path class="aI" d="m1369.4 994l2.5 19q0 0.4 0 0.7c-0.2 1.5-1.3 6.6-6.4 5.1-4.7-1.3-8.9-2.4-11.9-1.5-1.3 0.4-2.1 1.7-1.8 3.1 0.7 3.3 2.4 10.9 4.8 17.2 0.5 1.3 2 2 3.3 1.6 4-1.1 12.3-3.8 18.6-7.6 0.8-0.5 1.3-1.4 1.3-2.4-0.2-4.8-0.8-19.4-0.3-23.4 0.4-3.9 5.1-6.2 7.2-7 0.6-0.3 1.2-0.8 1.4-1.5 1-2.3 2.3-7.8-4.6-10.1-1.5-0.4-2.2-2-1.7-3.4 1-2.9 1.4-7.2-3.9-9.6-5.5-2.5-9.5 0.4-11.7 2.8-0.9 0.9-2.3 1.1-3.4 0.4-0.7-0.4-1.5-0.5-2.4 0.1-1.3 0.8-3.1 0.2-3.8-1.2-1.3-2.6-3.9-5.5-9.2-4.6-9.5 1.6-10.6 12.1-8.1 18.2 2.5 6.2 12.7 3.8 17.8 0.7 3.8-2.3 8.8 0.2 11 1.5 0.7 0.4 1.2 1.1 1.3 1.9z"/><path class="aJ" d="m1380.3 1012.7c0 0-3.9-10.9 0.1-13.6 4-2.6 9.9-1.2 8.6 6.6-1.6 9.8-8.7 7-8.7 7z"/><path class="aK" d="m1462.6 1167.9l-21.8-1.8-9.4 8.7c0 0 2.2 3.1 9.2 1.3 7-1.8 16.5-2.2 16.5-2.2 0 0 9.6 4.3 9.7-3.8z"/><path class="aL" d="m1294.1 1134c-1.9 1.5-8.3-1.6-12.2-3.7-2-1.1-2.9-3.3-2.2-5.4 0.9-3 2.5-6.8 4.4-7.3 3.3-0.8 17.8 10.3 10 16.4z"/><path class="q" d="m1499.7 1220.6c-0.3 0-0.6-0.2-0.7-0.5-0.1-0.4 0.1-0.8 0.5-0.9 6.5-2.3 10-5.9 10.2-10.9 0.2-5.1-3-9.8-8-11.7l-27.6-10.8c-0.3-0.1-0.5-0.5-0.4-0.9 0.2-0.3 0.6-0.5 0.9-0.4l27.7 10.8c5.5 2.1 9 7.4 8.8 13-0.2 5.7-4 9.8-11.2 12.2q-0.1 0.1-0.2 0.1z"/><path class="q" d="m1465.9 1182.6q-0.2 0-0.3-0.1l-3.6-1.4c-0.3-0.1-0.5-0.5-0.4-0.9 0.2-0.4 0.6-0.5 1-0.4l3.5 1.4c0.4 0.1 0.6 0.6 0.4 0.9-0.1 0.3-0.3 0.5-0.6 0.5z"/><path class="aM" d="m1539.2 466.5l-40.3-388.9c-0.8-8.2 5.1-15.5 13.4-16.4 29-2.9 103.9-3.6 249.6 33.9l26.5 371.4z"/><path class="aN" d="m1563.6 466.5l-42.3-412c-0.7-6.6 4.4-12.5 11.2-12.7 40.5-1.4 169.7-1.1 229.4 53.3l26.5 371.4z"/><path class="aO" d="m1577.9 460.1c-5.3 0-9.7-4-10.3-9.3l-39.6-390.3c-0.7-6.4 4.2-12.1 10.7-12.3 38.1-1.3 158.2-1 216.8 48.7 2.1 1.8 3.5 4.4 3.7 7.2l24.3 344.9c0.5 6-4.3 11.1-10.3 11.1z"/><path class="aP" d="m1546.6 76.4l24.1 223c0.9 8.3 7.9 14.5 16.3 14.4l151.4-1.5c9.3-0.1 16.5-7.8 16-17l-10.2-186c-0.3-6.1-4-11.5-9.6-13.9-25.3-11.2-99.8-40.8-172.7-36.9-9.3 0.5-16.3 8.6-15.3 17.9z"/><path class="aQ" d="m1576.3 348.2l1.3 5.6c0.7 3.6 3.9 6.1 7.5 6.1l160.3-0.4c4.7 0 8.3-4.2 7.6-8.8l-1.2-7.6c-0.6-3.8-3.7-6.5-7.6-6.5l-160.4 2.2c-4.9 0.1-8.5 4.6-7.5 9.4z"/><path class="aR" d="m1580.7 389.7l0.8 7.7c0.4 4.1 3.9 7.1 8 7l156.5-6.4c4.6-0.2 8-4.2 7.4-8.7l-0.1-0.2c-0.5-3.8-3.7-6.5-7.5-6.6l-157.3-1.2c-4.6-0.1-8.2 3.9-7.8 8.4z"/><path class="aS" d="m1583.3 432.6l1 6.6c0.4 2.7 2.8 4.7 5.5 4.6l165.2-4.8c3.5-0.1 6-3.5 5.1-6.9l-3.1-11.5c-0.7-2.4-3-4.1-5.5-4l-161.5 7.9c-4.2 0.2-7.3 4-6.7 8.1z"/><path class="aT" d="m1770.2 94c0 0 109.2-79.9 251.3-42.3 8.5 2.2 14.5 9.9 14.7 18.6l10.8 396.2h-258.6z"/><path class="aU" d="m2013 47.9l17 418.6h-241.6l-26.5-371.4c0 0 115.6-79.2 230.4-69.1 11.4 1 20.3 10.5 20.7 21.9z"/><path class="aO" d="m2009.2 54.5l15.9 393.5c0.3 6.6-5 12.1-11.6 12.1h-210.6c-6.5 0-11.8-4.9-12.3-11.4l-24.8-348.5c0 0 112-76.8 223.3-67 11 1 19.6 10.2 20.1 21.3z"/><path class="aV" d="m1812.7 98c-12 3.7-19.8 15.2-18.7 27.7 4.5 51.2 15.7 179.4 20 220.9 0.8 7.5 7.3 13.1 14.8 12.9l156.1-5.5c9.2-0.3 16.4-8.1 16.1-17.2l-9.8-264c-0.3-8.4-7.2-15.2-15.6-15.3-25.2-0.3-120.4 27.7-162.9 40.5z"/><path class="aW" d="m1822.6 386.6h171c4.1 0 7.4 3.3 7.4 7.4v0.1c0 4.1-3.3 7.4-7.4 7.4h-171c-4.1 0-7.4-3.3-7.4-7.4v-0.1c0-4.1 3.3-7.4 7.4-7.4z"/><path class="aX" d="m1815.1 428.1l0.1 4.6c0.2 4 3.4 7.1 7.4 7.1l171.1 0.5c4.2 0 7.6-3.5 7.4-7.7-0.1-3.9-3.2-7-7.1-7.1l-171.3-5.1c-4.3-0.1-7.8 3.4-7.6 7.7z"/><path class="aY" d="m1633.8 1182.6c2.1 0 4.1-1.5 4.5-3.5l71.2-377c0.4-2.2-1.3-4.3-3.8-4.7-2.5-0.4-4.8 1.1-5.2 3.4l-71.3 377c-0.4 2.2 1.3 4.3 3.8 4.7q0.4 0.1 0.8 0.1z"/><path class="aZ" d="m1874 1182.6q0.5 0 0.9-0.1c2.5-0.5 4.1-2.6 3.6-4.8l-83.9-372.2c-0.5-2.2-2.9-3.6-5.4-3.2-2.5 0.5-4.1 2.6-3.6 4.9l83.9 372.1c0.5 1.9 2.4 3.3 4.5 3.3z"/><path class="b0" d="m1688.1 895.3h121.7c2.5 0 4.6-1.8 4.6-4.1 0-2.2-2.1-4.1-4.6-4.1h-121.7c-2.5 0-4.6 1.9-4.6 4.1 0 2.3 2.1 4.1 4.6 4.1z"/><path class="b1" d="m1690.3 895.3h117.3c2.4 0 4.4-1.8 4.4-4.1 0-2.2-2-4.1-4.4-4.1h-117.3c-2.4 0-4.4 1.9-4.4 4.1 0 2.3 2 4.1 4.4 4.1z"/><path class="b2" d="m1688.1 963.5h121.7c2.5 0 4.6-1.9 4.6-4.1 0-2.3-2.1-4.1-4.6-4.1h-121.7c-2.5 0-4.6 1.8-4.6 4.1 0 2.2 2.1 4.1 4.6 4.1z"/><path class="b3" d="m1677 963.5h147.6c2.5 0 4.6-1.9 4.6-4.1 0-2.3-2.1-4.1-4.6-4.1h-147.6c-2.5 0-4.5 1.8-4.5 4.1 0 2.2 2 4.1 4.5 4.1z"/><path class="b4" d="m1688.1 1031.6h121.7c2.5 0 4.6-1.8 4.6-4.1 0-2.2-2.1-4-4.6-4h-121.7c-2.5 0-4.6 1.8-4.6 4 0 2.3 2.1 4.1 4.6 4.1z"/><path class="b5" d="m1663 1031.6h176.6c2.5 0 4.6-1.8 4.6-4.1 0-2.2-2.1-4-4.6-4h-176.6c-2.6 0-4.6 1.8-4.6 4 0 2.3 2 4.1 4.6 4.1z"/><path class="b6" d="m1688.1 1099.8h165.7c2.5 0 4.6-1.8 4.6-4.1 0-2.2-2.1-4.1-4.6-4.1h-165.7c-2.5 0-4.6 1.9-4.6 4.1 0 2.3 2.1 4.1 4.6 4.1z"/><path class="b7" d="m1651.6 1099.8h202.2c2.5 0 4.6-1.8 4.6-4.1 0-2.2-2.1-4.1-4.6-4.1h-202.2c-2.6 0-4.6 1.9-4.6 4.1 0 2.3 2 4.1 4.6 4.1z"/><path class="b8" d="m1572.5 1245.3h319v-61.4h-319c6.9 0 6.9 61.4 0 61.4z"/><path class="b9" d="m1891.5 1230v-28.2c0-9.9-6.3-17.9-14.1-17.9h-303.5c-6.1 0-11.1-4.8-11.1-10.7 0-1.8 1.5-3.3 3.4-3.3h331.7c7.6 0 19.7 11.6 19.7 25.8v39.3c0 13.4-11.7 24.3-18.9 24.3h-330.8c-2.8 0-5.1-2.2-5.1-5 0-4.9 4.2-9 9.3-9h307.3c6.7 0 12.1-6.8 12.1-15.3z"/><path class="q" d="m1882.6 1197.4h-299c-0.5 0-1-0.4-1-0.9 0-0.6 0.5-1 1-1h299c0.6 0 1 0.4 1 1 0 0.5-0.4 0.9-1 0.9z"/><path class="q" d="m1882.6 1206.5h-299c-0.5 0-1-0.4-1-0.9 0-0.5 0.5-0.9 1-0.9h299c0.6 0 1 0.4 1 0.9 0 0.5-0.4 0.9-1 0.9z"/><path class="q" d="m1882.6 1215.7h-299c-0.5 0-1-0.4-1-1 0-0.5 0.5-0.9 1-0.9h299c0.6 0 1 0.4 1 0.9 0 0.6-0.4 1-1 1z"/><path class="q" d="m1882.6 1224.8h-299c-0.5 0-1-0.4-1-0.9 0-0.6 0.5-1 1-1h299c0.6 0 1 0.4 1 1 0 0.5-0.4 0.9-1 0.9z"/><path class="q" d="m1882.6 1233.9h-299c-0.5 0-1-0.4-1-0.9 0-0.5 0.5-1 1-1h299c0.6 0 1 0.5 1 1 0 0.5-0.4 0.9-1 0.9z"/><path class="ba" d="m1931.5 1361.4h-396.8c-8 0-14.4-6.5-14.4-14.5v-73.9c0-7.9 6.4-14.4 14.4-14.4h396.8c8 0 14.4 6.5 14.4 14.4v73.9c0 8-6.4 14.5-14.4 14.5z"/><path class="bb" d="m1913.2 1347h-40.3c-2.7 0-4.9-2.2-4.9-4.9v-69.4c0-2.7 2.2-4.9 4.9-4.9h40.3c2.7 0 4.8 2.2 4.8 4.9v69.4c0 2.7-2.1 4.9-4.8 4.9z"/><path class="bc" d="m1841 1349h-10.9c-2.1 0-3.9-1.8-3.9-4v-71.2c0-2.1 1.8-3.9 3.9-3.9h10.9c2.2 0 3.9 1.8 3.9 3.9v71.2c0 2.2-1.7 4-3.9 4z"/><path class="bd" d="m530.5 1014.8c-3.4-2.3-7.2-4.1-11.2-5.2-1.5-0.4-9.6 2-14.6 1.9-6.8-0.2-13.8-3.3-19.5-1.9-5.6 1.4-10.2 3.2-12.8 5.1-8 5.7-12.6 16.2-15.5 26.6 5.4 5.6 12.2 8 12.2 8l1.2 50.8 28.5 5.2 35.8-7.1-1.3-49.6c0 0 10.9-5 11.7-6.9 0.8-1.8-5-20.3-14.5-26.9z"/><path class="be" d="m544.5 1041.5c0 0 14.6 40.4-18.7 57-6.9-0.9-4.2-12.4-4.2-12.4 0 0 14.4-3.2 10.1-36.9 4-3.2 12.8-7.7 12.8-7.7z"/><path class="bf" d="m457.6 1041.5c0 0-10 42.2 18.7 57 6.9-0.9 4.2-12.4 4.2-12.4 0 0-11.6-5.7-10.1-36.9-4-3.2-12.8-7.7-12.8-7.7z"/><path class="bg" d="m519.3 1009.6c0 0-3 13.2-17.7 12.9-15-0.3-16.4-12.9-16.4-12.9l9.8-2.1 0.8-10.9 14.8 1.1 0.2 10.3z"/><path class="bh" d="m479.7 992.9c0 0-7.6-4-4.8-10.1 0 0-6-4-3.5-10.8 0 0-3.1-22 20.9-19.2 0 0 11.5-12.2 26.5 2 0 0 6.2-0.2 7.9 7.4 0 0 15 23-11.1 27.5z"/><path class="bi" d="m478.1 974.2c0 0-6.7 36.3 16.4 37.6 23.2 1.3 24.4-23.1 24.4-23.1 0 0 4.3-12.6-1.7-18-6-5.4-36.1-2.4-39.1 3.5z"/><path class="bj" d="m478.5 990.5c0 0-0.4-4.1-3.9-3.3-3.6 0.9 3.9 8.9 3.9 8.9z"/><path class="bk" d="m518.6 983.2c0 0-22.1 2.9-25.8-9.2 0 0-3.1 1.9-6-1.6 0 0-5.5 12.9-10.7 8.2 0 0-5.3-15.5 8.5-16.2 13.8-0.6 26.6-0.7 31.2 1.3 4.7 1.9 11.1 8.9 2.8 17.5z"/><path class="bl" d="m517.6 992.6l-1-11c0 0 5.2-6.2 6.7-0.6 1.5 5.5-3.1 11.1-5.7 11.6z"/><path class="q" d="m534.7 1049.7c-0.4-0.3-1.1-0.4-1.5-0.3l-32 9.1-31.5-9.1c-0.5-0.1-1.5 0-1.9 0.3-0.4 0.3-1.1 0.7-1.1 1.2v1.7l34.5 11.7 34.5-9.8v-3.6c0-0.5-0.6-0.9-1-1.2z"/><path class="bm" d="m500.6 1058.5l-32.9-7.8c-0.5-0.1-1 0-1.4 0.3-0.4 0.4-0.6 0.8-0.6 1.3l0.8 36.6c0 0.8 0.5 1.4 1.2 1.6l33.7 6.9z"/><path class="bn" d="m503.1 1058.5l32.9-7.8c0.5-0.1 1 0 1.4 0.3 0.4 0.4 0.6 0.8 0.6 1.3l-0.8 36.6c0 0.8-0.5 1.4-1.2 1.6l-33.7 6.9z"/><path class="bo" d="m503.4 1057.7c0-0.9-0.7-1.6-1.6-1.6h-3.8c-0.9 0-1.6 0.7-1.6 1.6v36.6c0 0.9 0.7 1.6 1.6 1.6h3.8c0.9 0 1.6-0.7 1.6-1.6z"/><path class="bp" d="m472.7 1064.6c-0.7-1.9-4.6 0.2-5.9 1q-0.2 0.1-0.3 0-0.2-0.1-0.2-0.3l-0.4-2.8-1.2 2.7c-2 3-0.4 10.2-0.4 10.2 0.5 3.1 4.2 2.1 7 1.2 2.7-0.9 2.3-9.7 1.4-12z"/><path class="bq" d="m531 1064.6c0.7-1.9 4.6 0.2 5.9 1q0.2 0.1 0.3 0 0.2-0.1 0.2-0.3l0.4-2.8 1.2 2.7c2 3 0.4 10.2 0.4 10.2-0.5 3.1-4.2 2.1-7 1.2-2.7-0.9-2.3-9.7-1.4-12z"/><path class="br" d="m440.3 1107.5c7.5-1.7 24.9-0.8 24.9-0.8l0.8 2 1.1 9.5c0 0-16.5 3-24.7 3q-1.3-0.1-2.3-0.4-0.4-0.3-0.7-0.7c-3.5-3.8-2.5-9.3 0.9-12.6z"/><path class="bs" d="m439.6 1107.7q0.3-0.1 0.7-0.2c-3.4 3.3-4.4 8.8-0.9 12.6q0.3 0.4 0.7 0.7c-6.1-1.9-6.9-11.3-0.5-13.1z"/><path class="bt" d="m470.2 1106.2l-2.9 0.1c-1.6 0.1-3.1 0.9-4.1 2.2-1.1 1.3-1.7 3-1.6 4.7 0.1 1.4 0.7 2.7 1.6 3.7 1 0.9 2.2 1.4 3.5 1.3l4.5-0.3z"/><path class="bu" d="m454.5 1116.3c0.2 0 0.3-0.1 0.4-0.3 0.7-3 3.7-6.1 3.7-6.1 0.2-0.2 0.2-0.5 0-0.7-0.2-0.2-0.4-0.2-0.6 0-0.1 0.1-3.1 3.2-4 6.5 0 0.3 0.1 0.5 0.3 0.6q0.1 0 0.2 0z"/><path class="bv" d="m458.4 1116.1q0.1 0 0.2 0c0.2-0.1 0.3-0.4 0.3-0.7-1-3.5-4.7-6.3-4.9-6.4-0.2-0.1-0.5-0.1-0.6 0.2-0.1 0.2-0.1 0.5 0.1 0.6 0.1 0.1 3.6 2.8 4.5 5.9 0.1 0.2 0.3 0.4 0.4 0.4z"/><path class="bw" d="m446.5 1116.8c0.2 0 0.3-0.2 0.4-0.4 0.6-3 3.4-6.2 3.4-6.3 0.2-0.1 0.2-0.5 0-0.6-0.2-0.2-0.4-0.2-0.6 0-0.1 0.1-3 3.4-3.7 6.7 0 0.3 0.1 0.5 0.4 0.6q0 0 0.1 0z"/><path class="bx" d="m450.4 1116.3q0.1 0 0.2 0c0.2-0.1 0.3-0.4 0.2-0.6-1.1-3.5-4.9-6.1-5.1-6.2-0.2-0.1-0.5 0-0.6 0.2-0.1 0.2 0 0.5 0.2 0.7 0 0 3.7 2.5 4.7 5.6 0.1 0.2 0.3 0.3 0.4 0.3z"/><path class="by" d="m569.3 1106.6c-7.6-1.5-24.9 0-24.9 0l-0.7 1.9-0.9 9.6c0 0 16.6 2.5 24.8 2.2q1.2 0 2.3-0.4 0.3-0.4 0.7-0.7c3.3-3.9 2.2-9.5-1.3-12.6z"/><path class="bz" d="m570.1 1106.8q-0.4-0.1-0.8-0.2c3.5 3.1 4.6 8.7 1.3 12.6q-0.4 0.3-0.7 0.7c6-2.1 6.5-11.5 0.2-13.1z"/><path class="bA" d="m539.4 1106.2h2.9c1.6 0.1 3.1 0.8 4.2 2 1.1 1.3 1.7 3 1.6 4.8 0 1.4-0.5 2.7-1.5 3.7-0.9 0.9-2.1 1.4-3.4 1.4l-4.5-0.2z"/><path class="bB" d="m555.4 1115.8c-0.2 0-0.4-0.1-0.4-0.3-0.9-3-3.9-5.9-3.9-6-0.2-0.1-0.2-0.4 0-0.6 0.1-0.2 0.4-0.3 0.6-0.1 0.1 0.1 3.2 3.2 4.1 6.4 0.1 0.3-0.1 0.5-0.3 0.6q0 0-0.1 0z"/><path class="bC" d="m551.4 1115.7q-0.1 0-0.1 0c-0.3-0.1-0.4-0.3-0.3-0.6 0.9-3.5 4.5-6.5 4.7-6.6 0.2-0.1 0.4-0.1 0.6 0.1 0.1 0.3 0.1 0.6-0.1 0.7-0.1 0-3.6 2.9-4.4 6.1 0 0.2-0.2 0.3-0.4 0.3z"/><path class="bD" d="m563.4 1116.1c-0.2 0-0.4-0.2-0.4-0.4-0.7-3-3.6-6.1-3.6-6.2-0.2-0.2-0.2-0.5 0-0.6 0.1-0.2 0.4-0.2 0.6-0.1 0.1 0.2 3.1 3.4 3.8 6.7 0.1 0.2-0.1 0.5-0.3 0.5q-0.1 0.1-0.1 0.1z"/><path class="bE" d="m559.4 1115.7q-0.1 0-0.1 0c-0.3-0.1-0.4-0.4-0.3-0.6 1.1-3.5 4.8-6.2 5-6.3 0.2-0.2 0.4-0.1 0.6 0.1 0.1 0.2 0 0.5-0.2 0.7 0 0-3.6 2.6-4.6 5.8 0 0.2-0.2 0.3-0.4 0.3z"/><path class="bF" d="m438.2 1077.7c3.4-7.9 11.8-9.2 18.9-5.5 0.1 0.2 45.1 23.2 84.8 33.4-1.1 3.6-1.7 7.5-1.8 11.3q-0.1 1.3 0 2.5c-30.4-1.6-63.5-11.7-91.9-20.6-8.8-2.9-13.8-12.4-10-21.1z"/><path class="bG" d="m470 1117.5q0.2-6.6-2.5-12.3-0.1-0.2-0.2-0.5c2.3-0.7 5.2-1.7 9-3 28.2-9.6 49.7-19.3 70.3-30.6 7.9-4.3 17-1.4 19.5 8 2.3 8.5-2.7 15.7-10.3 18.2-22.7 7.5-10.9 5.4-18.3 7.8-19.9 6.2-44.7 11.8-67.5 13.3q0-0.4 0-0.9z"/><path class="bH" d="m337.2 1174h314.6v-48.2h-314.6c6.8 0 6.8 48.2 0 48.2z"/><path class="bI" d="m651.8 1161.9v-22.1c0-7.7-6.2-14-13.8-14h-299.5c-6 0-10.9-3.8-10.9-8.4 0-1.4 1.5-2.6 3.3-2.6h327.3c7.5 0 19.4 9.1 19.4 20.2v30.9c0 10.5-11.6 19-18.7 19h-326.2c-2.8 0-5.1-1.7-5.1-3.8 0-3.9 4.1-7.1 9.2-7.1h303.1c6.6 0 11.9-5.4 11.9-12.1z"/><path class="q" d="m643.1 1136.7h-295c-0.5 0-1-0.5-1-1 0-0.6 0.5-1 1-1h295c0.6 0 1 0.4 1 1 0 0.5-0.4 1-1 1z"/><path class="q" d="m643.1 1143.8h-295c-0.5 0-1-0.4-1-1 0-0.5 0.5-1 1-1h295c0.6 0 1 0.5 1 1 0 0.6-0.4 1-1 1z"/><path class="q" d="m643.1 1151h-295c-0.5 0-1-0.5-1-1 0-0.6 0.5-1 1-1h295c0.6 0 1 0.4 1 1 0 0.5-0.4 1-1 1z"/><path class="q" d="m643.1 1158.1h-295c-0.5 0-1-0.4-1-1 0-0.5 0.5-1 1-1h295c0.6 0 1 0.5 1 1 0 0.6-0.4 1-1 1z"/><path class="q" d="m643.1 1165.3h-295c-0.5 0-1-0.4-1-1 0-0.5 0.5-1 1-1h295c0.6 0 1 0.5 1 1 0 0.6-0.4 1-1 1z"/><path class="bJ" d="m669.6 1353.5h-365.5c-8.9 0-16-7.2-16-16v-43.1c0-8.9 7.1-16 16-16h365.5c8.9 0 16 7.1 16 16v43.1c0 8.8-7.1 16-16 16z"/><path class="y" d="m357.9 1344.8h-19.1c-3.2 0-5.8-2.5-5.8-5.7v-46.3c0-3.2 2.6-5.8 5.8-5.8h19.1c3.2 0 5.7 2.6 5.7 5.8v46.3c0 3.2-2.5 5.7-5.7 5.7z"/><path class="y" d="m392.4 1344.8h-10.5c-3.2 0-5.7-2.5-5.7-5.7v-46.3c0-3.2 2.5-5.8 5.7-5.8h10.5c3.2 0 5.8 2.6 5.8 5.8v46.3c0 3.2-2.6 5.7-5.8 5.7z"/><path class="bK" d="m682.9 1190.2v16.2c0 2.8-1.7 5.5-4.5 7.3l-2.8 1.8c-2.3 1.5-1.8 4.2 0.9 5.2 1.8 0.7 2.2 2.5 0.7 3.5l-3.5 2.3c-2.4 1.5-2.4 4.2-0.1 5.8l2.6 1.6c2.1 1.5 2.1 4.1-0.2 5.5l-2.7 1.7c-1.9 1.1-2.2 3.2-0.7 4.7l1.5 1.4c1.1 1.1 1.7 2.4 1.7 3.7v25.6h-368.4v-87.9z"/><path class="n" d="m320.2 1209h349.7c0.8 0 1.4-0.5 1.4-1.1 0-0.5-0.6-1-1.4-1h-349.7c-0.8 0-1.4 0.5-1.4 1 0 0.6 0.6 1.1 1.4 1.1z"/><path class="n" d="m320.2 1224.3h341.5c0.7 0 1.4-0.5 1.4-1 0-0.6-0.7-1.1-1.4-1.1h-341.5c-0.8 0-1.4 0.5-1.4 1.1 0 0.5 0.6 1 1.4 1z"/><path class="n" d="m320.2 1235.6h337.2c0.8 0 1.4-0.5 1.4-1.1 0-0.5-0.6-1-1.4-1h-337.2c-0.8 0-1.4 0.5-1.4 1 0 0.6 0.6 1.1 1.4 1.1z"/><path class="bL" d="m300.8 1183h390.1c3 0 5.6 1.6 5.9 3.8 0.4 2.6-2.3 4.7-5.6 4.7h-361.8c-6.4 0-11.9 3.3-13.2 8-5.9 20.7-5.5 42.4 0.1 64.7 1.3 5.2 7.4 8.9 14.4 8.9h353.1c2.9 0 5.6 1.6 5.9 3.9 0.3 2.5-2.4 4.6-5.7 4.6h-380.7c-9.1 0-16.9-4.8-18.5-11.5-6.6-27.1-7.2-53.1 0-77.7 1.6-5.5 8.2-9.4 15.7-9.4z"/><path class="bM" d="m1759 864.4c0 0-1.6 8.9-2.4 17.7-0.3 3.4 2.4 6.4 5.8 6.5 11.7 0.5 36.8 1.5 45.8 1.1 1.3-0.1 2.2-1.5 1.7-2.7-0.4-1.1-1.2-1.9-2.2-2.4l-41.4-19z"/><path class="bN" d="m1757.7 859.2l1.2 10.6c0 0 7.3 3.4 12.2-0.4l-3-11.9z"/><path class="bO" d="m1758.6 659.3c-0.5 2.8-2.9 138.6 11.6 199.4 0.2 1-0.3 2-1.2 2.4-2.2 0.9-6.6 2.2-11.8 2.4-1.6 0-3.1-1-3.5-2.6-4.2-14.1-24.1-84.8-26.7-152.3-2.9-75.5 0-2.6 0-2.6l1.7-46.7z"/><path class="bP" d="m1711.4 869c0 0-2.5 4.5-5 16.4-0.4 2.2 1.1 4.2 3.3 4.5 3.9 0.3 9.8 0.8 14.6 0.8 2.2 0 3.9-1.9 3.6-4.1-0.5-4.4-2.1-11.5-7.2-17.1z"/><path class="bQ" d="m1709.2 855.4l2.9 16c0 0 2.9 2.2 8.7 0.6l-1.4-17.3z"/><path class="bR" d="m1701.2 663.5c-11.9 71.6 2.6 177 7.4 197.6 0.3 1.3 1.4 2.3 2.6 2.5 2.2 0.3 5.8 0.6 9.3-0.4 1.2-0.3 2.1-1.4 2.1-2.7 0.7-16.7-0.5-119.1 10.6-159.5 0.5-2.1 1.8-3.9 3.5-5.1l21.5-15.2 1.6-24.7z"/><path class="bS" d="m1776.8 527.8c-35.6-0.6-74.8 9.3-74.8 9.3-10.6 61.9-1.8 133.2-1.8 133.2 27.5 7.3 58.5-4.4 58.5-4.4 4.6-25.8 26-98.6 26-98.6 17.3-2.1 31.7-7.2 43.4-13.8-8.9-10.4-13.2-23.7-15-31.5-12.6 3.9-25.3 6-36.3 5.8z"/><path class="bT" d="m1881.9 475.4c-3.5-4.2-8-2.2-8-2.2-5.2 22.1-32.6 40-60.8 48.8 1.8 7.8 6.1 21.1 15 31.5 46.8-26.3 53.8-78.1 53.8-78.1z"/><path class="bU" d="m1881 476.5c0.4 1.2-3.9 2.9-6.4-1.8 0-2.3-1.4-12.1-0.1-13.9 7.3-9.9 21.3-22.3 21.3-22.3 2.4 2.4 0.5 4.7 0.5 4.7l-6.9 7.1c1.5 2.5 3.2 4.7 4 7.8 0.6 2.4 0.3 4.9-0.9 7.1-1.2 2.1-2.9 4.9-4.4 7.1-2.9 4.2-7.1 4.2-7.1 4.2z"/><path class="bV" d="m1886.5 454.9l-6.3 5.2-1.9 5.3 5.5 6.1c0 0 1.9-10.4 3.3-12.6 1.4-2.3 0.6-3.4-0.6-4z"/><path class="bW" d="m1715.6 571.6l-13.6-34.5c0 0-33.2 22.6-38.7 51.2 6.3 0.5 17.7 2.1 28.9 7.8 2.5-13.5 23.4-24.5 23.4-24.5z"/><path class="bX" d="m1744.7 604c0 0-37.3 21.1-49.9 3.1-2.6-3.8-3.2-7.5-2.6-11-11.2-5.7-22.6-7.3-28.9-7.8-1.6 8.7-0.7 17.8 4.3 27.1 22.1 40.3 82-2.2 82-2.2z"/><path class="bY" d="m1740.2 630.6l20.4-71c0.2-0.8 0.9-1.4 1.7-1.5 3.7-0.5 14.4-1.7 26.7-2.7 14.9-1.3 32.1-2.3 42.4-1.4 1.5 0.1 2.4 1.7 1.7 3-5.8 11.8-29.9 60.1-42 75.9-0.4 0.5-1 0.8-1.7 0.8l-47.2-0.4c-1.4 0-2.4-1.3-2-2.7z"/><path class="bZ" d="m1791.1 549.2l14.8-2.4c0.8-0.2 1.4 0.6 1.2 1.4l-1.5 4.4c-0.1 0.4-0.5 0.6-0.9 0.7l-14.2 1.9c-0.7 0.1-1.3-0.6-1.1-1.3l0.9-3.9c0.1-0.4 0.4-0.7 0.8-0.8z"/><path class="c0" d="m1780.1 561.7l1.2-6.3c0.1-0.6 0.6-1.1 1.3-1.2l29.8-3c1-0.1 1.8 0.8 1.6 1.8l-1.9 7.9c-0.2 0.6-0.7 1.1-1.4 1.1l-29.1 1.5c-1 0-1.7-0.8-1.5-1.8z"/><path class="c1" d="m1745.1 613.5c0 0-2.8-11.7-1.7-15.8 1.2-4.2 3.4-9.5 10.8-8.3 7.4 1.2 16.1 4.3 16.1 4.3 0 0-0.5 5.4-6.1 3.7l3.5 2.6c0 0-0.5 4.4-5.2 2.1l3.2 3.5c0 0-2 3.6-5.5 1.3-3.5-2.3-5.2 8-15.1 6.6z"/><path class="c2" d="m1740.8 498.9l-11.3 32.8c-0.2 0.5 0 1.1 0.5 1.4 3.1 1.7 14.2 6.6 27.6-1.9 1.4-0.9 2.3-2.3 2.6-3.9l3.6-28.4z"/><path class="c3" d="m1765.4 468.6c0 0 12.4 23.4 10.8 32.9-1.6 9.4-17 8.7-30.4 1.1l-9.4-25.3z"/><path class="c4" d="m1746.4 490.2c0.5-0.3 0.7-0.9 0.4-1.4-1-1.6-2.8-4.7-3.4-7.4 0 0-2.3-1.4 5.6-3.3 8-1.9 19.8-4.8 22.3-11.6 2.4-6.6-4-23.1-14.1-9.9-0.4 0.5-1.2 0.5-1.6 0-1.6-2.2-6-6.7-12.1-3.9-5.6 2.5-6.3 6.7-6.2 8.8 0 0.6-0.5 1.1-1.1 1-2.9-0.6-9.8-1.1-13 6-2.7 5.8-0.9 9.1 0.6 10.7 0.5 0.6 0.3 1.4-0.4 1.6-1.9 0.6-4.3 2.2-4.1 6.6 0.4 6.1 7.2 5.6 9.1 5.3 0.4 0 0.7 0.1 0.9 0.3 1.7 1.9 9.2 9.7 17.3 10.7 0.7 0 1.3-0.7 1-1.3l-3.5-10.3c-0.1-0.4 0.1-1 0.6-1.2z"/><path class="c5" d="m1747.8 491.6c0 0-8.8-6-9.5-0.9-0.6 5.1 8 7.4 12.3 5.5z"/><path class="c6" d="m910.1 1009.1c0 0-9.2 4.5-10.9 9.7-1.4 4.1-11.6 4.7-12.6 12.8-0.5 4.2-3.6 7.6-7.8 8.2-10.4 1.6-26.5 7-29.1 25.1-1.9 13.9 5.1 19.1 12.5 20.9 5.4 1.4 9 6.6 7.9 12.1-1 5.3 0.6 11.4 9.7 16.2 20.4 10.8 40.8-25.6 40.8-25.6l4.2-63.3z"/><path class="c7" d="m1006.3 975.7c0 0-26.3 71.6-71.1 94 0 0 14.9 24.3 22.7 25.8 0 0 47.8-61.2 52.7-111.4z"/><path class="c8" d="m826.2 1406.6l-1.3 10.9c-0.3 2-1.9 3.7-4 3.9-3.4 0.4-9 0.8-14.5 0.2-2.4-0.2-4-2.6-3.2-4.9 1.3-4.2 3.7-10.5 7.3-14.2h12c2.2 0 4 1.9 3.7 4.1z"/><path class="c9" d="m920.6 1279.3l2 12c0 0-6.8 69-8 96.6-0.2 4.3 0.9 8.6 3.2 12.3l11.8 19.2-30.1-17.7-0.6-3.7 5-6.8-6.5-77.3c-0.4-4.5 0.6-9.1 2.7-13.1l6.2-11.7z"/><path class="ca" d="m931.6 1422.2h-9.6c-1.8 0-3.5-0.8-4.6-2.2-3-3.9-9.2-11.5-12.1-11.7-4-0.3-3.5 13.9-3.5 13.9h-2.3l-2.8-17.6c-0.7-4.5 1.5-8.9 5.5-10.9 0 0 0.9 6.7 5.8 9.7 5 3 20.2 13.7 20.2 13.7 0 0 1.9-0.3 3.9 0.1 3 0.5 2.6 5-0.5 5z"/><path class="cb" d="m879.4 1285c0 0-40 75.7-46.3 93-6.3 17.3-8.6 31.7-8.6 33.1-0.2 2.1-2.8 4.2-10.1 4.2-3.8 0-5.7-1.6-6.6-3-0.7-1.3-0.8-2.8-0.1-4.1 2.3-4.7 9.6-19.6 12.3-26.4 3.3-8.1 10.2-44.7 14-57.5 3.9-12.7 8.2-26.5 24.8-39.3 0 0 11.4-11.2 20.6 0z"/><path class="cc" d="m904.6 1161c10.3-43.6-15.8-68.3-15.8-68.3 16.4-15.8 46.4-23 46.4-23 0 0 28.6 20.9 25.2 37.3-2 9.6-20.1 57.5-20.1 57.5 0 0-16.7 7.9-35.7-3.5z"/><path class="cd" d="m881.7 1182.6c4.2-12.6 22.9-21.6 22.9-21.6 19 11.4 35.7 3.5 35.7 3.5 0 0 3.8 14.3 1.2 27.7-2.6 13.3-18.9 99.1-18.9 99.1-25.6 5.2-65-5.2-65-5.2 16.3-29 20-90.9 24.1-103.5z"/><path class="ce" d="m916.5 1040.9l-8.4 37.6c-0.8 3.3 2.3 2.8 5.6 2.1 5.5-1 12.6-3.1 14.9-7.4 0.3-0.4 0.4-0.9 0.5-1.4l3.5-26.1c0.3-2.1-0.8-4.1-2.7-4.9l-6.9-3.1c-2.7-1.2-5.8 0.4-6.5 3.2z"/><path class="cf" d="m926.3 1005.1c0 0 9.9 4.2 16.7 18.5 6.7 14.3 1.7 20.9-4.6 21.9-6.4 0.9-15.8 0.7-25.8-8.5-10-9.3 0.8-36.9 13.7-31.9z"/><path class="cg" d="m919.3 1029.3c0 0-7.5-20.9 11.1-21.2l4.4 3.1c0 0 6.8-11.6-4.4-17.2-11.2-5.5-24.3-1-29 14.1-4.8 15.1-5.6 25.2 2.3 32.4 7.9 7.2 11.2-1 11.2-1 0 0-4.3-6.7-2.6-10.3 1.8-3.6 5.9 0.7 5.9 0.7z"/><path class="ch" d="m917.2 1031.7c0 0-3.7-10.8-8.8-6.5-5 4.3 4.1 9.9 7.7 11.8z"/><path class="ci" d="m1008.8 988.7c0.4 1.3-4.2 3.2-7-2-0.1-2.5-1.6-13.2-0.1-15.2 7.9-10.8 16.3-11.5 16.3-11.5 1.6 2.8 3.5 5.2 4.4 8.6 0.7 2.6 0.3 5.3-1 7.7-1.3 2.4-3.1 5.4-4.8 7.8-3.2 4.6-7.8 4.6-7.8 4.6z"/><path class="cj" d="m884.2 1104.3c0 0 76.5 93.5 133.7-12.9 0 0 1.1-2.8 0.4-6.7-0.3-2 1-9 1.7-12.6 0.2-1.2-0.6-2.3-1.8-2.4-0.9-0.1-1.8 0.3-2.3 1.1l-10.5 13.3c-0.8 2.6 0.5 5.4 3 6.6 1.5 0.7 2 2.7 1 4.1-43.5 57.1-116.3-5.5-117.6-4.8-4.7 2.6-10.2 5.5-7.6 14.3z"/><path class="ck" d="m208.6 1348.9c0 0 79-36.7 67.6-91.4-9.3-44.1-20.4 10.9-44.4 53-1.9 3.3-6.9 0.7-5.3-2.7 15.7-33.9 36.4-86.7 20.9-101.8-23.4-22.8-18.7-6.3-28.1 38-9.4 44.3-22.6 49.3-20.5 19.1 2.2-30.1 30.8-70.3 20.4-84.9-10.4-14.7-35.7-28.8-46-36.6-10.3-7.8-45.8 44.5-35.4 64.9 10.4 20.4 40.5 43.7 41 64.1 0.4 20.5-23.5-8.8-35.2-26-11.8-17.1-21.8-25.6-25.8 0.1-3.9 25.7 22 48.1 43.6 57.6 21.5 9.6 31.3 22.2 20.4 18.3-10.9-3.8-43.6-18.4-51.4-29.5-7.7-11-12.8 48.9 78.2 57.8z"/><path class="d" d="m210.6 1344.5c0.2-0.2 0.2-0.5 0.1-0.8-27-61-32.4-151-32.4-151.9-0.1-0.4-0.4-0.7-0.8-0.7-0.5 0-0.8 0.4-0.8 0.8 0.1 0.9 5.5 91.2 32.6 152.5 0.2 0.4 0.6 0.5 1 0.4q0.2-0.1 0.3-0.3z"/><path class="cl" d="m209 1347c0 0 30.4-87.1-19.8-118.8-40.3-25.5-6.7 23.6 7.7 72.9 1.1 3.9-4.5 5.8-6 2-14.2-37-39.1-91.6-62.1-90.9-34.6 0.9-18.5 9.5 8.3 49.4 26.8 39.8 20.8 53.6-0.6 29.7-21.4-23.9-30.8-75.3-49.6-78.2-18.8-2.9-48.2 5.9-61.8 8-13.5 2.1 0.1 67.7 23.3 74.8 23.2 7.1 63.1 1.4 79 16.2 15.9 14.7-24 11.3-45.7 7.6-21.7-3.8-35.6-2.4-18.9 19.6 16.6 22 52.7 18.7 75.9 9.4 23.2-9.4 40-7.6 29-2.1-11 5.5-46.2 19.6-60.3 17.3-14.1-2.2 27.7 45.8 101.6-16.9z"/><path class="d" d="m207.2 1342.3c-0.1-0.3-0.3-0.5-0.6-0.7-66.3-24.4-138.8-86.7-139.5-87.3-0.3-0.3-0.9-0.2-1.2 0.1-0.2 0.3-0.2 0.8 0.1 1.1 0.8 0.7 73.4 63.1 140.1 87.7 0.4 0.1 0.9-0.1 1-0.5q0.1-0.2 0.1-0.4z"/><path class="cm" d="m530.9 715.6h-8.6v-93.9h8.6z"/><path class="cn" d="m564.6 717.4h-76v-1.5c0-2.3 1.8-4.1 4.1-4.1h67.8c2.3 0 4.1 1.8 4.1 4.1z"/><path class="co" d="m575.9 618.4c0 5.2-4.2 9.4-9.3 9.4h-77c-5.1 0-9.3-4.2-9.3-9.4v-8.4c0-5.2 4.2-9.4 9.3-9.4h77c5.1 0 9.3 4.2 9.3 9.4z"/><path class="cp" d="m462.5 559.1c0 0-12.9 2-27.4 11.7-2.3 1.5-3.6 4.2-3.2 6.9 1.7 13.7 8.9 58.3 32.4 101.8 1.3 2.3 1.6 5 1.1 7.5l-4.1 19-7.6 7.2h19.5l13.1-35.3-5.6-1.7c-4.3-1.4-7.3-5.4-7.4-9.9l-0.6-37.8c0.5-16.8-10.3-28.4-10.3-28.4l31.2-1.5z"/><path class="cq" d="m446.1 716.6c-1.8 2.3 19.1 5.4 29.7 0.3 0 0 14.7-25.5 14.7-38.6 0 0-1.2-2.7-9.8-2.1 0 0-4.9 30.2-10.1 33.6-5.2 3.4-14.6 0.3-14.6 0.3 0 0-7.3 3.1-9.9 6.5z"/><path class="cr" d="m489.6 600.6c-0.1-0.2-33.6-4-33.6-4 0 0 1.1 10.2-2.3 24.2-3.4 14-52.5 74.6-52.5 74.6l5.1 16.4c-15.9 5.5-31.6 6.4-47 2.8l31.9-19.2c0 0 29.9-101.7 48.2-119.9l33.5-11.6z"/><path class="cs" d="m564.6 541.4c0 0 19.3 28.7 20.9 41.8 1.6 13-5.3 18.3-25.5 19.2-20.2 0.9-74.2 0.9-74.2 0.9l-46.1-39.4c0 0 33.6-12 42.3-15.3 8.8-3.4 82.6-7.2 82.6-7.2z"/><path class="ct" d="m404.4 706.3c0 0 5.5 5.3 1.8 11.3 0 0-43.9 7.8-55.9 4.3 0 0 2.5-5.7 15.9-12.1l-1 0.7c-1.2 1-0.5 3 1.1 2.9 8.8-0.5 27.2-2.1 38.1-7.1z"/><path class="cu" d="m662.9 550.2c0.2-1.1-0.1-2.2-0.9-3.1-0.7-0.8-1.8-1.3-3-1.3h-399.1c-1.5 0-3 0.7-3.8 2-0.9 1.2-1 2.7-0.3 4l4.3 8.8c1 2 3.1 3.3 5.5 3.3h390.7c2.1 0 4-1.4 4.5-3.5z"/><path class="cv" d="m282.3 735.1q-0.7 0-1.4-0.3c-1.8-0.7-2.6-2.9-1.8-4.7l73.4-174.7c0.8-1.8 2.8-2.6 4.6-1.8 1.8 0.7 2.6 2.8 1.8 4.7l-73.4 174.7c-0.6 1.3-1.9 2.1-3.2 2.1z"/><path class="cw" d="m365 735.1c-1.3 0-2.6-0.8-3.2-2.1l-73.4-174.7c-0.8-1.9 0-4 1.8-4.7 1.8-0.8 3.8 0 4.6 1.8l73.4 174.7c0.8 1.8 0 4-1.8 4.7q-0.7 0.3-1.4 0.3z"/><path class="cx" d="m571.5 735.1q-0.7 0-1.4-0.3c-1.7-0.7-2.6-2.9-1.8-4.7l73.5-174.7c0.7-1.8 2.8-2.6 4.6-1.8 1.7 0.7 2.6 2.8 1.8 4.7l-73.5 174.7c-0.5 1.3-1.8 2.1-3.2 2.1z"/><path class="cy" d="m654.3 735.1c-1.4 0-2.7-0.8-3.3-2.1l-73.4-174.7c-0.8-1.9 0-4 1.8-4.7 1.8-0.8 3.9 0 4.6 1.8l73.5 174.7c0.7 1.8-0.1 4-1.9 4.7q-0.6 0.3-1.3 0.3z"/><path class="cz" d="m408.5 515.4l5.1 22.1v14.7l-84.9-1.5c-1.1 0-2-0.9-2-2v-1c0-0.8 0.4-1.5 1.1-1.8l52.1-27.2z"/><path class="cA" d="m340.4 535.9l-10.5 10.2c-0.3 0.3 0 0.9 0.4 0.8 7.6-0.4 48.1-2.3 83.3 4.2v-33.6z"/><path class="cB" d="m330 544.2c9.5-0.7 62.4-4.1 83.6 6.9v-33.6c0 0-59.7 2.5-81.8 13.4 0 0 2.1 7.6-2.2 12.4-0.3 0.4-0.1 0.9 0.4 0.9z"/><path class="cC" d="m332.2 533.5l-1.8 1.8c-0.2 0.2 0 0.5 0.3 0.5 6.3-0.3 46.5-1.7 82.9 15.3 0 0-29.6-20.7-81.4-17.6z"/><path class="cD" d="m413.6 514.8c0 0-22.6-16.5-48.5-4.6l-34 20.3c-0.2 0.2-0.1 0.5 0.2 0.5 8.2-1.8 49.1-8.7 82.3 19.7z"/><path class="cE" d="m413.6 515.4c0 0-22.2-16.8-48.1-4.9l-31.4 18.9c-0.2 0.1-0.1 0.5 0.2 0.4 8.2-1.8 46.1-9.5 79.3 19z"/><path class="cF" d="m347 523.9l22.5-13.3q0.4-0.2 0.9-0.3c3.2-0.7 22.3-4.4 37.5 6.2 0.8 0.5 1.1 1.4 0.9 2.2l-3.5 16.2c-0.2 0.7-1.1 1.1-1.7 0.6-5.1-3.8-25.1-16.5-56.4-11.1-0.3 0-0.5-0.3-0.2-0.5z"/><path fill-rule="evenodd" class="q" d="m404.2 536.3q-0.5 0-0.9-0.4c-5.3-3.9-25.1-16.3-56.1-11-0.3 0.1-0.7-0.1-0.8-0.5-0.2-0.4 0-0.8 0.3-0.9l22.6-13.3q0.4-0.3 1-0.4c3.6-0.8 22.6-4.4 37.9 6.3 0.9 0.6 1.4 1.7 1.1 2.7l-3.5 16.2c-0.1 0.5-0.5 1-1 1.2q-0.3 0.1-0.6 0.1zm-42.1-13.8c22.8 0 37.3 9.3 41.8 12.6q0.2 0.2 0.5 0.1 0.3-0.1 0.3-0.4l3.6-16.2c0.1-0.6-0.1-1.3-0.7-1.7-14.9-10.3-33.5-6.9-37.1-6.1q-0.4 0.1-0.7 0.3l-21.2 12.5c4.8-0.7 9.3-1.1 13.5-1.1z"/><path class="q" d="m333.9 536c6.6-0.4 13.1-0.3 19.6 0.1q9.9 0.5 19.6 1.9c6.4 1 12.8 2.4 19.2 4.2 6.3 1.7 12.4 4.1 18.3 6.9 0.3 0.1 0.5 0.5 0.3 0.8-0.1 0.3-0.5 0.5-0.8 0.3-5.9-2.6-12-4.8-18.3-6.4-6.3-1.6-12.6-2.8-19-3.6q-9.7-1.3-19.4-1.6c-6.4-0.2-12.9-0.1-19.3 0.3v0.1c-0.9 0-1.6-0.6-1.7-1.4 0-0.9 0.6-1.6 1.4-1.6q0.1 0 0.1 0z"/><path class="q" d="m334.2 531.3c3.4-0.4 6.6-0.5 9.9-0.6 1.7 0 3.3 0.1 4.9 0.1l5 0.2c6.5 0.4 13 1.3 19.4 2.6l2.4 0.6q1.2 0.2 2.4 0.5l4.8 1.3c1.5 0.5 3.1 1.1 4.6 1.6l2.3 0.8 2.3 0.9 4.6 1.9 4.4 2.1c0.7 0.4 1.4 0.8 2.1 1.1l2.2 1.3 4.2 2.5c0.2 0.1 0.3 0.4 0.1 0.7-0.1 0.2-0.4 0.3-0.6 0.2l-0.1-0.1-4.2-2.3-2.1-1.2c-0.7-0.4-1.5-0.7-2.2-1.1l-4.4-2-4.5-1.8-2.3-0.9-2.3-0.7c-1.5-0.5-3-1-4.6-1.4l-4.7-1.2q-1.2-0.3-2.4-0.5l-2.3-0.5c-6.4-1.2-12.8-1.9-19.3-2.2l-4.8-0.1c-1.6 0.1-3.2 0-4.8 0.1-3.2 0.1-6.5 0.3-9.6 0.7v0.1c-0.8 0-1.5-0.5-1.5-1.2-0.1-0.7 0.4-1.4 1.1-1.5q0 0 0 0z"/><path class="q" d="m333.4 541.2c6.5-0.2 12.9-0.2 19.3 0q9.6 0.3 19.1 1.1 9.6 0.9 19.1 2.6c6.3 1.1 12.5 2.6 18.6 4.5 0.3 0 0.5 0.3 0.4 0.6-0.1 0.2-0.4 0.4-0.6 0.3-6.2-1.7-12.4-3-18.7-4q-9.4-1.4-18.9-2-9.5-0.7-19.1-0.7c-6.3 0-12.7 0.1-19 0.4-0.8 0.1-1.5-0.5-1.5-1.3-0.1-0.8 0.5-1.4 1.3-1.5q0 0 0 0z"/><path fill-rule="evenodd" class="q" d="m380.6 523.8l-0.3-0.2c-2.2-1.3-4.6-2.5-7-3.5l-1.2-0.4 16.9-6.2c-5.9-0.6-12.3-1.1-18.6-0.1l1.9 4.2c0.1 0.3 0 0.6-0.3 0.7-0.2 0.1-0.5 0-0.7-0.3l-2.3-5.4 0.6-0.1c7.6-1.3 15.5-0.4 22.4 0.3l1.1 0.1-0.8 0.8c-3.7 3.4-7.5 6.7-11.4 9.9zm-5.8-4.1q3 1.2 5.7 2.8c3.5-2.8 7-5.8 10.3-8.8q-0.1 0-0.3-0.1c0 0.2-0.1 0.4-0.3 0.5z"/><path class="q" d="m371.9 518c-0.2 0-0.4-0.1-0.5-0.4 0-0.2 0.1-0.5 0.4-0.6 3.8-1.1 7.8-1.8 11.6-2.5l5.6-1.1c0.3-0.1 0.6 0.1 0.6 0.4 0.1 0.3-0.1 0.5-0.4 0.6l-5.6 1c-3.8 0.8-7.8 1.5-11.5 2.6q-0.1 0-0.2 0z"/><path class="q" d="m373.8 523.1l-2.6-4.6c-0.1-0.2-0.1-0.5 0.2-0.7 0.2-0.1 0.5 0 0.7 0.2l1.8 3.1q0.3-0.4 0.8-0.7c0.2-0.2 0.5-0.2 0.7 0.1 0.2 0.2 0.1 0.5-0.1 0.7q-0.6 0.4-1 1.1z"/><path fill-rule="evenodd" class="q" d="m385.9 524.7l6.8-10c0.2-0.2 0.4-0.3 0.6-0.2q0-0.1 0.1-0.1c0.3 0.1 0.5 0.3 0.5 0.6l-0.4 7.3-0.3 0.1q-2.9 1.2-6 2zm6.9-8.4l-4.5 6.7q2.1-0.6 4.2-1.4z"/><path fill-rule="evenodd" class="q" d="m395.6 521.6l-0.2-0.4q-1.3-2.9-2.3-5.9 0-0.1 0-0.1-0.2-0.2 0-0.5c0.1-0.2 0.4-0.3 0.6-0.2 2.4 1.1 4.6 2.5 6.6 4.2 0.1 0.1 0.5 0.4 0.4 0.9q0 0.5-0.7 0.7zm-1.3-5.7q0.8 2.3 1.8 4.5l3.4-1q-2.4-2-5.2-3.5zm5.4 3.7z"/><path class="q" d="m394.9 524.4c-0.2 0-0.4-0.1-0.5-0.3l-1.5-1.9c-0.2-0.2-0.1-0.5 0.1-0.7 0.2-0.2 0.5-0.1 0.7 0.1l1 1.3 0.6-2c0.1-0.2 0.4-0.4 0.6-0.3 0.3 0.1 0.5 0.4 0.4 0.6l-1 3-0.2 0.1q-0.1 0.1-0.2 0.1z"/><path class="q" d="m394.7 523.6c-0.3 0-0.5-0.2-0.5-0.5l-1-5.7c0-0.3 0.1-0.5 0.4-0.6 0.3 0 0.5 0.1 0.6 0.4l1 5.8c0 0.2-0.2 0.5-0.4 0.6q-0.1 0-0.1 0z"/><path class="cG" d="m418.4 515.4l-5.1 22.1v14.7l84.9-1.5c1.1 0 2-0.9 2-2v-1c0-0.8-0.4-1.5-1.1-1.8l-52.1-27.2z"/><path class="cH" d="m486.5 535.9l10.5 10.2c0.3 0.3 0 0.9-0.4 0.8-7.6-0.4-48.1-2.3-83.3 4.2v-33.6z"/><path class="cI" d="m496.9 544.2c-9.5-0.7-62.4-4.1-83.6 6.9v-33.6c0 0 59.7 2.5 81.8 13.4 0 0-2.1 7.6 2.2 12.4 0.3 0.4 0.1 0.9-0.4 0.9z"/><path class="cJ" d="m494.7 533.5l1.8 1.8c0.2 0.2 0 0.5-0.3 0.5-6.3-0.3-46.5-1.7-82.9 15.3 0 0 29.6-20.7 81.4-17.6z"/><path class="cK" d="m413.3 514.8c0 0 22.6-16.5 48.5-4.6l34 20.3c0.2 0.2 0.1 0.5-0.2 0.5-8.2-1.8-49.1-8.7-82.3 19.7z"/><path class="cL" d="m413.3 515.4c0 0 22.2-16.8 48.1-4.9l31.4 18.9c0.2 0.1 0.1 0.5-0.2 0.4-8.2-1.8-46.1-9.5-79.3 19z"/><path class="cM" d="m479.9 523.9l-22.5-13.3q-0.4-0.2-0.9-0.3c-3.2-0.7-22.3-4.4-37.5 6.2-0.8 0.5-1.1 1.4-0.9 2.2l3.5 16.2c0.2 0.7 1.1 1.1 1.7 0.6 5.1-3.8 25.1-16.5 56.5-11.1 0.2 0 0.4-0.3 0.1-0.5z"/><path fill-rule="evenodd" class="q" d="m422.1 536.2c-0.5-0.2-0.9-0.7-1-1.2l-3.5-16.2c-0.3-1 0.2-2.1 1.1-2.7 15.3-10.7 34.3-7.1 37.9-6.3q0.6 0.1 1 0.4l22.6 13.3c0.3 0.1 0.5 0.5 0.3 0.9-0.1 0.4-0.5 0.6-0.8 0.5-31-5.3-50.8 7.1-56.1 11q-0.4 0.4-0.9 0.4-0.3 0-0.6-0.1zm56.2-12.6l-21.2-12.5q-0.3-0.2-0.7-0.3c-3.6-0.8-22.2-4.2-37.1 6.1-0.6 0.4-0.8 1.1-0.7 1.7l3.6 16.2q0 0.3 0.3 0.4 0.3 0.1 0.5-0.1c4.5-3.3 19-12.6 41.8-12.6 4.2 0 8.7 0.4 13.5 1.1z"/><path class="q" d="m492.8 538.9c-6.4-0.4-12.9-0.5-19.3-0.3q-9.7 0.3-19.4 1.6c-6.4 0.8-12.7 2-19 3.6-6.3 1.6-12.4 3.8-18.3 6.4-0.3 0.2-0.7 0-0.8-0.3-0.2-0.3 0-0.7 0.3-0.8 5.9-2.8 12-5.2 18.4-6.9 6.3-1.8 12.7-3.2 19.1-4.2q9.7-1.4 19.6-1.9c6.5-0.4 13-0.5 19.6-0.1 0.9 0 1.5 0.7 1.5 1.5-0.1 0.9-0.8 1.5-1.6 1.5q0 0 0 0z"/><path class="q" d="m492.3 533.9c-3.1-0.4-6.4-0.6-9.6-0.7-1.6-0.1-3.2 0-4.8-0.1l-4.8 0.1c-6.5 0.3-12.9 1-19.3 2.2l-2.3 0.5q-1.2 0.2-2.4 0.5l-4.7 1.2c-1.6 0.4-3.1 0.9-4.6 1.4l-2.3 0.7-2.3 0.9-4.5 1.8-4.4 2c-0.7 0.4-1.5 0.7-2.2 1.1l-2.1 1.2-4.2 2.3-0.1 0.1c-0.2 0.1-0.5 0-0.6-0.2-0.2-0.3-0.1-0.6 0.1-0.7l4.2-2.5 2.2-1.3c0.7-0.3 1.4-0.7 2.1-1.1l4.4-2.1 4.6-1.9 2.3-0.9 2.3-0.8c1.5-0.5 3.1-1.1 4.7-1.6l4.7-1.3q1.2-0.3 2.4-0.5l2.4-0.6c6.4-1.3 12.9-2.2 19.4-2.6l5-0.2c1.6 0 3.2-0.1 4.9-0.1 3.3 0.1 6.5 0.2 9.9 0.6 0.7 0.1 1.2 0.7 1.2 1.5-0.1 0.7-0.8 1.2-1.5 1.2q0 0 0 0z"/><path class="q" d="m493.3 544c-6.3-0.3-12.7-0.4-19-0.4q-9.6 0-19.1 0.7-9.5 0.6-18.9 2c-6.3 1-12.5 2.3-18.7 4-0.2 0.1-0.5-0.1-0.6-0.3-0.1-0.3 0.1-0.6 0.4-0.6 6.1-1.9 12.3-3.4 18.6-4.5q9.5-1.7 19.1-2.6 9.5-0.8 19.1-1.1c6.4-0.2 12.8-0.2 19.3 0 0.8 0.1 1.4 0.7 1.3 1.5 0 0.8-0.7 1.4-1.4 1.3q0 0-0.1 0z"/><path fill-rule="evenodd" class="q" d="m446.3 523.8l-0.3-0.2c-3.9-3.2-7.7-6.5-11.4-9.9l-0.8-0.8 1.1-0.1c6.9-0.7 14.8-1.6 22.4-0.3l0.6 0.1-2.3 5.4c-0.2 0.3-0.4 0.4-0.7 0.3-0.3-0.1-0.4-0.4-0.3-0.7l1.9-4.2c-6.3-1-12.7-0.5-18.6 0.1l16.9 6.2-1.2 0.4c-2.4 1-4.8 2.2-7 3.5zm-10.2-10.1c3.3 3.1 6.8 6 10.3 8.9q2.7-1.6 5.6-2.9l-15.3-5.6c-0.2 0-0.4-0.2-0.4-0.4q-0.1 0-0.2 0z"/><path class="q" d="m455 518q-0.1 0-0.2 0c-3.7-1.1-7.7-1.8-11.5-2.6l-5.6-1c-0.3-0.1-0.5-0.3-0.4-0.6 0-0.3 0.3-0.5 0.6-0.4l5.6 1.1c3.9 0.7 7.8 1.4 11.6 2.5 0.3 0.1 0.4 0.4 0.4 0.6-0.1 0.3-0.3 0.4-0.5 0.4z"/><path class="q" d="m453.1 523.1l-0.5-0.8q-0.4-0.7-1-1.1c-0.2-0.2-0.3-0.5-0.1-0.7 0.2-0.3 0.5-0.3 0.7-0.1q0.5 0.3 0.8 0.7l1.8-3.1c0.2-0.2 0.5-0.3 0.7-0.2 0.3 0.2 0.3 0.5 0.2 0.7z"/><path fill-rule="evenodd" class="q" d="m441 524.7l-1.3-0.3q-3.1-0.8-6-2l-0.3-0.1-0.4-7.3c0-0.3 0.2-0.5 0.5-0.6q0.1 0 0.2 0.1c0.1-0.1 0.3 0 0.5 0.2zm-6.7-3.1q2.2 0.8 4.3 1.4l-4.5-6.7z"/><path fill-rule="evenodd" class="q" d="m431.3 521.6l-4.4-1.3q-0.7-0.2-0.7-0.7c-0.1-0.5 0.3-0.8 0.4-0.9 2-1.7 4.2-3.1 6.6-4.2 0.2-0.1 0.5 0 0.7 0.2q0.1 0.3-0.1 0.5 0 0 0 0.1-1 3-2.3 5.9zm-4-2.2l3.4 1q1-2.2 1.8-4.5-2.7 1.5-5.2 3.5z"/><path class="q" d="m432 524.4q-0.1 0-0.2-0.1h-0.2l-0.1-0.3-0.9-2.8c-0.1-0.2 0.1-0.5 0.4-0.6 0.2-0.1 0.5 0.1 0.6 0.3l0.6 2 1-1.3c0.2-0.2 0.5-0.3 0.7-0.1 0.2 0.2 0.3 0.5 0.1 0.7l-1.5 1.9c-0.1 0.2-0.3 0.3-0.5 0.3z"/><path class="q" d="m432.2 523.6q0 0-0.1 0c-0.2-0.1-0.4-0.4-0.4-0.6l1-5.8c0.1-0.3 0.3-0.4 0.6-0.4 0.3 0.1 0.4 0.3 0.4 0.6l-1 5.7c0 0.3-0.2 0.5-0.5 0.5z"/><path class="cN" d="m512.5 537.6c0 0-22.4-21.3-33.5-35.5-5.9-7.6-7.8-17.7-5-27 5-17 14-34.6 14.8-37.3 1.2-4.2 26.4-4.1 26.4-4.1 0 0 49.5 32.2 68.9 86.6l-21.8 6.8c0 0-12.9-21.7-25.7-35.5 0 0 22.1 29.2 22.9 41.2z"/><path class="cO" d="m485.7 414.3c0.3 0.9 6.9 22.6 7.4 23.1 0.5 0.5 14.4 1.2 20.9-3.3l-13.1-31.2z"/><path class="cP" d="m457.4 396c0 0-3.7 12.3 4.3 29.5 8 17.1 17.9 17.6 23.6 12.5 5.7-5.1 12.8-13.9 11.9-30.2-0.8-16.3-34.4-27.4-39.8-11.8z"/><path class="cQ" d="m485.1 408.1c0 0-13.5-22.9-28-6l-0.6 6.3c0 0-15.8-2.6-12.4-17.2 3.5-14.5 20.9-26 38.3-18.8 17.5 7.1 24.3 17.2 24.9 30 0.5 12.8-9.5 9.5-9.5 9.5 0 0-2.9-9.1-7.5-10.3-4.7-1.1-3.8 5.9-3.8 5.9z"/><path class="cR" d="m488.8 408c0 0-7-11.8 0.8-13.1 7.8-1.3 6 11.4 5 16.1z"/><path class="cS" d="m466.8 539.2l16.5-15.9 22.8 9.7c0 0 22.7 3.5 35.7 0 13-3.6 13-3.6 13-3.6l29.3-9.1 4.7 13c1.1 3.3 0 7-2.9 9.1-2.5 1.8-5.5 3.7-7.4 4.6-3.9 1.7-95.3-1.2-95.3-1.2z"/><path class="cT" d="m483.5 375.5c-4.1 0.3-6.7-4.3-4.6-7.8 6.8-11.3 21.1-25.2 47.9-13.7 30.1 12.9 46.1 18.3 52.2 15.2 4.1-2 8.6 1.5 7.4 5.8-0.9 3.2-3.3 6.9-8.3 10.8-38.9 30.1-70.7-12.2-94.6-10.3z"/></svg>