<svg version="1.2" xmlns="http://www.w3.org/2000/svg" viewBox="0 0 2836 2825" width="2836" height="2825"><defs><linearGradient id="P" gradientUnits="userSpaceOnUse"/><linearGradient id="g1" x1="3927.5" y1="2581" x2="3283.8" y2="3387.2" href="#P"><stop stop-color="#ffc444"/><stop offset="1" stop-color="#f36f56"/></linearGradient><clipPath clipPathUnits="userSpaceOnUse" id="cp1"><path d="m1218.94 2527.73c84.15-133.06 191.76-344.84 216.08-619.49 27.92-315.37-79.49-425.38-101.23-783.91-31.03-511.79 242.01-759.8 116.36-964.46-61.27-99.8-187.65-152.34-284.75-118-277.05 97.95-454.46 952.03-194.74 1421.9 117.47 212.51 261.67 252.97 326.95 491.95 57.69 211.18-14.07 428.37-78.67 572.01z"/></clipPath><linearGradient id="g2" x1="3017.3" y1="1087.9" x2="2318.5" y2="3173" href="#P"><stop stop-color="#aa80f9"/><stop offset="1" stop-color="#6165d7"/></linearGradient><clipPath clipPathUnits="userSpaceOnUse" id="cp2"><path d="m1308.73 2513.68c52.81-117.12 118.43-307.04 84.18-515.47-59.76-363.63-356.22-374.34-519.08-804.96-131.36-347.31-7.8-523.55-186.72-792.41-29.94-45-186.35-289.16-364.63-255.24-100.47 19.11-163.29 117.9-175.08 136.44-178.24 280.29-52.46 887.24 232.07 1259.09 163.47 213.64 240.54 198.01 550.44 496.69 182.1 175.51 305.04 355.19 378.82 475.86z"/></clipPath><linearGradient id="g3" x1="2804.2" y1="1148.4" x2="230.5" y2="3262.5" href="#P"><stop stop-color="#ff9085"/><stop offset="1" stop-color="#fb6fbb"/></linearGradient><clipPath clipPathUnits="userSpaceOnUse" id="cp3"><path d="m2206.43 1873.08c-76.28-85.94-202.26-213.47-376.83-325.3-310.51-198.92-464.85-149.64-587.46-336.9-126.92-193.83-21.57-338.27-174.67-557.02-12.87-18.39-177.7-248.14-347.95-209.3-119.11 27.16-176.93 171.19-204.05 238.76-105.29 262.27-94.36 696.46 141.02 957.02 223.15 247.02 535.35 213.71 634.54 202.33 174.01-19.96 220.79-89.34 397.17-103.61 214.5-17.34 398.92 64.75 518.23 134.02z"/></clipPath><clipPath clipPathUnits="userSpaceOnUse" id="cp4"><path d="m890.39 1599.97c-75.39 0-152.54-15.4-229.55-45.83-101.55-40.13-203.12-106.67-301.88-197.76l2.36-2.56c222.88 205.58 417.56 245.35 541.58 242.52 125.12-2.86 205.36-48.38 216.39-55-83.33-177.29-52.34-346.51-11.59-457.38 44.25-120.39 109.25-199.83 109.91-200.62l2.68 2.22c-0.65 0.79-65.33 79.85-109.36 199.71-40.6 110.51-71.44 279.33 12.17 455.99l0.65 1.39-1.28 0.82c-0.83 0.53-84.25 53.26-219.49 56.35q-6.29 0.14-12.59 0.15z"/></clipPath><linearGradient id="g4" x1="2825.4" y1="1748.5" x2="857.8" y2="4115.5" href="#P"><stop stop-color="#444b8c"/><stop offset="1" stop-color="#26264f"/></linearGradient><linearGradient id="g5" x1="2603.5" y1="1758.3" x2="2141.8" y2="2705.1" href="#P"><stop stop-color="#ff9085"/><stop offset="1" stop-color="#fb6fbb"/></linearGradient><linearGradient id="g6" x1="2132.8" y1="1771.8" x2="1784.8" y2="1458.1" href="#P"><stop stop-color="#444b8c"/><stop offset="1" stop-color="#26264f"/></linearGradient><linearGradient id="g7" x1="1652.9" y1="1047.6" x2="1295.9" y2="725.8" href="#P"><stop stop-color="#444b8c"/><stop offset="1" stop-color="#26264f"/></linearGradient><linearGradient id="g8" x1="2151.4" y1="1751.2" x2="1803.4" y2="1437.5" href="#P"><stop stop-color="#aa80f9"/><stop offset="1" stop-color="#6165d7"/></linearGradient><linearGradient id="g9" x1="1426.8" y1="656.1" x2="2278.5" y2="394.2" href="#P"><stop stop-color="#aa80f9"/><stop offset="1" stop-color="#6165d7"/></linearGradient><linearGradient id="g10" x1="2675.8" y1="1200.7" x2="1404" y2="1299.1" href="#P"><stop stop-color="#ffc444"/><stop offset="1" stop-color="#f36f56"/></linearGradient><linearGradient id="g11" x1="2680.1" y1="1205.6" x2="1486.3" y2="1298" href="#P"><stop stop-color="#ffc444"/><stop offset="1" stop-color="#f36f56"/></linearGradient><linearGradient id="g12" x1="2607.6" y1="783.1" x2="2060" y2="289.4" href="#P"><stop stop-color="#aa80f9"/><stop offset="1" stop-color="#6165d7"/></linearGradient><linearGradient id="g13" x1="2828.5" y1="566.6" x2="2629" y2="582" href="#P"><stop stop-color="#aa80f9"/><stop offset="1" stop-color="#6165d7"/></linearGradient><linearGradient id="g14" x1="2386.6" y1="1052" x2="1832.1" y2="552.1" href="#P"><stop offset="0" stop-color="#ebeff2"/><stop offset="1" stop-color="#fff"/></linearGradient><linearGradient id="g15" x1="2434.4" y1="980.9" x2="1720.4" y2="337.2" href="#P"><stop offset="0" stop-color="#ebeff2"/><stop offset="1" stop-color="#fff"/></linearGradient><linearGradient id="g16" x1="1987.9" y1="337.5" x2="2379.9" y2="178.9" href="#P"><stop offset="0" stop-color="#ebeff2"/><stop offset="1" stop-color="#fff"/></linearGradient><linearGradient id="g17" x1="2925.6" y1="650.1" x2="2042.4" y2="862.9" href="#P"><stop stop-color="#444b8c"/><stop offset="1" stop-color="#26264f"/></linearGradient><linearGradient id="g18" x1="2575.1" y1="699.2" x2="2014.9" y2="1232.4" href="#P"><stop stop-color="#ffc444"/><stop offset="1" stop-color="#f36f56"/></linearGradient><linearGradient id="g19" x1="1861.4" y1="1400.3" x2="1529.7" y2="1101.3" href="#P"><stop stop-color="#aa80f9"/><stop offset="1" stop-color="#6165d7"/></linearGradient><linearGradient id="g20" x1="1564.9" y1="1051.9" x2="2164.1" y2="711.8" href="#P"><stop stop-color="#aa80f9"/><stop offset="1" stop-color="#6165d7"/></linearGradient><linearGradient id="g21" x1="1625.7" y1="1067.9" x2="2081" y2="809.4" href="#P"><stop stop-color="#444b8c"/><stop offset="1" stop-color="#26264f"/></linearGradient><linearGradient id="g22" x1="2935" y1="633.7" x2="1930.1" y2="875.8" href="#P"><stop stop-color="#444b8c"/><stop offset="1" stop-color="#26264f"/></linearGradient><linearGradient id="g23" x1="2327.8" y1="2640.9" x2="2348.6" y2="3015.7" href="#P"><stop stop-color="#444b8c"/><stop offset="1" stop-color="#26264f"/></linearGradient><linearGradient id="g24" x1="2321.1" y1="2821.5" x2="2312.1" y2="2411.7" href="#P"><stop stop-color="#ffc444"/><stop offset="1" stop-color="#f36f56"/></linearGradient><linearGradient id="g25" x1="2678.6" y1="2650.8" x2="2695.4" y2="2954" href="#P"><stop stop-color="#444b8c"/><stop offset="1" stop-color="#26264f"/></linearGradient><linearGradient id="g26" x1="2557.5" y1="2815.7" x2="2548.7" y2="2413" href="#P"><stop stop-color="#ffc444"/><stop offset="1" stop-color="#f36f56"/></linearGradient><linearGradient id="g27" x1="1447.7" y1="1960.2" x2="1635.7" y2="1707.9" href="#P"><stop stop-color="#311944"/><stop offset="1" stop-color="#6b3976"/></linearGradient><linearGradient id="g28" x1="1716.2" y1="2229.4" x2="2411.7" y2="1580.8" href="#P"><stop stop-color="#311944"/><stop offset="1" stop-color="#6b3976"/></linearGradient><linearGradient id="g29" x1="2300.6" y1="1713.3" x2="2622.7" y2="2769.2" href="#P"><stop stop-color="#ffc444"/><stop offset="1" stop-color="#f36f56"/></linearGradient><linearGradient id="g30" x1="2242.7" y1="2288.1" x2="2106.7" y2="2095.4" href="#P"><stop stop-color="#444b8c"/><stop offset="1" stop-color="#26264f"/></linearGradient><linearGradient id="g31" x1="1497.5" y1="1843.3" x2="1653.4" y2="1634.2" href="#P"><stop stop-color="#311944"/><stop offset="1" stop-color="#6b3976"/></linearGradient><linearGradient id="g32" x1="1964.4" y1="1679.8" x2="2278.4" y2="1679.8" href="#P"><stop stop-color="#ffc444"/><stop offset="1" stop-color="#f36f56"/></linearGradient><linearGradient id="g33" x1="2916.9" y1="1524.3" x2="3153.7" y2="2300.9" href="#P"><stop stop-color="#ffc444"/><stop offset="1" stop-color="#f36f56"/></linearGradient><linearGradient id="g34" x1="2955.5" y1="1488.7" x2="3056.7" y2="2107.6" href="#P"><stop stop-color="#ffc444"/><stop offset="1" stop-color="#f36f56"/></linearGradient><linearGradient id="g35" x1="2708.8" y1="1594.4" x2="2951.6" y2="2390.4" href="#P"><stop stop-color="#ffc444"/><stop offset="1" stop-color="#f36f56"/></linearGradient></defs><style>.a{fill:url(#g1)}.b{fill:#fff}.c{fill:url(#g2)}.d{fill:url(#g3)}.e{fill:none}.f{fill:url(#g4)}.g{opacity:.6;fill:#fff}.h{opacity:.5;fill:#fff}.i{fill:#bfc8d6}.j{fill:#d8dee8}.k{fill:url(#g5)}.l{opacity:.6;mix-blend-mode:soft-light;fill:#fff}.m{fill:url(#g6)}.n{fill:url(#g7)}.o{fill:url(#g8)}.p{fill:url(#g9)}.q{fill:url(#g10)}.r{fill:url(#g11)}.s{fill:url(#g12)}.t{opacity:.3;mix-blend-mode:multiply;fill:url(#g13)}.u{fill:url(#g14)}.v{mix-blend-mode:multiply;fill:url(#g15)}.w{fill:url(#g16)}.x{fill:url(#g17)}.y{fill:url(#g18)}.z{fill:url(#g19)}.A{fill:url(#g20)}.B{fill:url(#g21)}.C{fill:url(#g22)}.D{opacity:.7;fill:#fff}.E{fill:url(#g23)}.F{fill:url(#g24)}.G{fill:url(#g25)}.H{fill:url(#g26)}.I{fill:url(#g27)}.J{fill:url(#g28)}.K{fill:url(#g29)}.L{fill:url(#g30)}.M{opacity:.3;mix-blend-mode:multiply;fill:url(#g31)}.N{fill:url(#g32)}.O{fill:url(#g33)}.P{fill:url(#g34)}.Q{fill:url(#g35)}</style><path class="a" d="m1218.9 2527.7c84.2-133 191.8-344.8 216.1-619.5 27.9-315.3-79.5-425.3-101.2-783.9-31-511.8 242-759.8 116.4-964.4-61.3-99.8-187.7-152.4-284.8-118-277.1 97.9-454.5 952-194.7 1421.9 117.4 212.5 261.6 252.9 326.9 491.9 57.7 211.2-14.1 428.4-78.7 572z"/><g clip-path="url(#cp1)"></g><g style="mix-blend-mode:soft-light"><path class="b" d="m1356.4 2160.9l-3.4-0.3c4.8-68.7 4.6-138.2-0.4-206.7-11.6-157.3-46.1-255.5-89.8-379.7-28.5-81.1-60.7-172.9-92.4-298.5-59.3-235-75.5-315.6-76.4-435.1-1.8-236.4 62.1-421.1 100.3-510.2 54.2-126.4 127.8-237.6 218.7-330.5l2.5 2.5c-90.6 92.5-163.9 203.3-218 329.4-38.1 88.8-101.8 273-100 508.8 0.9 119.1 17.1 199.5 76.3 434.2 31.6 125.5 63.8 217.2 92.3 298.2 43.7 124.5 78.3 222.9 90 380.6 5 68.7 5.2 138.4 0.3 207.3z"/><path class="b" d="m1105.9 678.1l-2.1-2.7c-0.5-0.7-53.7-71.4-86.7-184-30.5-103.9-49.5-265.9 33-447.3l3.2 1.5c-82.1 180.3-63.2 341.3-32.9 444.7 29.1 99.5 74.1 166.1 84.2 180.2 47.8-152.8 158.8-218.6 243.9-246.9 92.7-30.8 175.4-24.9 176.2-24.9l-0.2 3.5c-0.8-0.1-82.9-5.9-175 24.8-84.9 28.2-195.9 94.1-242.6 247.9z"/><path class="b" d="m1132.1 1212.4c-24.3 0-65-2.7-111.4-16.4-68.8-20.4-164.7-70.1-230.3-191.3l3.1-1.7c65 120.2 160 169.5 228.2 189.7 67.5 20 122.8 16.2 132.3 15.3 10.9-165.8 72.1-266.1 121.7-321 53.9-59.8 106.1-80.4 106.6-80.6l1.3 3.3c-0.5 0.2-52.1 20.5-105.5 79.8-49.2 54.6-110.2 154.6-120.7 320.2l-0.1 1.5-1.4 0.2c-0.3 0-9 1-23.8 1z"/><path class="b" d="m1169.1 1560.3c-6.9 0-14.2-0.3-21.8-0.9-61-4.9-156.9-33.4-267.3-141.3l2.4-2.5c109.7 107.1 204.7 135.4 265.2 140.3 59.5 4.8 97.9-11.6 104.5-14.6-11-178.7 139.8-398.6 141.3-400.8l2.9 2c-1.5 2.2-152.3 222.1-140.6 399.7l0.1 1.2-1 0.5c-0.4 0.2-32.4 16.4-85.7 16.4z"/></g><path class="c" d="m1308.7 2513.7c52.8-117.1 118.5-307.1 84.2-515.5-59.7-363.6-356.2-374.3-519.1-804.9-131.3-347.4-7.8-523.6-186.7-792.5-29.9-45-186.3-289.1-364.6-255.2-100.5 19.1-163.3 117.9-175.1 136.4-178.2 280.3-52.5 887.3 232.1 1259.1 163.4 213.7 240.5 198 550.4 496.7 182.1 175.5 305.1 355.2 378.8 475.9z"/><g clip-path="url(#cp2)"></g><g style="mix-blend-mode:soft-light"><path class="b" d="m1299.7 2676.1l-3.5-0.4c33.8-317.1-6.1-556-118.7-710.2-54.9-75.2-107.4-105.3-162.9-137.2-60.5-34.7-123.1-70.5-191.1-168.8-66.2-95.5-79.3-166.3-96-256-14.8-80-33.2-179.6-96.2-328-55.1-130.2-102.5-200.1-144.3-261.7-45.6-67.3-81.6-120.4-110.7-226.2-47.4-172.4-42.4-366.1 14.9-575.6l3.3 0.9c-57.1 208.9-62.1 402-14.8 573.8 28.9 105.2 64.8 158.1 110.2 225.1 41.9 61.8 89.3 131.8 144.6 262.3 63.1 148.8 81.6 248.6 96.5 328.7 16.5 89.3 29.6 159.8 95.3 254.7 67.7 97.6 129.9 133.3 190 167.8 55.9 32.1 108.7 62.3 164 138.2 113.1 154.9 153.3 394.6 119.4 712.6z"/><path class="b" d="m508.4 842.3l-2.4-0.9c-192.2-72-308.8-217-372.7-326.1-69.2-118-93.3-220.5-93.5-221.5l3.4-0.8c0.2 1.1 24.2 103 93.2 220.7 63.4 108 178.7 251.7 368.6 323.6 0.3-17.5 3.5-125.3 25.1-244.2 21.6-119.6 66.9-275.2 159.6-337.5l1.9 2.9c-175.6 118.1-183.2 576.7-183.2 581.3z"/><path class="b" d="m656.7 1237.4c-41.3 0-116.2-4.5-205.4-30.4-125.3-36.3-305.3-123.5-451.2-332.3l2.9-2c145.2 208 324.5 294.8 449.2 331 126.4 36.6 223.8 30.2 236.8 29.1 12.9-236 144.2-523.2 145.6-526.1l3.1 1.5c-1.3 2.8-132.9 290.7-145.3 526.3l-0.1 1.5-1.5 0.1c-0.3 0-12.6 1.3-34.1 1.3z"/><path class="b" d="m762.4 1824.2c-98.4 0-241.6-17.5-407.6-91.3l1.4-3.1c182.6 81.1 337.4 94 435.2 90.4 96.7-3.5 157.9-23.2 168.2-26.7-40.6-134.1-19.2-280.9 5.9-380.6 27.4-108.4 65-186.1 65.4-186.9l3.1 1.5c-1.5 3.1-149.2 310.6-70.6 566.5l0.5 1.6-1.5 0.6c-0.6 0.2-64.6 23.7-170.9 27.5q-13.8 0.5-29.1 0.5z"/></g><path class="d" d="m2206.4 1873.1c-76.2-86-202.2-213.5-376.8-325.3-310.5-198.9-464.8-149.7-587.5-336.9-126.9-193.8-21.5-338.3-174.6-557-12.9-18.4-177.7-248.2-348-209.3-119.1 27.1-176.9 171.1-204 238.7-105.3 262.3-94.4 696.5 141 957 223.1 247.1 535.3 213.8 634.5 202.4 174-20 220.8-89.4 397.2-103.6 214.5-17.4 398.9 64.7 518.2 134z"/><g clip-path="url(#cp3)"></g><g style="mix-blend-mode:soft-light"><path class="b" d="m2269.1 1948.3c-184.8-211.5-372.5-331.5-557.9-356.6-80.9-10.9-139.3-1.3-195.8 8.1-71.4 11.8-138.9 22.9-247-4.3-194.3-48.9-354.2-160.3-450.2-313.6-148.6-237.3-156.2-586.4-19.2-889.3l3.2 1.4c-136.5 301.9-129 649.7 19 886 95.5 152.6 254.6 263.4 448 312.1 107.5 27 174.6 16 245.6 4.2 56.7-9.4 115.4-19.1 196.9-8 186.2 25.2 374.7 145.5 560 357.7z"/><path class="b" d="m752.2 1134l-2.6-1.7c-0.8-0.4-77.7-50.4-153-135.6-69.6-78.7-152-204.4-149.4-356.4l3.5 0.1c-2.6 150.9 79.3 275.8 148.5 354 67.2 76 135.6 123.8 149.7 133.3 5.3-196.6 117.7-323.9 211.3-396.1 101.9-78.6 204.1-110.7 205.2-111.1l1 3.4c-1 0.3-102.8 32.3-204.2 110.5-93.4 72.2-205.7 199.5-209.9 396.5z"/><path class="b" d="m890.4 1600c-75.4 0-152.6-15.4-229.6-45.9-101.5-40.1-203.1-106.6-301.8-197.7l2.3-2.6c222.9 205.6 417.6 245.4 541.6 242.5 125.1-2.8 205.4-48.3 216.4-55-83.3-177.2-52.4-346.5-11.6-457.3 44.2-120.4 109.3-199.9 109.9-200.7l2.7 2.3c-0.7 0.7-65.3 79.8-109.4 199.7-40.6 110.5-71.4 279.3 12.2 456l0.7 1.3-1.3 0.9c-0.9 0.5-84.3 53.2-219.5 56.3q-6.3 0.2-12.6 0.2z"/></g><g style="mix-blend-mode:soft-light"><g clip-path="url(#cp4)" style="mix-blend-mode:soft-light"><path class="e" d="m2269.1 1948.3c-184.8-211.5-372.5-331.5-557.9-356.6-80.9-10.9-139.3-1.3-195.8 8.1-71.4 11.8-138.9 22.9-247-4.3-194.3-48.9-354.2-160.3-450.2-313.6-148.6-237.3-156.2-586.4-19.2-889.3l3.2 1.4c-136.5 301.9-129 649.7 19 886 95.5 152.6 254.6 263.4 448 312.1 107.5 27 174.6 16 245.6 4.2 56.7-9.4 115.4-19.1 196.9-8 186.2 25.2 374.7 145.5 560 357.7z"/></g></g><path class="f" d="m2198.7 1141.7l-2024.8-91.6c-23.8-1.1-43.2 17.6-43.2 41.7v1690.5c0 24.1 19.4 42.6 43.2 41.2l2024.8-111.6c18.6-1.1 33.7-19.1 33.7-40.3v-1490c0-21.2-15.1-39.1-33.7-39.9z"/><path fill-rule="evenodd" class="g" d="m176.3 2778.1v-1682.6l5.4 0.2 2016.2 85.4v1491.4l-4.9 0.3zm10.3-1670.5v1658.1l2000.9-104.5v-1468.9z"/><g style="opacity:.6"><path class="b" d="m330.7 2564.6c-10.9 0-21.4-4.5-29.2-13-9.5-10.3-13.1-24.4-9.9-38.7 47.4-208.6 167.7-295.9 235.1-329.3l4.1 10.8c-65.7 32.6-182.9 117.7-229.2 321.5-2.3 10 0.3 19.9 7 27.2 8.4 9.1 21.1 12.1 33.1 7.7l169.6-61.3c25.4-9.3 46.4-29 57.5-54.3l31.4-71.5 9.2 5.3-31.4 71.5c-12.3 28.1-35.5 50-63.6 60.2l-169.6 61.4c-4.7 1.7-9.4 2.5-14.1 2.5z"/><path class="b" d="m1230.5 2528.1c-3.3 0-6.7-0.5-9.9-1.5l-156-46.4c-26.6-8-48.7-27.9-60.5-54.6l-31.7-71.9 9.2-5.3 31.7 71.9c10.5 23.7 30.1 41.4 53.9 48.5l156 46.4c10 3 20.9-0.3 28.3-8.7 6.7-7.6 9.3-17.5 7.2-27.3-41.5-190.3-149.2-266.5-209.7-295.1l3.9-10.8c30.5 14.3 75.5 41.8 117.1 91.1 46.9 55.5 80.1 126.8 98.7 211.9 3 13.7-0.7 28.1-9.9 38.6-7.6 8.5-17.8 13.2-28.3 13.2z"/><path class="b" d="m655.1 2493.3c-9.2 0-17.5-4.9-22.3-13.1-4.6-7.8-5.3-17.2-2-25.9l29.6-76.9 9.4 4.7-29.6 76.9c-1.9 5-1.5 10.3 1.1 14.6 3 5.2 8.4 8.1 14.4 7.9l273.8-10.2c5.8-0.2 11.1-3.6 14.1-9 2.4-4.5 2.8-9.7 1-14.3l-29.5-73.7 9.3-4.9 29.6 73.7c3.2 8.4 2.6 17.6-1.7 25.5-4.8 8.7-13.2 14.1-22.5 14.5l-273.7 10.1q-0.5 0.1-1 0.1z"/><path fill-rule="evenodd" class="b" d="m782.2 2399.1c-57.7 0-116.6-10.4-176.2-31.4-8.2-2.8-14.7-8.9-18.5-17-29.5-64.3-175.5-399.2-145.4-677 25.9-239.2 224-382.8 307.9-433.5 13.3-8 23.9-13.8 30.4-17.2 6.3-3.3 9.6-5 11.6-5.8 0.3-0.1 0.6-0.3 1-0.3 1.5-0.4 2.1-0.1 3.2 0.6v0.1c3.6 1.5 10.9 5.7 27.1 16.2 36.6 23.6 107.9 74.6 172.9 150.3 79.3 92.2 125 192 135.9 296.5 27.7 266.8-109 595.6-136.7 658.8-3.4 7.8-9.4 14-16.9 17.3-63.5 28.3-129.2 42.4-196.3 42.4zm11.4-1169.9c-26.1 12.8-310.3 159.7-341.3 446-29.7 274.3 115 606.2 144.3 670 2.5 5.3 6.9 9.4 12.4 11.3 126.7 44.4 249.8 40.8 365.8-10.8 5-2.2 9.1-6.3 11.4-11.6 27.5-62.7 163.1-388.6 135.7-652.1-28.8-277.3-302.6-438.5-328.1-452.8l-0.1 0.1z"/><path fill-rule="evenodd" class="b" d="m790.9 2083.8c-65.7 0-128.8-28.8-173.5-79.4-40.7-45.9-63.1-105.9-63.1-168.8 0-62.9 22.4-122.8 63.1-168.8 45.4-51.2 109.8-80 176.5-79.1 62.5 1 121.1 27.2 165.1 74 43.9 46.8 68.1 108.7 68.1 174.3 0 65.5-24.2 127.4-68.1 174.1-44 46.7-102.6 72.9-165.1 73.7q-1.5 0-3 0zm-0.3-484.3c-62.9 0-123.2 27.5-166 75.7-38.7 43.7-60 100.7-60 160.4 0 59.7 21.3 116.7 60 160.4 42.8 48.5 103.3 76.1 166.3 76.1q1.4 0 2.9-0.1c123-1.6 223-107.5 223-236 0-128.6-100-234.6-223-236.5q-1.6 0-3.2 0z"/><path fill-rule="evenodd" class="b" d="m792 2035c-52.8 0-103.5-23.2-139.4-63.9-32.6-36.9-50.5-85-50.5-135.5 0-50.4 17.9-98.5 50.5-135.4 36.3-41.1 87.9-64.3 141.3-63.7 50.3 0.6 97.4 21.7 132.8 59.2 35.4 37.6 55 87.4 55 140.2 0 52.8-19.6 102.6-55 140.1-35.4 37.5-82.5 58.5-132.8 59q-0.9 0-1.9 0zm-0.3-386.7c-50 0-97.9 21.9-131.9 60.3-30.6 34.6-47.4 79.8-47.4 127 0 47.3 16.8 92.4 47.4 127.1 34.4 39 83.2 61.1 134 60.5 97.9-1 177.6-85 177.6-187.3 0-102.2-79.7-186.4-177.6-187.6q-1 0-2.1 0z"/><path class="b" d="m1056.9 1482.4l-534.6-11.9 0.2-11.8 534.6 11.9z"/></g><path class="g" d="m181.7 2647.4l-0.4-11.8 2011.2-90.2 0.4 11.8z"/><path class="g" d="m1407.9 2710.5h-10.3v-123.8h10.3z"/><path class="g" d="m1401.9 2654.6l-0.5-11.8 791.1-38.5 0.4 11.8z"/><path class="g" d="m1547 2641.9h-10.3v-61.4h10.3z"/><path class="g" d="m1747.2 2632.1h-10.3v-60.6h10.3z"/><path class="g" d="m1608.4 1254.9l-813.9-29.9 0.1-4.7 814 29.9z"/><path class="g" d="m1268.7 2529.1l-0.1-4.7 340.8-14 0.2 4.7z"/><path class="g" d="m1056.9 2180.3l-0.1-4.7 552.7-10.8v4.7z"/><path class="g" d="m1609.5 1491.2l-552.7-12.3 0.1-4.7 552.6 12.3z"/><path class="g" d="m1585.9 2512.7h-4.2v-1259.9h4.2z"/><path class="g" d="m1022.8 2077.5l-0.6-0.7-353.4-384.9 2.9-3.4 352.7 384.2 379.4-5.1 0.1 4.8z"/><path class="h" d="m2106.8 1301.6l-395.3-13.7v-30.4l395.3 14.5z"/><path class="h" d="m2106.8 1349.5l-395.3-12.6v-30.4l395.3 13.3z"/><path class="h" d="m2106.8 1397.3l-395.3-11.3v-30.4l395.3 12.1z"/><path class="h" d="m2106.8 1670.8l-395.3-4.5v-30.3l395.3 5.2z"/><path class="h" d="m2106.8 1718.7l-395.3-3.3v-30.4l395.3 4.1z"/><path class="h" d="m2106.8 1766.6l-395.3-2.1v-30.4l395.3 2.8z"/><path class="h" d="m2106.8 1481.7l-213.8-5v-30.1l213.8 5.4z"/><path class="h" d="m2106.8 1529.5l-213.8-4.3v-30.1l213.8 4.8z"/><path class="h" d="m2106.8 1577.4l-213.8-3.7v-30l213.8 4.1z"/><path fill-rule="evenodd" class="g" d="m1709.4 2509.9v-668.3l399.5 0.1v651.9zm4.1-663.6v658.7l391.2-16v-642.6z"/><path class="g" d="m1711.5 1946.7l-0.1-4.7 395.4-2.3v4.7z"/><path class="g" d="m1711.5 1998.1l-0.1-4.7 395.4-3.6v4.7z"/><path class="g" d="m1711.5 2049.5l-0.1-4.7 395.4-4.8v4.7z"/><path class="g" d="m1711.5 2100.9l-0.1-4.7 395.4-6.1v4.7z"/><path class="g" d="m1711.5 2152.3l-0.1-4.7 395.4-7.4 0.1 4.8z"/><path class="g" d="m1711.5 2250.5l-0.1-4.7 395.4-9.8 0.1 4.7z"/><path class="g" d="m1711.5 2301.9l-0.1-4.7 395.4-11.1 0.1 4.7z"/><path class="g" d="m1711.5 2353.3l-0.1-4.7 395.4-12.3 0.1 4.7z"/><path class="g" d="m1711.5 2404.7l-0.1-4.7 395.4-13.6 0.1 4.7z"/><path class="g" d="m1711.5 2456.1l-0.1-4.7 395.4-14.9 0.1 4.7z"/><path class="g" d="m1839.2 2503.5h-4.1v-659.5h4.1z"/><path class="h" d="m1551.6 1875.7l-21.6 0.1v-65h21.6z"/><path class="h" d="m1551.6 2385.4l-21.6 0.7v-65l21.6-0.6z"/><path class="h" d="m1377.5 2039.4l-148.7 1.7v-40.9l148.7-1.4z"/><path class="i" d="m1937.6 946.8c-3.2-23.4-23.7-43-44.7-43.8l-1010.3-38.2c-25.1-0.9-41.6 19.2-38 44.9l209.8 1524.7c3.5 25.7 24.5 44.7 49.2 42.3l993-98c20.6-2 35-22.6 31.7-46z"/><path class="j" d="m1963.9 946.8c-3.3-23.4-22.2-43-43.2-43.8l-1009.9-38.2c-25.1-0.9-41.2 19.2-37.6 44.9l209.8 1524.7c3.6 25.7 24.8 44.7 49.5 42.3l991.7-98c20.6-2 33.6-22.6 30.4-46z"/><path class="k" d="m1931.7 1042.9l165.3 1200.7c1.7 12.4-6.2 24.5-17.2 25.5l-862.8 76-67.8 6c-3.9 0.3-7.8-0.5-11.1-2.1-7.8-3.8-13.7-12.3-15-21.8l-180.1-1309c-1-7.4 0.4-13.9 4.9-18.3 1.2-1.2 2.7-2.3 4.2-3.1 2.7-1.6 6-2.5 9.9-2.4l69.2 1.9 876.8 23.7c11.2 0.3 22 10.5 23.7 22.9z"/><path class="l" d="m2062.5 2270.6l-912.9 80.4c-13 1.2-24.6-10.3-26.5-23.8l-180.1-1309c-1-7.4 0.8-14 5.2-18.3 4.1 7.7 8.2 15.4 12.7 22.9 134.3 221.1 321.2 76.5 488 294.7 130.5 170.9 70.1 332.7 217.1 522.5 116.2 150.1 194.3 99 301.3 243.3 41.1 55.6 71.9 120.8 95.2 187.3z"/><path class="i" d="m1726.4 2359.2c1 7.6-4.4 14.1-12.1 14.6l-130 9c-7.9 0.5-15.2-5.2-16.3-12.8-1-7.6 4.6-14.3 12.5-14.8l130-8.7c7.8-0.5 14.9 5.2 15.9 12.7z"/><path class="m" d="m2255.5 1005.2c0 0 161.7 207-7 512.3-15.7 28.4-56.4 28.8-72.9 0.8l-104.9-178.3c-16.9-28.6-20.8-63-11-94.7l50.6-162.6z"/><path class="n" d="m1885.8 671.9c0 0-222.6-139.5-508.8 59.7-26.7 18.6-22.9 59.2 6.6 72.7l188.3 86c30.2 13.8 64.8 14.2 95.3 1.1l156.5-67.2z"/><path class="o" d="m2274.1 984.5c0 0 161.7 207-6.9 512.3-15.8 28.5-56.5 28.9-73 0.9l-104.9-178.4c-16.9-28.6-20.8-62.9-11-94.6l50.6-162.7z"/><path class="p" d="m1904.4 651.3c0 0-222.6-139.5-508.8 59.7-26.7 18.6-22.9 59.2 6.6 72.7l188.3 85.9c30.2 13.8 64.8 14.2 95.3 1.2l156.5-67.2z"/><path class="q" d="m2118 169.8c260.3-231.3 659.8-116.3 659.9-115.7 0.6 0.1 156.2 385.5-47 668.3-184.3 256.6-568.6 427-642.4 457.9-7.9 3.4-20.7 7.8-24.8 0.3-79.8-147.1-193.1-244-333-300.1-7.7-3.1-4.4-16.1-2-24.1 22.9-75.5 152.7-476.4 389.3-686.6z"/><g style="opacity:.3;mix-blend-mode:multiply"><path class="r" d="m2251.7 553.4c145.6-128.4 270.4-64 410.2-174.9 51.1-40.6 108.4-107.9 145.9-228.1 32.6 132.5 63.4 376.7-76.9 572-184.3 256.6-568.6 427-642.4 457.9-7.9 3.4-20.7 7.8-24.8 0.3-40.3-74.3-89.2-135.8-145.7-185.7 53.4-27.3 92.6-59.1 122-90 118.5-124.7 79-234.6 211.7-351.5z"/></g><path class="s" d="m2603.5 247.5c-89.4-80.6-201.1-155.6-303.5-183.5 201.3-70.6 413.4-26.4 465.7-13.3 7.8 2 14.1 7.6 16.8 15.2 18.4 50.7 84.3 257.1 34.8 464.6-31.6-88.4-124.3-202.4-213.8-283z"/><path class="t" d="m2807.8 150.4q0.2 1 0.4 1.9 0.4 1.6 0.8 3.2 0.4 1.6 0.8 3.2 0.3 1.5 0.7 3.1 0.4 1.7 0.8 3.5 0.3 1.5 0.7 3 0.4 1.8 0.8 3.7 0.3 1.4 0.7 2.9 0.4 1.9 0.8 3.9 0.3 1.4 0.6 2.8 0.5 2.1 0.9 4.2 0.3 1.4 0.6 2.7 0.4 2.2 0.8 4.4 0.3 1.4 0.6 2.7 0.4 2.3 0.9 4.6 0.2 1.3 0.5 2.6 0.4 2.4 0.9 4.8 0.2 1.2 0.4 2.5 0.5 2.5 0.9 5 0.2 1.2 0.4 2.4 0.5 2.6 0.9 5.2 0.2 1.2 0.4 2.4 0.5 2.7 0.9 5.4 0.2 1.1 0.4 2.3 0.4 2.7 0.8 5.5 0.2 1.1 0.4 2.3 0.4 2.8 0.8 5.7 0.1 1.1 0.3 2.2 0.4 2.9 0.8 5.9 0.2 1.1 0.3 2.1 0.4 3 0.8 6.1 0.1 1 0.2 2.1 0.4 3 0.8 6.2 0.1 1 0.2 2 0.4 3.2 0.7 6.4 0.1 0.9 0.2 1.9 0.3 3.3 0.7 6.6 0.1 0.9 0.1 1.8 0.4 3.4 0.7 6.7 0 1 0.1 1.9 0.3 3.4 0.6 6.8 0 0.9 0.1 1.8 0.3 3.5 0.5 7 0.1 0.8 0.1 1.7 0.2 3.5 0.4 7.1 0.1 0.8 0.1 1.7 0.2 3.6 0.4 7.2 0 0.8 0.1 1.6 0.1 3.7 0.3 7.4 0 0.8 0 1.5 0.2 3.8 0.2 7.6 0.1 0.7 0.1 1.4 0.1 3.8 0.1 7.7 0 0.7 0 1.4 0.1 3.9 0.1 7.8 0 0.6 0 1.3 0 4 0 8 0 0.6-0.1 1.2 0 4-0.1 8.1 0 0.5 0 1.1-0.1 4.1-0.2 8.3-0.1 0.4-0.1 0.9-0.1 4.2-0.3 8.5 0 0.4-0.1 0.9-0.2 4.2-0.4 8.5 0 0.4-0.1 0.8-0.2 4.4-0.5 8.8-0.1 0.3-0.1 0.5-0.3 4.5-0.7 9 0 0.2 0 0.4-0.4 4.6-0.9 9.2 0 0.1 0 0.2c-2.8 28.7-7.5 57.8-14.5 86.9-20.2-56.5-65.4-123.4-118.7-185.4 40.2-41.8 80.5-102.7 109.2-194.7z"/><path class="u" d="m2142.2 339.8c-93.5 103.7-75.9 272 39.2 375.8 115.2 103.9 284.4 104 378 0.3 93.5-103.8 75.9-272.1-39.3-375.9-115.1-103.9-284.3-104-377.9-0.2z"/><path class="v" d="m2251.7 553.4c118.8-104.8 223.8-81.1 334.3-129.2 51.3 96.8 44.4 212.8-26.6 291.7-93.6 103.7-262.8 103.6-378-0.3-9.4-8.5-18.1-17.4-26.2-26.7 18.9-45 44.5-89.7 96.5-135.5z"/><path class="w" d="m2159.6 355.4c-85.7 95.1-69.6 249.4 36 344.6 105.5 95.2 260.6 95.3 346.4 0.2 85.7-95.1 69.6-249.4-36-344.6-105.6-95.1-260.6-95.2-346.4-0.2z"/><path class="x" d="m2184.3 377.7c-74.7 82.8-60.7 217.2 31.3 300.1 91.9 82.9 227 83 301.7 0.2 74.7-82.9 60.7-217.2-31.3-300.2-92-82.9-227.1-83-301.7-0.1z"/><path class="y" d="m1722.7 874.3c-25.5 28.3 31.5 121.2 127.3 207.6 95.8 86.4 194.1 133.4 219.6 105.1 25.6-28.3-31.4-121.2-127.2-207.6-95.8-86.4-194.2-133.4-219.7-105.1z"/><path class="z" d="m1882.3 972.6l74.4 67.1c39.6 35.8 53.6 91.9 35.4 142l-17.2 47.6c-6.4 17.5-28.5 23-42.3 10.5l-246.9-222.5c-13.8-12.5-10.6-35 6.1-43.2l45.6-22c48-23.3 105.3-15.2 144.9 20.5z"/><path class="A" d="m1674.9 989.6c-24.1 26.7 20.5 106.1 99.5 177.4 79.1 71.3 162.7 107.4 186.8 80.7 24.1-26.7-20.5-106.2-99.6-177.4-79-71.3-162.6-107.5-186.7-80.7z"/><path class="B" d="m1709.2 1020.5c-18.3 20.3 15.6 80.7 75.7 134.9 60.1 54.1 123.6 81.6 141.9 61.3 18.3-20.3-15.5-80.7-75.6-134.8-60.1-54.2-123.7-81.7-142-61.4z"/><g style="opacity:.3"><path class="C" d="m2251.7 553.4c101.1-89.1 192.1-85.3 285.1-111.8 42.9 78 38.1 172.5-19.5 236.4-74.7 82.8-209.8 82.7-301.7-0.2-13.5-12.1-25.2-25.4-35.3-39.4 16.7-28.1 38.9-56.4 71.4-85z"/></g><path class="D" d="m1931.7 1042.9l165.3 1200.7c1.7 12.4-6.2 24.5-17.2 25.5l-862.8 76-67.8 6c-3.9 0.3-7.8-0.5-11.1-2.1-7.8-3.8-13.7-12.3-15-21.8l-180.1-1309c-1-7.4 0.4-13.9 4.9-18.3 1.2-1.2 2.7-2.3 4.2-3.1 2.7-1.6 6-2.5 9.9-2.4l69.2 1.9 876.8 23.7c11.2 0.3 22 10.5 23.7 22.9z"/><path class="E" d="m2365.1 2779.2c0 0 2.1 16.5 0.7 22-1.4 5.5-49.3 9.5-65.5 7.6-16.3-1.9 9.6-18.6 20-21.7 10.4-3.1 44.8-7.9 44.8-7.9z"/><path class="F" d="m2341 2751.7l5.1 33.1c0 0 12.8 5.7 19 0l0.7-34.6z"/><path class="G" d="m2611.1 2750.2c0 0-10.2 7.6-7.5 16.6 2.7 9 26.5 45.2 43.4 55.5 16.9 10.3 11.6-11.1 6.6-24.5-4.9-13.3-17.4-42.7-22.3-47.6-5-4.9-20.2 0-20.2 0z"/><path class="H" d="m2592.8 2713.9c4.9 13.7 9.6 25 13.3 33.3 8.2 18.3 12.7 25.2 17.7 31.2 4.5 5.2 14.9 16.3 17.7 14.5 2.9-1.9-4.8-15.4-19.5-55-2.1-5.7-8.9-24-8.9-24z"/><path class="I" d="m2240.7 2141.6c-3.5 34.4-6.9 87.8-1.8 152.7 6.5 84.5 23.4 138 44.6 228 12.9 55.1 30.4 136.1 46.2 237.5 3.6 2.1 14.4 7.6 28.3 5.5 7.8-1.1 13.6-4.2 17-6.4 41.4-126.6 29.2-205.1 9.2-253.9-8.5-20.9-18.8-37.3-24.4-69.3-7.3-42.4 1.8-66.1 14.6-164.2 9.2-70 7.6-80.8 1.5-91.3-24.4-41.9-99.1-41.1-135.2-38.6z"/><path class="b" d="m1983.1 1787.4c0 0-5.8-22.8-15.5-28.9-9.7-6-23.4-12.4-26.5-15.1-3.1-2.6-6.8 5.3 2.2 11.4 9.1 6 9.1 6 9.1 6 0.1 1.7-0.1 3-0.4 3.9-1.4 4.3-6.3 7.2-12.4 7.8-23.1 4.8-32.2 5-35.7 4-0.5-0.1-2.5-0.8-3.4 0.1-1.4 1.4 1.1 6 2.1 7.6 6.3 9.6 28.1 13.7 44.4 6.2 5.9-2.7 8.2-5.6 12.5-4.9 6.9 1.2 11.2 10.3 13.7 17.8z"/><path class="J" d="m2383.3 2156.3c25.4 131.1 50.3 199.9 69.1 238.8 4.7 9.6 20.2 40.6 34.8 85 13 39.3 18.4 68.2 21.2 81 8.7 40.1 30.4 98.8 88.6 175.7 0.7 0.5 10.6 6.1 20.1 1.1 4.8-2.6 7.2-6.6 8.1-8.5-7.6-73.5-16.3-135.3-23.9-183-1.6-10-8.6-53.8-19.6-111.7-4.3-22.6-10.6-55.7-18.1-89.8-9.4-42.4-23.8-100.1-46-169.3q-67.2-9.6-134.3-19.3z"/><path class="K" d="m1964.4 1794.6q9.9-8.8 19.8-17.6c2.4 2.4 37.6 36.8 86.8 26.4 33.9-7.2 53.5-35 66-52.8 37.6-53.4 15.1-92.5 55.6-128.8 11.3-10.1 33.3-22.2 47.8-18.5 34.3 8.8 54.1 112.2 20.9 193.5-6.7 16.4-43.7 106.8-127.6 116.6-67.7 7.9-139.5-39.9-169.3-118.8z"/><path class="L" d="m2361.7 1637.9c-14.4-13.3-42-28.6-55.8-64.3-4.1-10.7-18.9-48.7 2.9-77.8 12.9-17.3 36.8-29 57.9-24.8 18.1 3.5 20.9 16.1 51.5 41.4 12 9.8 31.2 25.6 52.5 34.4 36.6 15.1 58.5 0.9 95.3 2.5 45.1 2 97.5 27.2 122.7 63.8 44.8 65-20.1 130.9 29 207 16.1 24.9 24 19.3 62.1 67.6 38.1 48.3 57.2 72.5 53.8 102.1-4.7 41.1-49 80.4-90.7 83-40.7 2.6-66.6-29.4-87.3-15.4-14.8 10-6.3 29.4-22 52.7-20.2 30.1-59.9 36-66.3 37-59.6 9-139.8-60.8-173.9-143.5-61.5-149.1 46.5-293.4-31.7-365.7z"/><path class="M" d="m2384.2 2505c-8.5-20.9-18.8-37.3-24.4-69.3-7.3-42.4 1.8-66.1 14.6-164.2 9.2-70 7.6-80.8 1.5-91.3-13.2-22.8-41.4-32.9-70.1-37 0.4 1.5 0.8 2.9 1.1 4.4 15.1 68.7-42.4 110.7-16.5 186.3 12.8 37.3 33.2 45.9 37.9 89.1 4.5 40.5-11.7 48.9-8.2 85.8 5.1 55 44.2 68.3 54.4 110.5 6.6 27.4 1.1 67.4-47.2 125.4 0.8 5 1.6 10 2.4 15.1 3.6 2.1 14.4 7.6 28.3 5.5 7.8-1.1 13.6-4.2 17-6.4 41.4-126.6 29.2-205.1 9.2-253.9z"/><path class="N" d="m2232.7 1702.2c-62 49-55.1 142.9-93.2 147.7-11.7 1.4-11-7.5-38.8-16.5-40.6-13.2-59.7 0.1-88.2-9.9-11.8-4.2-27.2-13.1-42.4-34q-2.9 2.5-5.7 5.1c29.8 78.9 101.6 126.7 169.3 118.8 83.9-9.8 120.9-100.2 127.6-116.6 15.6-38.2 19.5-81.2 15.7-117-14.3 4.2-29.8 11-44.3 22.4z"/><path class="O" d="m2187.7 1628c3.8-5.9 15.9-22.2 67.1-34.3 25.7-6 73.2-16.4 134.3-3.4 83.9 17.8 136.2 68.1 155.9 89.3-16.1 10.5-60.6 42.5-82.6 103.2-6.9 18.9-27.1 83.5 1.9 144 16.6 34.8 46.1 61 68.5 80.9 33.6 29.8 51 34.4 62.3 61.1 12.3 29.1-0.1 43.3 15.2 63.2 16.3 21.4 35.5 11.4 63.2 33 28.4 22.2 18.3 40.4 44.2 64.9 37.6 35.6 87.4 24 89.7 40 2 13.8-33.4 32.5-63.5 40-59.6 15-111.5-10.1-127-17.9-42.7-21.5-35.3-35.4-67.9-51.8-54.6-27.4-92 3.1-216.3 6.3-67.4 1.7-101.4 2-120.1-20.7-17-20.9-8-43.7 2.2-142.1q0 0 0 0c3.3-32.8 10.1-101.6 10.2-140.8 0-23.2-8-61-24.1-136.8-0.9-4.4-9.6-45.3-16.7-100-6.3-49.2-5.4-64.3 3.5-78.1z"/><path class="P" d="m2717.7 2244.5c-25.9-24.5-15.8-42.7-44.2-64.8-27.7-21.7-46.9-11.7-63.2-33.1-15.3-19.9-2.9-34.1-15.2-63.2-11.3-26.7-28.7-31.3-62.3-61.1-22.4-19.9-51.9-46-68.5-80.9-29-60.5-8.8-125.1-1.9-144 22-60.7 66.5-92.7 82.6-103.2-1.6-1.7-3.4-3.6-5.4-5.6-106.1 14.6-168 75.9-175.6 94.1-17.7 42 10.3 57.4 11 178.5 0.4 57.8-5.9 80.7 12.9 104.9 21.5 27.6 46.2 19 77.3 55.1 23.8 27.8 20 45.4 42.3 57.1 23.9 12.6 39.2-2.1 66.2 3.7 45.2 9.6 54.8 61.6 84.6 90.1 22.6 21.5 64.3 36.6 146.6 20.4 1.9-2.7 2.8-5.4 2.5-8-2.3-16-52.1-4.4-89.7-40z"/><path class="Q" d="m2396.2 1800.7c-11.3 24 40.5 79.8 98.2 106.3 11.7 5.4 96 44.2 133.6 6.9 31-30.8 11-94.5 3.8-117.2-35.1-111.7-143-168.5-188.2-189-33.7 84.4-13.9 122-6 133.7 8.1 12.3 30.9 38 55.2 60.7 17 16 27.6 23.8 26.2 26.2-1.8 3.1-21.8-2.7-99.3-40.5-9 1.5-19.7 4.8-23.5 12.9z"/><path class="b" d="m2354.7 1524.7c0 0 5.3 42.8 21.1 52.6 15.8 9.8 41.3 22.6 44.1 26.1 2.9 3.4-97.8 14.2-147.7-10.9 16.5-3.5 20.9-4.7 20.9-4.7 4.5-1.3 12.8-3.6 21.2-8.4 5.6-3.2 14.8-9.5 23.2-21.5l-0.2-23.6z"/><path class="b" d="m2357.1 1539.8c0 0-10.3 14.2-26.5 8.3-14.4-5.3-5.8-42.6 5.7-46.9 3.8-1.4 10.8-0.8 15.5 2.1 3.3 2.1 12.1 13 7.1 25.3 3.6-1 6.8-0.1 7.6 1.7 1.1 2.3-2 5.5-2.7 6.2-2.5 2.4-5.4 3.1-6.7 3.3z"/><path class="b" d="m2415.8 1795.1c0 0-47.3-48.3-66.6-55.5-19.2-7.1-7.7 3.3 0 9.4 7.7 6 12.9 8 8.9 17.2-3.9 9.2-11.1 17.3 0.2 24.5 11.3 7.2 15.7 9.9 24.5 11 8.8 1.1 8.8 1.1 8.8 1.1l11.5 6.2c0 0 14.9-1.8 12.7-13.9z"/></svg>