<svg version="1.2" xmlns="http://www.w3.org/2000/svg" viewBox="0 0 1008 576" width="1008" height="576">
	<title>18309229_SL-043021-42650-26-ai</title>
	<style>
		.s0 { fill: none;stroke: #38383e;stroke-width: 3;stroke-dasharray: 12,12 } 
	</style>
	<path id="Forma 2" class="s0" d="m778.5 418c-72.7 0-131.5-58.8-131.5-131.5 0-72.7 58.8-131.5 131.5-131.5 72.7 0 131.5 58.8 131.5 131.5 0 72.7-58.8 131.5-131.5 131.5z"/>
	<path id="Forma 2 copy" class="s0" d="m776.6 548c-143.8 0-260-116.2-260-260 0-143.8 116.2-260 260-260 143.8 0 260 116.2 260 260 0 143.8-116.2 260-260 260z"/>
	<path id="Forma 2 copy 2" class="s0" d="m777 677c-215.7 0-390-174.3-390-390 0-215.7 174.3-390 390-390 215.7 0 390 174.3 390 390 0 215.7-174.3 390-390 390z"/>
	<path id="Forma 2 copy 3" class="s0" d="m778 805.6c-287 0-519-232-519-519 0-287 232-519 519-519 287 0 519 232 519 519 0 287-232 519-519 519z"/>
	<path id="Forma 2 copy 4" class="s0" d="m778.5 932c-357.5 0-646.5-289-646.5-646.5 0-357.5 289-646.5 646.5-646.5 357.5 0 646.5 289 646.5 646.5 0 357.5-289 646.5-646.5 646.5z"/>
	<path id="Forma 2 copy 5" class="s0" d="m773.5 1064.6c-427.7 0-773.5-345.7-773.5-773.5 0-427.7 345.8-773.5 773.5-773.5 427.7 0 773.5 345.8 773.5 773.5 0 427.8-345.8 773.5-773.5 773.5z"/>
</svg>