<svg version="1.2" xmlns="http://www.w3.org/2000/svg" viewBox="0 0 2626 3144" width="2626" height="3144"><defs><linearGradient id="P" gradientUnits="userSpaceOnUse"/><linearGradient id="g1" x1="322.2" y1="2098.4" x2="3288.1" y2="-821.5" href="#P"><stop offset="0" stop-color="#e38ddd"/><stop offset="1" stop-color="#9571f6"/></linearGradient><linearGradient id="g2" x1="-516.8" y1="733.1" x2="1088.9" y2="-651.6" href="#P"><stop stop-color="#ffc444"/><stop offset="1" stop-color="#f36f56"/></linearGradient><linearGradient id="g3" x1="2171.7" y1="530.5" x2="1475" y2="496.3" href="#P"><stop stop-color="#ffc444"/><stop offset="1" stop-color="#f36f56"/></linearGradient><linearGradient id="g4" x1="1530" y1="494.2" x2="1465.7" y2="557.3" href="#P"><stop stop-color="#ffc444"/><stop offset="1" stop-color="#f36f56"/></linearGradient><linearGradient id="g5" x1="644.6" y1="443.4" x2="1365.6" y2="406.1" href="#P"><stop stop-color="#ff9085"/><stop offset="1" stop-color="#fb6fbb"/></linearGradient><linearGradient id="g6" x1="1062.5" y1="1311.7" x2="1004.7" y2="1316.9" href="#P"><stop stop-color="#444b8c"/><stop offset="1" stop-color="#26264f"/></linearGradient><linearGradient id="g7" x1="1049.9" y1="1270" x2="1027.7" y2="1325.5" href="#P"><stop stop-color="#ffc444"/><stop offset="1" stop-color="#f36f56"/></linearGradient><linearGradient id="g8" x1="1258" y1="1306.2" x2="1194.1" y2="1320.1" href="#P"><stop stop-color="#444b8c"/><stop offset="1" stop-color="#26264f"/></linearGradient><linearGradient id="g9" x1="1228.6" y1="1265.3" x2="1210.7" y2="1322.4" href="#P"><stop stop-color="#ffc444"/><stop offset="1" stop-color="#f36f56"/></linearGradient><linearGradient id="g10" x1="377.7" y1="1527.5" x2="233.3" y2="1148.7" href="#P"><stop stop-color="#311944"/><stop offset="1" stop-color="#893976"/></linearGradient><linearGradient id="g11" x1="291.9" y1="1557.5" x2="150.5" y2="1186.7" href="#P"><stop stop-color="#311944"/><stop offset="1" stop-color="#893976"/></linearGradient><linearGradient id="g12" x1="306.8" y1="1703.5" x2="114.3" y2="1340.1" href="#P"><stop stop-color="#311944"/><stop offset="1" stop-color="#893976"/></linearGradient><linearGradient id="g13" x1="574.3" y1="685.2" x2="843.7" y2="62.6" href="#P"><stop stop-color="#ff9085"/><stop offset="1" stop-color="#fb6fbb"/></linearGradient><linearGradient id="g14" x1="941.9" y1="456.3" x2="1058.7" y2="243" href="#P"><stop stop-color="#ffc444"/><stop offset="1" stop-color="#f36f56"/></linearGradient><linearGradient id="g15" x1="1074" y1="221" x2="1119.5" y2="355.8" href="#P"><stop stop-color="#311944"/><stop offset="1" stop-color="#6b3976"/></linearGradient><linearGradient id="g16" x1="1086.7" y1="339.2" x2="1086.6" y2="494.9" href="#P"><stop stop-color="#ffc444"/><stop offset="1" stop-color="#f36f56"/></linearGradient><linearGradient id="g17" x1="1063.4" y1="242.8" x2="1126" y2="428.1" href="#P"><stop stop-color="#311944"/><stop offset="1" stop-color="#6b3976"/></linearGradient><linearGradient id="g18" x1="1082.7" y1="371.5" x2="1081.5" y2="353" href="#P"><stop stop-color="#ffc444"/><stop offset="1" stop-color="#f36f56"/></linearGradient><linearGradient id="g19" x1="917.7" y1="673.8" x2="943.6" y2="752.9" href="#P"><stop stop-color="#ffc444"/><stop offset="1" stop-color="#f36f56"/></linearGradient><linearGradient id="g20" x1="450.6" y1="652.6" x2="738.4" y2="-12.4" href="#P"><stop stop-color="#ff9085"/><stop offset="1" stop-color="#fb6fbb"/></linearGradient><linearGradient id="g21" x1="768.6" y1="724.7" x2="1107.4" y2="-58.1" href="#P"><stop stop-color="#ff9085"/><stop offset="1" stop-color="#fb6fbb"/></linearGradient><linearGradient id="g22" x1="241.2" y1="1299.9" x2="1049.6" y2="1308.8" href="#P"><stop stop-color="#aa80f9"/><stop offset="1" stop-color="#6165d7"/></linearGradient><linearGradient id="g23" x1="-7071.1" y1="573" x2="-9235.9" y2="371.8" href="#P"><stop stop-color="#aa80f9"/><stop offset="1" stop-color="#6165d7"/></linearGradient><linearGradient id="g24" x1="-7077.7" y1="929.7" x2="-9183.9" y2="733.9" href="#P"><stop stop-color="#aa80f9"/><stop offset="1" stop-color="#6165d7"/></linearGradient><linearGradient id="g25" x1="838.7" y1="1608.9" x2="593.6" y2="2434.3" href="#P"><stop stop-color="#40447e"/><stop offset="1" stop-color="#3c3b6b"/></linearGradient><linearGradient id="g26" x1="856.6" y1="1676.3" x2="2101.4" y2="1676.3" href="#P"><stop stop-color="#40447e"/><stop offset="1" stop-color="#3c3b6b"/></linearGradient><linearGradient id="g27" x1="923.2" y1="2164.8" x2="628.6" y2="3157.2" href="#P"><stop stop-color="#40447e"/><stop offset="1" stop-color="#3c3b6b"/></linearGradient><linearGradient id="g28" x1="873.7" y1="2241.5" x2="2100.4" y2="2241.5" href="#P"><stop stop-color="#40447e"/><stop offset="1" stop-color="#3c3b6b"/></linearGradient><linearGradient id="g29" x1="249" y1="1968.6" x2="1053" y2="1977.4" href="#P"><stop stop-color="#ffc444"/><stop offset="1" stop-color="#f36f56"/></linearGradient><linearGradient id="g30" x1="-6996.7" y1="1225.6" x2="-9145.1" y2="1025.9" href="#P"><stop stop-color="#ffc444"/><stop offset="1" stop-color="#f36f56"/></linearGradient><linearGradient id="g31" x1="-7033" y1="1465.9" x2="-9189.3" y2="1265.5" href="#P"><stop stop-color="#ffc444"/><stop offset="1" stop-color="#f36f56"/></linearGradient><linearGradient id="g32" x1="333.3" y1="2431" x2="233" y2="2282.4" href="#P"><stop stop-color="#ffc444"/><stop offset="1" stop-color="#f36f56"/></linearGradient><linearGradient id="g33" x1="641.4" y1="2331.9" x2="795.5" y2="2843.7" href="#P"><stop offset="0" stop-color="#e38ddd"/><stop offset="1" stop-color="#9571f6"/></linearGradient><linearGradient id="g34" x1=".6" y1="1430.8" x2="477.4" y2="1430.8" href="#P"><stop stop-color="#aa80f9"/><stop offset="1" stop-color="#6165d7"/></linearGradient><linearGradient id="g35" x1="399.6" y1="1587.8" x2="704.9" y2="1587.8" href="#P"><stop stop-color="#aa80f9"/><stop offset="1" stop-color="#6165d7"/></linearGradient><linearGradient id="g36" x1="317" y1="1814.1" x2="622.3" y2="1814.1" href="#P"><stop stop-color="#aa80f9"/><stop offset="1" stop-color="#6165d7"/></linearGradient><linearGradient id="g37" x1="234.4" y1="2044" x2="539.7" y2="2044" href="#P"><stop stop-color="#aa80f9"/><stop offset="1" stop-color="#6165d7"/></linearGradient><linearGradient id="g38" x1="148.2" y1="2281" x2="453.5" y2="2281" href="#P"><stop stop-color="#aa80f9"/><stop offset="1" stop-color="#6165d7"/></linearGradient><linearGradient id="g39" x1="65.6" y1="2507.3" x2="370.9" y2="2507.3" href="#P"><stop stop-color="#aa80f9"/><stop offset="1" stop-color="#6165d7"/></linearGradient><linearGradient id="g40" x1="274.9" y1="1422.2" x2="767.4" y2="1422.2" href="#P"><stop stop-color="#aa80f9"/><stop offset="1" stop-color="#6165d7"/></linearGradient><linearGradient id="g41" x1="1684.6" y1="2024.2" x2="2100.3" y2="2024.2" href="#P"><stop stop-color="#40447e"/><stop offset="1" stop-color="#3c3b6b"/></linearGradient><linearGradient id="g42" x1="1720.5" y1="2048.9" x2="2374.8" y2="2048.9" href="#P"><stop stop-color="#444b8c"/><stop offset="1" stop-color="#26264f"/></linearGradient><linearGradient id="g43" x1="2522.6" y1="2256.8" x2="2356" y2="2827.9" href="#P"><stop stop-color="#aa80f9"/><stop offset="1" stop-color="#6165d7"/></linearGradient><linearGradient id="g44" x1="1767.7" y1="2046.8" x2="2377" y2="2046.8" href="#P"><stop stop-color="#aa80f9"/><stop offset="1" stop-color="#6165d7"/></linearGradient></defs><style>.a{fill:url(#g1)}.b{fill:#fcfdfe}.c{fill:url(#g2)}.d{fill:url(#g3)}.e{fill:#26264f}.f{fill:url(#g4)}.g{fill:url(#g5)}.h{fill:url(#g6)}.i{fill:url(#g7)}.j{fill:url(#g8)}.k{fill:url(#g9)}.l{fill:url(#g10)}.m{opacity:.3;mix-blend-mode:multiply;fill:url(#g11)}.n{fill:url(#g12)}.o{fill:url(#g13)}.p{fill:url(#g14)}.q{fill:url(#g15)}.r{fill:url(#g16)}.s{fill:url(#g17)}.t{fill:url(#g18)}.u{fill:url(#g19)}.v{fill:url(#g20)}.w{opacity:.3;mix-blend-mode:multiply;fill:url(#g21)}.x{fill:#d8dee8}.y{fill:url(#g22)}.z{fill:#f4f7fa}.A{fill:url(#g23)}.B{fill:url(#g24)}.C{fill:url(#g25)}.D{fill:url(#g26)}.E{fill:url(#g27)}.F{fill:url(#g28)}.G{fill:url(#g29)}.H{fill:url(#g30)}.I{fill:url(#g31)}.J{opacity:.5;mix-blend-mode:soft-light;fill:#fff}.K{opacity:.3;mix-blend-mode:multiply;fill:url(#g32)}.L{fill:url(#g33)}.M{fill:url(#g34)}.N{fill:url(#g35)}.O{fill:url(#g36)}.P{fill:url(#g37)}.Q{fill:url(#g38)}.R{fill:url(#g39)}.S{fill:url(#g40)}.T{opacity:.3;mix-blend-mode:multiply;fill:url(#g41)}.U{fill:url(#g42)}.V{fill:url(#g43)}.W{fill:url(#g44)}.X{fill:#fff}.Y{opacity:.6;mix-blend-mode:soft-light;fill:#fff}</style><path class="a" d="m1152.5 2891.4c-19.1-8.9-52.5-45.2-57.3-58.3-32.1-86.9-102.6-245.7-67.1-337 6.1-15.5 81.9-7.3 96.5-18.7 49.6-6.5 67.2-5.6 111.3-34.9 130.2-86.6-10-373.5 260.3-371 198.1 1.9 329.9 113 400.8-172.4 71-285.4 456.9-722.4 688.7-432.4 133 166.5-115.5 348.3-85.1 551.6 28.8 193.1-86 307.2-295.1 349.9-209 42.7-139.4 150-139.2 324.7 0.2 209.9-302.8 149-440.3 109-110.8-32.3-414.5-39.7-473.5 89.5z"/><g style="opacity:.8;mix-blend-mode:soft-light"><path class="b" d="m1061.5 2673l-0.5-3.6c175.1-24.7 343.7-76.1 501.3-152.5 151.4-73.5 292.8-170.2 420.2-287.6 247.5-227.8 438.5-529.5 552.4-872.7l3.4 1.2c-114.1 343.7-305.4 646-553.3 874.2-127.8 117.5-269.4 214.5-421.2 288.1-157.9 76.6-326.9 128.1-502.3 152.9z"/><path class="b" d="m2076.6 2779.8c-152.2-111.1-436.7-204.8-634.1-209l0.1-3.6c198 4.2 483.4 98.3 636.2 209.7z"/><path class="b" d="m1195 2652.6l-1.4-3.3c93.7-42 162.6-129.8 204.7-260.9 30.9-96 46.9-212.7 47.7-346.7h3.6c-0.8 134.4-16.9 251.4-47.9 347.8-42.4 132.1-112 220.6-206.7 263.1z"/><path class="b" d="m2019 2198.2l-1.6-3.2c172.2-88.1 373.9-61.4 512.8-23.4l-0.9 3.5c-138.3-37.8-339.1-64.5-510.3 23.1z"/><path class="b" d="m2301 1856.6l-3.4-1.4c35.2-86.8 79.3-272-21.2-537.1l3.4-1.2c33.9 89.4 54.8 182.5 60.3 269.1 6.4 99.7-6.8 190.7-39.1 270.6z"/></g><path class="c" d="m1621.2 3130c-105.8-15.6-211.5-33.5-317-54-1.7 1.6-36.3-228.3 72.9-348.9 215.9-233.6 70.5-443.2 29-567.4-66.4-175.2-32.4-388.1 160.5-348.2 188 34.3 216.5-352.6 184.1-650.7-27.7-145.1 109.2-321.2 245.8-361.4 139.4-44.6 278.6 46.7 321.3 335.9 64.5 334.8-179.8 536.7-270.3 704.6-89.1 164.8 118.1 298.2-48.7 444.2-140.2 129.7-316.9 223-252.3 386 66.5 161.1 50.6 292.9-125.3 459.9z"/><g style="opacity:.8;mix-blend-mode:soft-light"><path class="b" d="m1479.4 3143.6h-3.6c-0.1-2.1 101-485.6 275.3-956.4 24.1-76.2 50.2-153.1 75.5-227.4 67.7-199.1 137.7-405 171-610 37.2-229.2 23.9-435.6-40.5-631l3.4-1.1c64.6 196 77.9 402.9 40.6 632.7-33.3 205.3-103.3 411.3-171.1 610.5-25.3 74.3-51.4 151.2-75.5 227.5-173.7 469.1-274.9 952.5-275.1 955.2z"/><path class="b" d="m1952.5 1574.7l-2.7-2.4c117.9-131.1 260.2-317.3 336.6-417.3 59.7-78 61.8-80.2 64.1-79.8l-0.6 3.5 0.3-1.8 0.7 1.7c-3 1.9-28.9 35.8-61.6 78.6-76.5 100.1-218.8 286.3-336.8 417.5z"/><path class="b" d="m1988.7 1395.2c-24.4-150.5-86.4-249.4-134.1-305.9-53.2-62.9-101.1-89.4-105.9-89.8 0 0 0.4 0 0.8-0.3l-2-3c0.9-0.6 2.2-0.4 4.9 0.8 13 5.6 61.7 36.1 112.9 99.7 64.4 80 108.3 183.1 127 297.9z"/><path class="b" d="m1651 2495l-3.6-0.4c16.6-139.8-15.9-290.1-96.8-446.9-42.2-81.7-95.9-161.8-159.8-237.9-4.5-5.3-6.3-7.5-6.8-8.3l3.1-1.8c0.4 0.6 3.1 3.8 6.4 7.8 64.1 76.3 118 156.6 160.3 238.6 81.2 157.4 113.9 308.4 97.2 448.9z"/><path fill-rule="evenodd" class="b" d="m1698.7 2347.8l-3.1-1.9c126.8-204.7 393.8-219 396.1-218.3l1.4 1.7-1.3 1.8-0.5-1.7-0.2 1.7q0 0 0 0c-4.7 0-266.8 13.7-392.4 216.7zm392-220.1l0.6 1.7z"/><path class="b" d="m1497 3064.7l-3.6-0.1c2.3-60.9-19.5-164.6-135.8-313.2-6.3-8-6.3-8-6.1-9l3.6 0.5-1.8-0.3 1.6-0.6c0.4 0.6 2.7 3.6 5.5 7.1 117 149.5 138.9 254.2 136.6 315.6z"/><path class="b" d="m1523.9 2950.1l-3.5-1c13.4-46.2 66.1-136.8 268.8-224 2.8-1.2 4.6-2 5.2-2.3l1.7 3.2c-0.7 0.3-2.6 1.1-5.5 2.4-201.3 86.7-253.5 176.1-266.7 221.7z"/></g><path class="d" d="m1488.9 47.3c116.2-49.1 227.1-35.9 282.5-15 65.4 24.6 87.1 43.1 145 52.4 51.5 8.3 105-45.5 145.1-7.5 2.7 2.6 6.1 5.7 9.8 11.2 28.7 42.3-5.2 93.3 4.2 182.5 4.8 45.6 16.4 58.3 27.2 146 4.1 33.4 3.2 38.3 2.1 42.1-17.6 59.2-157.1 48-255.3 22.5-135.4-35.2-179-94.3-267.8-67.4-41 12.4-72.2 37.2-92.1 56.1 9.1-140.3-9.8-282.6-0.7-422.9z"/><path class="e" d="m1490.4 1364.5c-3.1 0-5.5-2.4-5.5-5.5v-1353.5c0-3 2.4-5.4 5.5-5.4 3 0 5.4 2.4 5.4 5.4v1353.5c0 3.1-2.4 5.5-5.4 5.5z"/><path class="f" d="m1466.4 507.6l9.7-13.7c0 0-1.8-7.1 1.3-12.4 3.2-5.2 3.2-5.2 3.2-5.2 0 0 4.2-3.9 12.1-1.2 1.8 0.6 3.8 0.4 5.4-0.7 4.7-3.2 5.9 5.7 5.9 5.7 0 0 3.4 4 0.4 7.5 0 0-0.4 5-4.2 7.6-3.8 2.7-14 6.9-14 6.9l-10.9 13.2z"/><path class="g" d="m1464.8 493.2c-70 27.9-115 17-135.9 9.1-26.3-9.9-51.5-28-51.5-28-35.6-25.6-49.5-51-84.6-56.6-2.7-0.4-10.5-1.5-19.1-0.7-50.7 4.5-107 71.5-99.8 116 12.6 77.3 227.6 156.8 345.7 70.8 38-27.7 57.1-66 66.8-92q-10.8-9.3-21.6-18.6z"/><path class="h" d="m1007.7 1291.6c-2.9 2.7-3.1 8.9-3.2 12.9-0.1 1.8-0.1 2.7 0.1 3.3 1.8 4.6 10.8 4.5 25 5.1 22.3 0.9 29.1 2.3 30.6-1.2 1.5-3.2-2.8-8-3.3-8.5-2.6-2.9-5.6-3.8-11.3-5.3-10.8-2.8-18-4.3-20.1-4.7-13.7-2.8-15.9-3.3-17.8-1.6z"/><path class="i" d="m1023.4 1269.3l0.8 25.5c-0.7 1.2-8.4 4.4-14.2 1l-4.4-25.3z"/><path class="j" d="m1196.2 1292c-3.8 3.8-5 11.1-2.1 14.9 2.9 3.8 7.7 1.3 21 2.5 14.1 1.1 17.7 4.7 27.5 2.5 3.9-0.8 10.9-3.1 10.9-5.9 0.1-1.9-3.4-3.1-14.9-7.7-16.3-6.4-16.2-6.7-19.7-7.5-8.8-1.9-17.6-3.9-22.7 1.2z"/><path class="k" d="m1206.6 1269.3l5.8 24.1c-0.6 1.2-8.1 5.1-14.1 2l-9.4-23.5z"/><path class="l" d="m1171 747.4c-3.2 79.6-2.6 169.4 5.3 267.3 7.7 96.7 21.1 184.5 36.7 261.9q-13.8 2.9-27.6 5.8c-21.9-22.7-49.2-58-60.6-106.6-7.2-30.1-3.4-45.2-7-82-5.7-58.5-21.9-89.9-37.8-137.7-14.3-43-30.5-105.8-36.6-189q63.8-9.9 127.6-19.7z"/><path class="m" d="m1158.3 1119.5c-10.2-40.2-29.7-50.8-30.4-88.7-0.5-26.8 9.1-29 8.5-54.7-1-38.9-23.8-59.3-35.2-83.8-12.1-25.9-16.8-67.5 15.8-136.6q-36.8 5.7-73.6 11.4c6.1 83.2 22.3 146 36.6 189 15.9 47.8 32.1 79.2 37.8 137.7 3.6 36.8-0.2 51.9 7 82 11.4 48.6 38.7 83.9 60.6 106.6q3.5-0.7 7-1.5c-23.6-28.2-32-53.4-34.1-73.9-3.5-33.3 10.2-47 0-87.5z"/><path class="n" d="m1078.9 742.4c-10.9 100.9-21 203.7-30.1 308.5q-10.2 117.9-18.2 232.8-14 1-28 2c-8.1-17.2-18.6-43.4-25-76.5-7.8-40.2-4.3-63.7-6.4-105.1-2.4-46.4-9-56.9-18.4-115.8-19.1-119.5-28.7-179.3 1.6-214.6 9.9-11.4 40.4-39.8 124.5-31.3z"/><path class="o" d="m837.1 428.6c50.4-17.1 127.4-36 221.5-32.1 54.6 2.2 101.4 11.6 138.6 22q7.5 42.1 15 84.2c1.2 28.2 1.6 66.3-1.6 111.4-3.2 45.1-6.3 45.8-13.5 109.4-11.8 103.7-6.9 130.8-27.7 143.3-13.6 8.1-18.5-1.7-87.7-8.6-46.4-4.6-70.1-6.7-93.6 1.2-31.9 10.9-42.7 29.1-55.9 23.1-12.6-5.6-14.2-27.5-15.7-65.6-2.4-58.8-2.3-98.7-2.5-113-1-65.6-17.6-115.7-38.9-179.8-13.3-40.2-27.3-72.6-38-95.5z"/><path class="p" d="m1052.4 331.5c-0.7 16.5-3.3 29.4-5.5 38.3-2.5 10.2-4.1 12.7-6.1 14.8-2.9 3.1-7.2 5.6-31.2 10.2-13 2.5-14.6 2.3-15 3.5-1.7 6.2 32.2 29.3 68.7 26.1 22.3-1.9 43.2-13.5 42.3-20.2-0.9-6.8-23.2-4.4-29.2-16.8-4.1-8.7 1.7-20.3 8.3-29.9-5.3-11.4-27-14.7-32.3-26z"/><path class="q" d="m1093.2 340.2c5.6-6.7 6.6-18.8 0.9-26.8-4.8-6.9-12.9-8.2-17.8-9.1-14-2.4-32.2 2.6-39.1 15.3-4.1 7.5 3 24 4.1 26.9 1.2 3.4 3.7 4.6 6 7.2 3.1 3.6 7.9 9.3 15.8 18.9 0.8-2.7 2-5.9 3.7-9.4 0.7-1.4 3.4-6.7 7.4-11 7.8-8.6 13.7-5.7 19-12z"/><path class="r" d="m1051.6 364.3c0 0 8.4 15.8 27 15.6 16.7-0.2 21.1-37.3 10.9-45.8-3.4-2.8-10.4-4.3-16.2-3-3.5 0.8-4.7 2.1-10.4 3.3-5.2 1.1-6.6 0.4-8.2 1.6-2.1 1.6-3.7 5.5-1.1 16.6-2.9-3.4-6.7-4.8-9.4-3.7-0.5 0.2-1.7 0.9-2.4 2-2.5 4.1 1.1 9.8 9.8 13.4z"/><path class="s" d="m1054 333.8c0.8 0.6-1.8 3.5-2.2 7.7-0.8 8.2 7 18.5 15.4 19.7 5 0.8 6.5-2.1 14.8-2.6 5.2-0.2 9.4 0.6 12.1 1.4 2.1 9.1-0.8 17.9-7.1 21.8-6.7 4.1-14.8 1-18.2-0.4-2.3-0.8-9.6-3.7-13.1-10.7-3.6-7.3 0.6-11.3-3.8-16.4-2.2-2.5-5.2-3.7-8-8.6-0.7-1.3-1.2-2.4-1.5-3.2 4.5-4.3 10.5-9.7 11.6-8.7z"/><path class="t" d="m1087.9 363c0 0-3.7 1.7-9.9 1-0.3-0.1-0.6 0-0.7 0.2-0.1 0.6 3.7 3.4 7.4 2.6 2.6-0.6 4.8-3 4.5-3.6-0.2-0.3-0.7-0.3-1.3-0.2z"/><path class="u" d="m883.6 704l16.7-1c0 0 18.3-15.3 26.7-14.3 8.3 0.9 20.7 6.7 22.3 7.9 1.5 1.2-4.6 8-10.7 7.4-6-0.7-19.6 2.6-22 7.9-2.5 5.4-13 8.6-14.8 5.5l-22.4 4.4z"/><path class="v" d="m888.7 698.1c1.2 13.7-1.8 23-6.8 29.4-22.1 28.3-97.1 16.7-141.7-21.2-32.9-28-50.4-71.5-49.8-110.5 1.3-76.2 71.8-150.8 176.8-176.5q23.3 69.6 46.6 139.3c-64.7 1-104 49.7-98.2 84.5 4.3 26 34.6 49.3 73.1 55z"/><path class="w" d="m1142.5 832.7c-34.1-14.5-33.9-44.6-65.6-57.1-45.4-17.9-95.5 23.7-103.3 12.2-8.2-12 51.7-48.8 43.7-85.1-6.3-28.8-48.1-23.7-70.5-63.2-21.2-37.4-0.6-72.1-19.4-85.1-6.8-4.6-18.6-6.5-41.2 3.4 15.7 49.1 27 92.4 27.8 146.1 0.2 14.3 0.1 54.2 2.5 113 1.5 38.1 3.1 60 15.7 65.6 13.2 6 24-12.2 55.9-23.1 23.5-7.9 47.2-5.8 93.6-1.2 69.2 6.9 74.1 16.7 87.7 8.6 8.8-5.3 13-13.2 15.8-28.5-13.9 1.5-28.6 0.5-42.7-5.6z"/><path class="x" d="m963 1684.6q-288.9 10.3-577.7 23.4c-53.1 2.4-96.3-56.2-97.5-130.9q-0.4-25.4-0.8-50.8c-1.1-74.7 40.5-139.7 93.8-145.1q290.2-29.4 580.9-55.9 0.7 179.6 1.3 359.3z"/><path class="y" d="m881.8 1701.3q-244.6 10.9-489 23.8c-69.2 3-125.5-73.6-127.1-170.7q0-0.5 0-1.1c-1.5-97.1 52.6-182 122.2-189.2q245.7-30.3 491.8-58.6c8.7-0.8 108.9 7.9 109 18.5 0 10.6-93.5 19.1-102.1 19.8q-249.4 26.6-498.3 55.2c-56.1 5.5-100 73.9-98.8 152.5q0 0.6 0 1.1c1.2 78.6 46.9 140.3 102.8 137.6q244.5-14.6 489.3-27.2c8.5-0.4 108.2 10 108.2 20.7 0.1 10.6-99.4 17.2-108 17.6z"/><path class="z" d="m2074.3 1672.7q-590.4-1.4-1180.5 9.2-0.8-179.2-1.7-358.3 593.8 4.8 1187.2 21.6-2.5 163.7-5 327.5z"/><path class="A" d="m2088.8 1364q-604.3-16.3-1208.9-20.2c-8.1-0.1-14.8-8.7-14.9-19.2-0.1-10.6 6.6-19.1 14.7-19.1 403.4 3.7 806.6 11.6 1209.7 23.6 6.8 0.2 12.1 8.2 12 17.8-0.2 9.6-5.8 17.3-12.6 17.1z"/><path class="B" d="m2083.8 1690.2q-601.2-0.7-1202 11.1c-8.1 0.1-14.8-8.3-14.8-18.9-0.1-10.6 6.5-19.2 14.6-19.4q601.2-10.1 1202.7-7.7c6.8 0 12.1 7.8 12 17.4-0.2 9.7-5.8 17.5-12.5 17.5z"/><path class="C" d="m970.6 1695.6h-0.1l-18.3-0.2-79.4 2.4-469.2 16.4c-13.9 0.3-27.2 2.9-39.6 7.6-54 20.3-90.8 78.5-86.8 145.5l0.1 0.9c4.5 74.2 57.5 134.3 122.3 143.5 6.6 0.9 13.5 1.3 20.4 1.1l392.8-15.3 62.2-2.5 24-0.9 69.1-3.1 14.4-0.9h0.1l5 0.2 10-0.2 0.3-2.9 1.1-12.6 0.2-1.5 0.9-10.2 22.1-241.7 1.4-15.3 0.7-7.2 0.6-5.8z"/><path class="z" d="m2076.2 1970.5l-1035.2 6.5c-86.1 0.5-157.4-49.7-159.6-112.3l-1.5-42.6c-2.3-63 65.9-115.2 152.7-116.5l1043.4-15z"/><path class="D" d="m2087.4 1985.2l-1090.3 6.4c-74.6 0.4-137.5-65.4-140.4-147v-0.9c-3-82.1 55.5-150 130.7-151.1l1099.9-16.3c7.8-0.1 14.1 6.6 14.1 14.9 0 8.3-6.3 15.1-14.1 15.2l-1098.9 15.3c-60.6 0.9-107.9 55.6-105.5 121.7v0.9c2.3 65.9 53 119 113.2 118.6l1091.3-7.3c7.7-0.1 14 6.5 14 14.7 0 8.2-6.3 14.9-14 14.9z"/><path class="E" d="m985.2 2237.7l-17.1 0.6-62.6 2.1-33.3 1.2-286 9.6-12 0.5-54.3 1.8-87 2.9-35.2 1.2c-11 0.3-21.7 2.6-31.8 6.8-6.9 2.9-13.3 6.6-19.7 11.1-42.9 30.4-72.3 96.5-72.3 172.2v1.2c0 103.4 54.9 190.1 124.1 193.2l570.3 15.9 36.3 1 2-20.2 1-9.8 33.6-336.1 2.4-19.4 2.5-20.9v-0.1l0.9-13.4 0.2-3.4z"/><path class="z" d="m2077 2259.4v348.8l-284.4 11.3-722.3 28.4c-22.6 0.9-44.2-2.4-64-9.1-62.9-21.3-107.4-77.3-107.4-144.8v-60.2c0-79.9 62.8-146.9 144.2-160.3 9-1.4 18.2-2.3 27.5-2.4l633.1-7.3z"/><path class="F" d="m2100.4 2607.4c0 10.2-5.5 18.7-12.3 19l-272.7 11.2-793.1 32.4c-19.1 0.8-36.5-3.5-53.3-12-56-28.2-95.3-102.9-95.3-192.1v-1.3c0-115.5 66.5-210.3 148.5-211.8h0.5l22.8-0.3 666.3-7 376.3-4c0.1 0 0.1 0 0.1 0 6.7 0 12.2 8.4 12.2 18.7 0 10.2-5.5 18.7-12.3 18.8l-9.7 0.2-380.6 5-656.6 8.7-18.4 0.3c-66.4 0.8-120.3 77.4-120.3 170.7v1.2c0 86.3 46.1 155.9 105.5 163.9 4.9 0.7 9.5 0.9 14.5 0.7l752.1-28.6 303.9-11.5 9.7-0.3c6.7-0.3 12.2 7.8 12.2 18.1z"/><path class="x" d="m968.1 2242.6l-577.6 13.1c-53.1 1.1-95.4-40.9-95.4-93.9v-36c0-53 42.3-98.6 95.4-102l577.6-36z"/><path class="G" d="m886.8 2254.2l-489.1 13.7c-69.2 1.4-124.3-53.5-124.3-122.4v-0.8c0-68.9 55.1-128.4 124.3-132.9l489.1-38.3c8.6-0.5 108.1 5.9 108.1 13.5 0 7.5-92.9 13.2-101.4 13.7l-495.8 35.8c-55.9 3.4-100.6 51.5-100.6 107.2v0.8c0 55.7 44.7 100 100.6 98.6l489.1-16c8.6-0.3 108.1 7.4 108.1 14.9 0 7.6-99.5 12-108.1 12.2z"/><path class="z" d="m2077 1997.3v232.3l-360.1 3.4-670.6 6.1-54.7 0.5-23.6 0.3-62.6 0.5-6.5 0.1v-254.1l63.7 0.1 32.2 0.6 3.1 0.1 282 2.7z"/><path class="H" d="m2088.2 2010.6l-1201.4-9.9c-8.1-0.1-14.7-6.2-14.7-13.7 0-7.5 6.6-13.5 14.7-13.5l1201.4 12.3c6.7 0.1 12.2 5.7 12.2 12.5 0 6.8-5.5 12.3-12.2 12.3z"/><path class="I" d="m2100.4 2229.2c0 6.8-5.5 12.3-12.2 12.3 0 0 0 0-0.1 0l-376.4 4-666.4 7-23 0.2-0.9 0.9-134.6 2.3h-0.1c-6.6 0-12.1-4.8-13.9-10.2-0.3-1.1-0.6-2.6-0.6-3.7-0.1-0.2-0.1-0.7-0.1-1 0-7.5 6.6-13.9 14.7-13.9h0.5l11.7-0.1 69.1-0.6 756.1-6.2 354.2-3 9.7-0.1c6.8-0.1 12.3 5.3 12.3 12.1z"/><path class="J" d="m841.9 2612l-129-7.4c-31.2-88.8-28.8-174.5 0-278.8l129 0.4c-25.9 106.5-21.9 200.6 0 285.8z"/><path class="K" d="m574.5 2265.9l-4.1-160.9-148 163c0 0-80 43.1-66.3 118.8l91.5-36.4 81.3 28.2c0 0 2.1-79.5 45.6-112.7z"/><path class="L" d="m405.7 2115.1l164.7-10.1c0 0-77.4 58.8-41.5 273.6 0 0-70.4-22.4-101-60.7l-71.8 68.9c0 0-43.8-190.9 49.6-271.7z"/><path class="M" d="m468.8 1431.7c-6.4-2.4-13.4 0.3-15.4 6l-452.2 1239.4c-2.1 5.7 1.5 12.2 7.9 14.6 6.5 2.3 13.4-0.4 15.5-6l452.2-1239.5c2-5.7-1.5-12.2-8-14.5z"/><path class="N" d="m704.9 1601.1c0 6.5-5.3 11.9-11.9 11.9h-281.5c-6.5 0-11.9-5.4-11.9-11.9v-1.4c0-6.6 5.4-11.9 11.9-11.9h281.5c6.6 0 11.9 5.3 11.9 11.9z"/><path class="O" d="m622.3 1827.3c0 6.6-5.3 11.9-11.9 11.9h-281.5c-6.5 0-11.9-5.3-11.9-11.9v-1.3c0-6.6 5.4-11.9 11.9-11.9h281.5c6.6 0 11.9 5.3 11.9 11.9z"/><path class="P" d="m539.7 2057.2c0 6.6-5.3 11.9-11.9 11.9h-281.5c-6.6 0-11.9-5.3-11.9-11.9v-1.3c0-6.6 5.3-11.9 11.9-11.9h281.5c6.6 0 11.9 5.3 11.9 11.9z"/><path class="Q" d="m453.5 2294.3c0 6.5-5.3 11.9-11.9 11.9h-281.5c-6.6 0-11.9-5.4-11.9-11.9v-1.4c0-6.6 5.3-11.9 11.9-11.9h281.5c6.6 0 11.9 5.3 11.9 11.9z"/><path class="R" d="m370.9 2520.5c0 6.6-5.3 11.9-11.9 11.9h-281.5c-6.6 0-11.9-5.3-11.9-11.9v-1.3c0-6.6 5.3-11.9 11.9-11.9h281.5c6.6 0 11.9 5.3 11.9 11.9z"/><path class="S" d="m758.5 1423.1c-6.6-2.4-13.8 0.3-15.9 6.2l-467 1281.6c-2.2 5.9 1.5 12.6 8.2 15.1 6.6 2.4 13.8-0.4 15.9-6.3l467-1281.6c2.2-5.8-1.5-12.6-8.2-15z"/><path class="T" d="m2077 2279.2v310.4l10.4-0.3c6.8-0.3 12.6 7.8 12.6 18.1 0 10.2-5.3 18.7-12 19l-272.7 11.2c-7.6-5.7-14.9-11.8-22-18.1q-9.8-8.8-18.8-18.4c-55.7-58.6-89.9-137.9-89.9-225 0-31.9 4.6-62.7 13.2-91.9q2.9-10.3 6.6-20.4 3.4-9.2 7.3-18.1 2.8-6.4 5.9-12.7c2.1-4.4 4.3-8.6 6.6-12.8 18-32.9 41.3-62.5 69-87.3 59.9-66.7 146.1-108.7 242.5-108.7 14.2 0 30.5 0.9 41.3 2.7v190.3h10.4c6.8-0.1 12.6 5.4 12.6 12.2 0 6.8-5.2 12.4-12 12.5 6.8 0 12.3 8.2 12.3 18.5 0 10.2-6.2 18.6-12.9 18.7z"/><path class="U" d="m2047.7 2048.9c-180.4 0-327.2 146.8-327.2 327.2 0 180.4 146.8 327.2 327.2 327.2 180.4 0 327.1-146.8 327.1-327.2 0-180.4-146.7-327.2-327.1-327.2z"/><path class="V" d="m2072.4 2678.6c-180.4 0-327.2-146.8-327.2-327.2 0-180.4 146.8-327.2 327.2-327.2 180.4 0 327.1 146.8 327.1 327.2 0 180.4-146.7 327.2-327.1 327.2z"/><path class="W" d="m2377 2351.4c0 168.3-136.4 304.6-304.6 304.6-60 0-116-17.3-163.1-47.3-85.1-54-141.6-149-141.6-257.3 0-168.2 136.4-304.6 304.7-304.6q4.2 0 8.3 0.1c164.4 4.5 296.3 139.1 296.3 304.5z"/><path class="X" d="m2072.4 2211.4l-273.6 83.4 273.6 83.4 273.5-83.4z"/><path class="X" d="m2072.4 2407.4l-172.2-52.4v119.8c0 19.7 13.7 36.7 33 40.8 92.5 19.6 181.4 20.2 266.5 0.7 18.8-4.4 32.1-21.3 32.1-40.6v-116.9z"/><path class="X" d="m1862.2 2457.2q-22.5 9.9-39.3 0.4c-3.3-1.9-4.9-5.7-4.1-9.4l24.3-121.1 24.2 120.2c0.8 4.1-1.3 8.2-5.1 9.9z"/><path class="X" d="m2072.4 2282.5l-232.8 24.7v40.4h6.9l0.7-35.4z"/><path class="Y" d="m2377 2351.4c0 168.3-136.4 304.6-304.6 304.6-60 0-116-17.3-163.1-47.3 28.6-77.9 111.4-161.6 197.2-214 158.6-97 38.1-272.3-25.8-347.8 164.4 4.5 296.3 139.1 296.3 304.5z"/></svg>